<svg xmlns="http://www.w3.org/2000/svg" xmlns:xlink="http://www.w3.org/1999/xlink" contentStyleType="text/css" data-diagram-type="DESCRIPTION" height="327px" preserveAspectRatio="none" style="width:952px;height:327px;background:#FFFFFF;" version="1.1" viewBox="0 0 952 327" width="952px" zoomAndPan="magnify"><defs/><g><rect fill="#F9F9F9" height="28.7939" rx="2.5" ry="2.5" style="stroke:#DDDDDD;stroke-width:3;" width="941.7231" x="5" y="5"/><text fill="#000000" font-family="monospace" font-size="10" lengthAdjust="spacing" textLength="354.0576" x="10" y="20">Please&#160;use&#160;'!option&#160;handwritten&#160;true'&#160;to&#160;enable&#160;handwritten</text><!--cluster Surface--><g class="cluster" data-entity="Surface" data-source-line="8" data-uid="ent0003" id="cluster_Surface"><rect fill="none" height="177.86" rx="2.5" ry="2.5" style="stroke:#181818;stroke-width:1;" width="399" x="7" y="143.9339"/><text fill="#000000" font-family="sans-serif" font-size="14" font-weight="bold" lengthAdjust="spacing" textLength="201.0381" x="105.981" y="161.0414">&#1055;&#1086;&#1076;&#1089;&#1090;&#1080;&#1083;&#1072;&#1102;&#1097;&#1072;&#1103; &#1087;&#1086;&#1074;&#1077;&#1088;&#1093;&#1085;&#1086;&#1089;&#1090;&#1100;</text></g><!--cluster Weather--><g class="cluster" data-entity="Weather" data-source-line="13" data-uid="ent0006" id="cluster_Weather"><rect fill="none" height="108" rx="2.5" ry="2.5" style="stroke:#181818;stroke-width:1;" width="333" x="446" y="108.7939"/><text fill="#000000" font-family="sans-serif" font-size="14" font-weight="bold" lengthAdjust="spacing" textLength="142.2695" x="541.3652" y="125.9014">&#1043;&#1080;&#1076;&#1088;&#1086;&#1084;&#1077;&#1090;&#1077;&#1086;&#1091;&#1089;&#1083;&#1086;&#1074;&#1080;&#1103;</text></g><!--entity HSG--><g class="entity" data-entity="HSG" data-source-line="9" data-uid="ent0004" id="entity_HSG"><rect fill="#F1F1F1" height="38.6211" rx="2.5" ry="2.5" style="stroke:#181818;stroke-width:0.5;" width="121.4932" x="260.5" y="258.7939"/><text fill="#000000" font-family="sans-serif" font-size="14" lengthAdjust="spacing" textLength="101.4932" x="270.5" y="283.9014">&#1058;&#1080;&#1087; &#1087;&#1086;&#1095;&#1074; (HSG)</text></g><!--entity LULC--><g class="entity" data-entity="LULC" data-source-line="10" data-uid="ent0005" id="entity_LULC"><rect fill="#F1F1F1" height="38.6211" rx="2.5" ry="2.5" style="stroke:#181818;stroke-width:0.5;" width="194.4258" x="31" y="258.7939"/><text fill="#000000" font-family="sans-serif" font-size="14" lengthAdjust="spacing" textLength="174.4258" x="41" y="283.9014">&#1047;&#1077;&#1084;&#1083;&#1077;&#1087;&#1086;&#1083;&#1100;&#1079;&#1086;&#1074;&#1072;&#1085;&#1080;&#1077; (LULC)</text></g><!--entity AMC--><g class="entity" data-entity="AMC" data-source-line="14" data-uid="ent0007" id="entity_AMC"><rect fill="#F1F1F1" height="38.6211" rx="2.5" ry="2.5" style="stroke:#181818;stroke-width:0.5;" width="265.0889" x="489.5" y="153.7939"/><text fill="#000000" font-family="sans-serif" font-size="14" lengthAdjust="spacing" textLength="245.0889" x="499.5" y="178.9014">&#1055;&#1088;&#1077;&#1076;&#1096;&#1077;&#1089;&#1090;&#1074;&#1091;&#1102;&#1097;&#1077;&#1077; &#1091;&#1074;&#1083;&#1072;&#1078;&#1085;&#1077;&#1085;&#1080;&#1077; (AMC)</text></g><!--entity CN--><g class="entity" data-entity="CN" data-source-line="6" data-uid="ent0002" id="entity_CN"><rect fill="#E7E7E7" height="38.6211" rx="2.5" ry="2.5" style="stroke:#181818;stroke-width:0.5;" width="184.1445" x="295" y="45.7939"/><text fill="#000000" font-family="sans-serif" font-size="14" lengthAdjust="spacing" textLength="164.1445" x="305" y="70.9014">&#1050;&#1086;&#1101;&#1092;&#1092;&#1080;&#1094;&#1080;&#1077;&#1085;&#1090; &#1089;&#1090;&#1086;&#1082;&#1072; (CN)</text></g><g class="entity" data-entity="GMN12" data-source-line="23" data-uid="ent0013" id="entity_GMN12"><path d="M430.5,255.7939 L430.5,274.2939 L381.82,278.2939 L430.5,282.2939 L430.5,300.376 A0,0 0 0 0 430.5,300.376 L557.0933,300.376 A0,0 0 0 0 557.0933,300.376 L557.0933,265.7939 L547.0933,255.7939 L430.5,255.7939 A0,0 0 0 0 430.5,255.7939" fill="#FAFAFA" style="stroke:#181818;stroke-width:0.5;"/><path d="M547.0933,255.7939 L547.0933,265.7939 L557.0933,265.7939 L547.0933,255.7939" fill="#FAFAFA" style="stroke:#181818;stroke-width:0.5;"/><text fill="#000000" font-family="sans-serif" font-size="13" lengthAdjust="spacing" textLength="105.5933" x="436.5" y="274.8223">&#1043;&#1088;&#1091;&#1087;&#1087;&#1099; A, B, C, D</text><text fill="#000000" font-family="sans-serif" font-size="13" lengthAdjust="spacing" textLength="99.6582" x="436.5" y="292.1133">(&#1048;&#1085;&#1092;&#1080;&#1083;&#1100;&#1090;&#1088;&#1072;&#1094;&#1080;&#1103;)</text></g><g class="entity" data-entity="GMN15" data-source-line="28" data-uid="ent0016" id="entity_GMN15"><path d="M592.5,255.7939 L592.5,300.376 L713.9072,300.376 L713.9072,265.7939 L703.9072,255.7939 L592.5,255.7939" fill="#FAFAFA" style="stroke:#181818;stroke-width:0.5;"/><path d="M703.9072,255.7939 L703.9072,265.7939 L713.9072,265.7939 L703.9072,255.7939" fill="#FAFAFA" style="stroke:#181818;stroke-width:1;"/><text fill="#000000" font-family="sans-serif" font-size="13" lengthAdjust="spacing" textLength="100.4072" x="598.5" y="274.8223">&#1056;&#1072;&#1089;&#1090;&#1080;&#1090;&#1077;&#1083;&#1100;&#1085;&#1086;&#1089;&#1090;&#1100;,</text><text fill="#000000" font-family="sans-serif" font-size="13" lengthAdjust="spacing" textLength="93.8818" x="598.5" y="292.1133">&#1064;&#1077;&#1088;&#1086;&#1093;&#1086;&#1074;&#1072;&#1090;&#1086;&#1089;&#1090;&#1100;</text></g><g class="entity" data-entity="GMN18" data-source-line="33" data-uid="ent0019" id="entity_GMN18"><path d="M803,150.7939 L803,169.2939 L754.55,173.2939 L803,177.2939 L803,195.376 A0,0 0 0 0 803,195.376 L930.7231,195.376 A0,0 0 0 0 930.7231,195.376 L930.7231,160.7939 L920.7231,150.7939 L803,150.7939 A0,0 0 0 0 803,150.7939" fill="#FAFAFA" style="stroke:#181818;stroke-width:0.5;"/><path d="M920.7231,150.7939 L920.7231,160.7939 L930.7231,160.7939 L920.7231,150.7939" fill="#FAFAFA" style="stroke:#181818;stroke-width:0.5;"/><text fill="#000000" font-family="sans-serif" font-size="13" lengthAdjust="spacing" textLength="106.7231" x="809" y="169.8223">&#1042;&#1083;&#1072;&#1078;&#1085;&#1086;&#1089;&#1090;&#1100; &#1087;&#1086;&#1095;&#1074;&#1099;</text><text fill="#000000" font-family="sans-serif" font-size="13" lengthAdjust="spacing" textLength="87.1914" x="809" y="187.1133">&#1087;&#1077;&#1088;&#1077;&#1076; &#1076;&#1086;&#1078;&#1076;&#1077;&#1084;</text></g><!--reverse link CN to Surface--><g class="link" data-entity-1="CN" data-entity-2="Surface" data-source-line="17" data-uid="lnk8" id="link_CN_Surface"><path d="M372.029,90.3375 C362.834,105.1075 353.0025,120.8989 342.0375,138.5102 C341.3522,139.6109 340.6748,140.6988 340.0069,141.7716 C339.6729,142.3081 339.3412,142.8407 339.0121,143.3693 C338.9299,143.5015 338.8477,143.6333 338.7658,143.765" fill="none" id="CN-backto-Surface" style="stroke:#181818;stroke-width:1;"/><polygon fill="#181818" points="375.2,85.2439,367.0478,90.7703,372.5575,89.4886,373.8392,94.9983,375.2,85.2439" style="stroke:#181818;stroke-width:1;"/></g><!--reverse link CN to Weather--><g class="link" data-entity-1="CN" data-entity-2="Weather" data-source-line="18" data-uid="lnk9" id="link_CN_Weather"><path d="M411.6035,89.4276 C413.9035,91.9376 412.06,90.1439 414,92.7939 C425.295,108.2689 435.0325,127.4039 442.0712,143.0227 C442.9511,144.975 443.7888,146.8724 444.582,148.7009 C444.9787,149.6151 445.3642,150.5121 445.7384,151.3901 C445.7852,151.4998 445.8318,151.6093 445.8782,151.7184" fill="none" id="CN-backto-Weather" style="stroke:#181818;stroke-width:1;"/><polygon fill="#181818" points="407.55,85.0039,410.6812,94.3418,410.928,88.6903,416.5794,88.9371,407.55,85.0039" style="stroke:#181818;stroke-width:1;"/></g><!--reverse link Surface to HSG--><g class="link" data-entity-1="Surface" data-entity-2="HSG" data-source-line="19" data-uid="lnk10" id="link_Surface_HSG"><path d="M321,180.3639 C321,182.6239 321,229.3739 321,258.4539" fill="none" id="Surface-backto-HSG" style="stroke:#181818;stroke-width:1;"/><polygon fill="#181818" points="321,174.3639,317,183.3639,321,179.3639,325,183.3639,321,174.3639" style="stroke:#181818;stroke-width:1;"/></g><!--reverse link Surface to LULC--><g class="link" data-entity-1="Surface" data-entity-2="LULC" data-source-line="20" data-uid="lnk11" id="link_Surface_LULC"><path d="M315.568,177.1914 C311.338,179.4514 217.26,229.6539 162.86,258.6939" fill="none" id="Surface-backto-LULC" style="stroke:#181818;stroke-width:1;"/><polygon fill="#181818" points="320.86,174.3639,311.037,175.0771,316.45,176.7201,314.8069,182.1331,320.86,174.3639" style="stroke:#181818;stroke-width:1;"/></g><!--link LULC to GMN15--><g class="link" data-entity-1="LULC" data-entity-2="GMN15" data-source-line="28" data-uid="lnk17" id="link_LULC_GMN15"><path d="M178.43,258.7839 C202.81,250.4139 232.75,241.6839 260.5,237.7939 C293.18,233.2139 524.82,233.2139 557.5,237.7939 C576.41,240.4439 596.03,247.8439 612.53,255.6039" fill="none" id="LULC-GMN15" style="stroke:#181818;stroke-width:1;stroke-dasharray:7,7;"/></g><!--SRC=[RL9DJzj04BtxLupW4gJm3xZGL883pIMgUbub6piYiP6z2A6gKaZ2HqLQ93YquXBKKuzH5DE8GF8NPluHRzU92L0Vh5tFlFTctdEotmWFLAnQ5AYmTXGtZD4XrLKpqLwIrrfH65M3E6ffCl7XQkL0LVULholckAafrbMZGh-vsf04gXOTDK9_GUhbJRJ6jpoJ7zAJ7a_aZ2USyfDqI4wampD-u24LIkMDDL89bSgqdfXO6UqVl-OOe7Ni81EUyb1-odUyhuZdA8mubRQSyXE4q29zHrOvZEkggkchHtXMoVw0PEwWSiuZAknMTZ9z7Dur_yAyZz1CdTHK-lpFIGuXXrseiFTvhvJ1xSdxzdhm6pIDfGt88wRiW6OcNJa1eIMPo9L3Vj7A13h-pwm3O5CmN01jrny1RPTF8IrTKC0DliSiwNAUxK-BSN2mqy3KhStDfHtBwqBHMxfalzdrL-zk7o-C349l-86Xg9vRn3Uml0jFvd99sqNwKAHIaJwwMe5_8-AUZKhwoAEDgCxihXkU3cja2T_IEYd7UuTcbxCpo_gTnrhCElxQkF7jDCl1_aPP_IrxKzSTkJN28QzpjnQ8_2UGownZxhXXEF4OzFTu8_uNucS0]--></g></svg>