<svg xmlns="http://www.w3.org/2000/svg" xmlns:xlink="http://www.w3.org/1999/xlink" contentStyleType="text/css" data-diagram-type="DESCRIPTION" height="442px" preserveAspectRatio="none" style="width:737px;height:442px;background:#FFFFFF;" version="1.1" viewBox="0 0 737 442" width="737px" zoomAndPan="magnify"><title>&#1055;&#1088;&#1086;&#1094;&#1077;&#1089;&#1089; &#1075;&#1080;&#1076;&#1088;&#1086;&#1076;&#1080;&#1085;&#1072;&#1084;&#1080;&#1095;&#1077;&#1089;&#1082;&#1086;&#1075;&#1086; &#1084;&#1086;&#1076;&#1077;&#1083;&#1080;&#1088;&#1086;&#1074;&#1072;&#1085;&#1080;&#1103; &#1079;&#1072;&#1090;&#1086;&#1087;&#1083;&#1077;&#1085;&#1080;&#1103;</title><defs/><g><g class="title" data-source-line="1"><text fill="#000000" font-family="sans-serif" font-size="14" font-weight="bold" lengthAdjust="spacing" textLength="409.8965" x="156.5518" y="25.1074">&#1055;&#1088;&#1086;&#1094;&#1077;&#1089;&#1089; &#1075;&#1080;&#1076;&#1088;&#1086;&#1076;&#1080;&#1085;&#1072;&#1084;&#1080;&#1095;&#1077;&#1089;&#1082;&#1086;&#1075;&#1086; &#1084;&#1086;&#1076;&#1077;&#1083;&#1080;&#1088;&#1086;&#1074;&#1072;&#1085;&#1080;&#1103; &#1079;&#1072;&#1090;&#1086;&#1087;&#1083;&#1077;&#1085;&#1080;&#1103;</text></g><!--cluster ??????? ??????--><g class="cluster" data-entity="....... ......" data-source-line="5" data-uid="ent0002" id="cluster_....... ......"><path d="M40.5,45.6348 L162.25,45.6348 A3.75,3.75 0 0 1 164.75,48.1348 L171.75,70.2559 L675.5,70.2559 A2.5,2.5 0 0 1 678,72.7559 L678,163.1348 A2.5,2.5 0 0 1 675.5,165.6348 L40.5,165.6348 A2.5,2.5 0 0 1 38,163.1348 L38,48.1348 A2.5,2.5 0 0 1 40.5,45.6348" fill="none" style="stroke:#000000;stroke-width:1.5;"/><line style="stroke:#000000;stroke-width:1.5;" x1="38" x2="171.75" y1="70.2559" y2="70.2559"/><text fill="#000000" font-family="sans-serif" font-size="14" font-weight="bold" lengthAdjust="spacing" textLength="120.75" x="42" y="62.7422">&#1042;&#1093;&#1086;&#1076;&#1085;&#1099;&#1077; &#1076;&#1072;&#1085;&#1085;&#1099;&#1077;</text></g><!--cluster ????????????????? ????--><g class="cluster" data-entity="................. ...." data-source-line="11" data-uid="ent0006" id="cluster_................. ...."><path d="M281.5,189.6348 L462.8252,189.6348 A3.75,3.75 0 0 1 465.3252,192.1348 L472.3252,214.2559 L480.5,214.2559 A2.5,2.5 0 0 1 483,216.7559 L483,307.1348 A2.5,2.5 0 0 1 480.5,309.6348 L281.5,309.6348 A2.5,2.5 0 0 1 279,307.1348 L279,192.1348 A2.5,2.5 0 0 1 281.5,189.6348" fill="none" style="stroke:#000000;stroke-width:1.5;"/><line style="stroke:#000000;stroke-width:1.5;" x1="279" x2="472.3252" y1="214.2559" y2="214.2559"/><text fill="#000000" font-family="sans-serif" font-size="14" font-weight="bold" lengthAdjust="spacing" textLength="180.3252" x="283" y="206.7422">&#1043;&#1080;&#1076;&#1088;&#1086;&#1076;&#1080;&#1085;&#1072;&#1084;&#1080;&#1095;&#1077;&#1089;&#1082;&#1086;&#1077; &#1103;&#1076;&#1088;&#1086;</text></g><!--cluster ??????????--><g class="cluster" data-entity=".........." data-source-line="15" data-uid="ent0008" id="cluster_.........."><path d="M8.5,333.6348 L92.3242,333.6348 A3.75,3.75 0 0 1 94.8242,336.1348 L101.8242,358.2559 L727.5,358.2559 A2.5,2.5 0 0 1 730,360.7559 L730,433.1348 A2.5,2.5 0 0 1 727.5,435.6348 L8.5,435.6348 A2.5,2.5 0 0 1 6,433.1348 L6,336.1348 A2.5,2.5 0 0 1 8.5,333.6348" fill="none" style="stroke:#000000;stroke-width:1.5;"/><line style="stroke:#000000;stroke-width:1.5;" x1="6" x2="101.8242" y1="358.2559" y2="358.2559"/><text fill="#000000" font-family="sans-serif" font-size="14" font-weight="bold" lengthAdjust="spacing" textLength="82.8242" x="10" y="350.7422">&#1056;&#1077;&#1079;&#1091;&#1083;&#1100;&#1090;&#1072;&#1090;&#1099;</text></g><!--entity DEM--><g class="entity" data-entity="DEM" data-source-line="6" data-uid="ent0003" id="entity_DEM"><rect fill="#F1F1F1" height="48.6211" rx="2.5" ry="2.5" style="stroke:#181818;stroke-width:0.5;" width="161.2422" x="500.5" y="91.6348"/><rect fill="#F1F1F1" height="10" style="stroke:#181818;stroke-width:0.5;" width="15" x="641.7422" y="96.6348"/><rect fill="#F1F1F1" height="2" style="stroke:#181818;stroke-width:0.5;" width="4" x="639.7422" y="98.6348"/><rect fill="#F1F1F1" height="2" style="stroke:#181818;stroke-width:0.5;" width="4" x="639.7422" y="102.6348"/><text fill="#000000" font-family="sans-serif" font-size="14" lengthAdjust="spacing" textLength="121.2422" x="515.5" y="126.7422">&#1062;&#1052;&#1056; / &#1041;&#1072;&#1090;&#1080;&#1084;&#1077;&#1090;&#1088;&#1080;&#1103;</text></g><!--entity BC--><g class="entity" data-entity="BC" data-source-line="7" data-uid="ent0004" id="entity_BC"><rect fill="#F1F1F1" height="67.2422" rx="2.5" ry="2.5" style="stroke:#181818;stroke-width:0.5;" width="168.2627" x="297" y="82.6348"/><rect fill="#F1F1F1" height="10" style="stroke:#181818;stroke-width:0.5;" width="15" x="445.2627" y="87.6348"/><rect fill="#F1F1F1" height="2" style="stroke:#181818;stroke-width:0.5;" width="4" x="443.2627" y="89.6348"/><rect fill="#F1F1F1" height="2" style="stroke:#181818;stroke-width:0.5;" width="4" x="443.2627" y="93.6348"/><text fill="#000000" font-family="sans-serif" font-size="14" lengthAdjust="spacing" textLength="128.2627" x="312" y="117.7422">&#1043;&#1088;&#1072;&#1085;&#1080;&#1095;&#1085;&#1099;&#1077; &#1091;&#1089;&#1083;&#1086;&#1074;&#1080;&#1103;</text><text fill="#000000" font-family="sans-serif" font-size="14" lengthAdjust="spacing" textLength="106.6611" x="312" y="136.3633">(&#1055;&#1088;&#1080;&#1090;&#1086;&#1082;/&#1059;&#1088;&#1086;&#1074;&#1085;&#1080;)</text></g><!--entity N--><g class="entity" data-entity="N" data-source-line="8" data-uid="ent0005" id="entity_N"><rect fill="#F1F1F1" height="67.2422" rx="2.5" ry="2.5" style="stroke:#181818;stroke-width:0.5;" width="208.2803" x="54" y="82.6348"/><rect fill="#F1F1F1" height="10" style="stroke:#181818;stroke-width:0.5;" width="15" x="242.2803" y="87.6348"/><rect fill="#F1F1F1" height="2" style="stroke:#181818;stroke-width:0.5;" width="4" x="240.2803" y="89.6348"/><rect fill="#F1F1F1" height="2" style="stroke:#181818;stroke-width:0.5;" width="4" x="240.2803" y="93.6348"/><text fill="#000000" font-family="sans-serif" font-size="14" lengthAdjust="spacing" textLength="101.1035" x="69" y="117.7422">&#1064;&#1077;&#1088;&#1086;&#1093;&#1086;&#1074;&#1072;&#1090;&#1086;&#1089;&#1090;&#1100;</text><text fill="#000000" font-family="sans-serif" font-size="14" lengthAdjust="spacing" textLength="168.2803" x="69" y="136.3633">(&#1050;&#1086;&#1101;&#1092;&#1092;&#1080;&#1094;&#1080;&#1077;&#1085;&#1090; &#1052;&#1072;&#1085;&#1085;&#1080;&#1085;&#1075;&#1072;)</text></g><!--entity Solver--><g class="entity" data-entity="Solver" data-source-line="12" data-uid="ent0007" id="entity_Solver"><rect fill="#F1F1F1" height="67.2422" rx="2.5" ry="2.5" style="stroke:#181818;stroke-width:0.5;" width="172.2686" x="295" y="226.6348"/><rect fill="#F1F1F1" height="10" style="stroke:#181818;stroke-width:0.5;" width="15" x="447.2686" y="231.6348"/><rect fill="#F1F1F1" height="2" style="stroke:#181818;stroke-width:0.5;" width="4" x="445.2686" y="233.6348"/><rect fill="#F1F1F1" height="2" style="stroke:#181818;stroke-width:0.5;" width="4" x="445.2686" y="237.6348"/><text fill="#000000" font-family="sans-serif" font-size="14" lengthAdjust="spacing" textLength="132.2686" x="310" y="261.7422">&#1056;&#1077;&#1096;&#1077;&#1085;&#1080;&#1077; &#1091;&#1088;&#1072;&#1074;&#1085;&#1077;&#1085;&#1080;&#1081;</text><text fill="#000000" font-family="sans-serif" font-size="14" lengthAdjust="spacing" textLength="123.5459" x="310" y="280.3633">(SWE / &#1057;&#1077;&#1085;-&#1042;&#1077;&#1085;&#1072;&#1085;)</text></g><!--entity Depth--><g class="entity" data-entity="Depth" data-source-line="16" data-uid="ent0009" id="entity_Depth"><rect fill="#F1F1F1" height="48.6211" rx="2.5" ry="2.5" style="stroke:#181818;stroke-width:0.5;" width="225.5752" x="488" y="370.6348"/><rect fill="#F1F1F1" height="10" style="stroke:#181818;stroke-width:0.5;" width="15" x="693.5752" y="375.6348"/><rect fill="#F1F1F1" height="2" style="stroke:#181818;stroke-width:0.5;" width="4" x="691.5752" y="377.6348"/><rect fill="#F1F1F1" height="2" style="stroke:#181818;stroke-width:0.5;" width="4" x="691.5752" y="381.6348"/><text fill="#000000" font-family="sans-serif" font-size="14" lengthAdjust="spacing" textLength="185.5752" x="503" y="405.7422">&#1050;&#1072;&#1088;&#1090;&#1072; &#1084;&#1072;&#1082;&#1089;&#1080;&#1084;&#1072;&#1083;&#1100;&#1085;&#1099;&#1093; &#1075;&#1083;&#1091;&#1073;&#1080;&#1085;</text></g><!--entity Velocity--><g class="entity" data-entity="Velocity" data-source-line="17" data-uid="ent0010" id="entity_Velocity"><rect fill="#F1F1F1" height="48.6211" rx="2.5" ry="2.5" style="stroke:#181818;stroke-width:0.5;" width="143.1953" x="309.5" y="370.6348"/><rect fill="#F1F1F1" height="10" style="stroke:#181818;stroke-width:0.5;" width="15" x="432.6953" y="375.6348"/><rect fill="#F1F1F1" height="2" style="stroke:#181818;stroke-width:0.5;" width="4" x="430.6953" y="377.6348"/><rect fill="#F1F1F1" height="2" style="stroke:#181818;stroke-width:0.5;" width="4" x="430.6953" y="381.6348"/><text fill="#000000" font-family="sans-serif" font-size="14" lengthAdjust="spacing" textLength="103.1953" x="324.5" y="405.7422">&#1055;&#1086;&#1083;&#1077; &#1089;&#1082;&#1086;&#1088;&#1086;&#1089;&#1090;&#1077;&#1081;</text></g><!--entity Duration--><g class="entity" data-entity="Duration" data-source-line="18" data-uid="ent0011" id="entity_Duration"><rect fill="#F1F1F1" height="48.6211" rx="2.5" ry="2.5" style="stroke:#181818;stroke-width:0.5;" width="251.791" x="22" y="370.6348"/><rect fill="#F1F1F1" height="10" style="stroke:#181818;stroke-width:0.5;" width="15" x="253.791" y="375.6348"/><rect fill="#F1F1F1" height="2" style="stroke:#181818;stroke-width:0.5;" width="4" x="251.791" y="377.6348"/><rect fill="#F1F1F1" height="2" style="stroke:#181818;stroke-width:0.5;" width="4" x="251.791" y="381.6348"/><text fill="#000000" font-family="sans-serif" font-size="14" lengthAdjust="spacing" textLength="211.791" x="37" y="405.7422">&#1055;&#1088;&#1086;&#1076;&#1086;&#1083;&#1078;&#1080;&#1090;&#1077;&#1083;&#1100;&#1085;&#1086;&#1089;&#1090;&#1100; &#1079;&#1072;&#1090;&#1086;&#1087;&#1083;&#1077;&#1085;&#1080;&#1103;</text></g><!--link DEM to Solver--><g class="link" data-entity-1="DEM" data-entity-2="Solver" data-source-line="21" data-uid="lnk12" id="link_DEM_Solver"><path d="M547.52,140.9048 C514.5,164.3548 468.6424,196.9113 431.8524,223.0313" fill="none" id="DEM-to-Solver" style="stroke:#181818;stroke-width:1;"/><polygon fill="#181818" points="426.96,226.5048,436.6142,224.5562,431.037,223.6102,431.9829,218.033,426.96,226.5048" style="stroke:#181818;stroke-width:1;"/></g><!--link BC to Solver--><g class="link" data-entity-1="BC" data-entity-2="Solver" data-source-line="22" data-uid="lnk13" id="link_BC_Solver"><path d="M381,149.7148 C381,172.6348 381,197.2148 381,220.2148" fill="none" id="BC-to-Solver" style="stroke:#181818;stroke-width:1;"/><polygon fill="#181818" points="381,226.2148,385,217.2148,381,221.2148,377,217.2148,381,226.2148" style="stroke:#181818;stroke-width:1;"/></g><!--link N to Solver--><g class="link" data-entity-1="N" data-entity-2="Solver" data-source-line="23" data-uid="lnk14" id="link_N_Solver"><path d="M209.16,149.7148 C245.29,172.7248 288.4692,200.2116 324.6292,223.2416" fill="none" id="N-to-Solver" style="stroke:#181818;stroke-width:1;"/><polygon fill="#181818" points="329.69,226.4648,324.2476,218.2562,325.4727,223.7788,319.9501,225.0039,329.69,226.4648" style="stroke:#181818;stroke-width:1;"/></g><!--link Solver to Depth--><g class="link" data-entity-1="Solver" data-entity-2="Depth" data-source-line="25" data-uid="lnk15" id="link_Solver_Depth"><path d="M434.82,293.6748 C474.13,317.4348 521.3856,346.0003 556.7456,367.3803" fill="none" id="Solver-to-Depth" style="stroke:#181818;stroke-width:1;"/><polygon fill="#181818" points="561.88,370.4848,556.248,362.4051,557.6013,367.8977,552.1087,369.251,561.88,370.4848" style="stroke:#181818;stroke-width:1;"/></g><!--link Solver to Velocity--><g class="link" data-entity-1="Solver" data-entity-2="Velocity" data-source-line="26" data-uid="lnk16" id="link_Solver_Velocity"><path d="M381,293.6748 C381,317.3548 381,342.9048 381,364.2748" fill="none" id="Solver-to-Velocity" style="stroke:#181818;stroke-width:1;"/><polygon fill="#181818" points="381,370.2748,385,361.2748,381,365.2748,377,361.2748,381,370.2748" style="stroke:#181818;stroke-width:1;"/></g><!--link Solver to Duration--><g class="link" data-entity-1="Solver" data-entity-2="Duration" data-source-line="27" data-uid="lnk17" id="link_Solver_Duration"><path d="M324,293.6748 C282.37,317.4348 232.101,346.1306 194.641,367.5106" fill="none" id="Solver-to-Duration" style="stroke:#181818;stroke-width:1;"/><polygon fill="#181818" points="189.43,370.4848,199.2293,369.4976,193.7725,368.0063,195.2637,362.5496,189.43,370.4848" style="stroke:#181818;stroke-width:1;"/></g><!--SRC=[XL9DIyD04BtdLomzsKCH_04UMZtgfQ07zH1Aq6ARb9eAHOH-M1LKHBs9e2A8nsgDJHjR_yBCF_BDRb8Z2FRItJTlPjvxMR_iLnn5zzoYAHzJm6rkAnfGIEy2qJjE4-hJ9uLy8cKQ0ntGL06ISa0HIa9z0ss2ywMY8VMv0-WBnS20bhMtMtPhTjskgf9NhNcku_f5ludjZMfbmR9gTcdNtdPKXgwvfqTF-8m2XOFCrPUCEh0KVXlqJ7VqeEOLNUbL8TG4t84EhDfIzfvQMbw9gJT0ZRAJU2HtuIFIaa7VTEUq_r1B7i_JKsm7BLazAr-8HxrWYGJLCtQb0O5r-5nctE9omKTyX4d7K0JZt57GgUNh70VKDnDNhSEquvj_yeRaIqD84fX5YEu7y4vDpiQS-1Nv1Xf1N75zMS9w52X7rxe2MTcCY2bwbNsd_biHPjAGknJnELp2AP_zX7yBe2MmF88-ZQ4or2Um9MBkoHEAqFugTiptS6h-Jjn_3qkHIDNkTA984Hj7chhcLBnIsMycx3WOwVdGNoamYvBm_tnlPccZRljbpnLlU10gbrjCtEOBwTjg-cAPVmqPsIbW9YvDIjPy0m00]--></g></svg>