<svg xmlns="http://www.w3.org/2000/svg" xmlns:xlink="http://www.w3.org/1999/xlink" contentStyleType="text/css" data-diagram-type="ACTIVITY" height="884px" preserveAspectRatio="none" style="width:615px;height:884px;background:#FFFFFF;" version="1.1" viewBox="0 0 615 884" width="615px" zoomAndPan="magnify"><title>&#1040;&#1083;&#1075;&#1086;&#1088;&#1080;&#1090;&#1084; Locate Regions (ArcGIS Pro)</title><defs/><g><g class="title" data-source-line="1"><text fill="#000000" font-family="sans-serif" font-size="14" font-weight="bold" lengthAdjust="spacing" textLength="263.792" x="174.3052" y="35.1074">&#1040;&#1083;&#1075;&#1086;&#1088;&#1080;&#1090;&#1084; Locate Regions (ArcGIS Pro)</text></g><ellipse cx="304.7568" cy="59.6211" fill="#222222" rx="10" ry="10" style="stroke:#222222;stroke-width:1;"/><rect fill="none" height="206.3867" style="stroke:#000000;stroke-width:1.5;" width="262.6445" x="173.4346" y="79.6211"/><path d="M361.9072,79.6211 L361.9072,91.2422 L351.9072,101.2422 L173.4346,101.2422" fill="none" style="stroke:#000000;stroke-width:1.5;"/><text fill="#000000" font-family="sans-serif" font-size="14" lengthAdjust="spacing" textLength="178.4727" x="176.4346" y="95.7285">&#1042;&#1074;&#1086;&#1076; &#1076;&#1072;&#1085;&#1085;&#1099;&#1093; &#1080; &#1087;&#1072;&#1088;&#1072;&#1084;&#1077;&#1090;&#1088;&#1086;&#1074;</text><rect fill="#F1F1F1" height="35.9609" rx="12.5" ry="12.5" style="stroke:#181818;stroke-width:0.5;" width="242.6445" x="183.4346" y="118.2422"/><text fill="#000000" font-family="sans-serif" font-size="12" lengthAdjust="spacing" textLength="222.6445" x="193.4346" y="141.1914">&#1042;&#1093;&#1086;&#1076;&#1085;&#1086;&#1081; &#1088;&#1072;&#1089;&#1090;&#1088; &#1087;&#1088;&#1080;&#1075;&#1086;&#1076;&#1085;&#1086;&#1089;&#1090;&#1080; (Risk Index)</text><rect fill="#F1F1F1" height="99.8047" rx="12.5" ry="12.5" style="stroke:#181818;stroke-width:0.5;" width="230.7734" x="189.3701" y="174.2031"/><text fill="#000000" font-family="sans-serif" font-size="12" lengthAdjust="spacing" textLength="124.957" x="199.3701" y="197.1523">&#1047;&#1072;&#1076;&#1072;&#1085;&#1080;&#1077; &#1086;&#1075;&#1088;&#1072;&#1085;&#1080;&#1095;&#1077;&#1085;&#1080;&#1081;:</text><ellipse cx="204.8701" cy="208.625" fill="#000000" rx="2.5" ry="2.5"/><text fill="#000000" font-family="sans-serif" font-size="12" lengthAdjust="spacing" textLength="138.9434" x="211.3701" y="213.1133">&#1050;&#1086;&#1083;&#1080;&#1095;&#1077;&#1089;&#1090;&#1074;&#1086; &#1088;&#1077;&#1075;&#1080;&#1086;&#1085;&#1086;&#1074; (N)</text><ellipse cx="204.8701" cy="224.5859" fill="#000000" rx="2.5" ry="2.5"/><text fill="#000000" font-family="sans-serif" font-size="12" lengthAdjust="spacing" textLength="198.7734" x="211.3701" y="229.0742">&#1054;&#1073;&#1097;&#1072;&#1103; &#1080; &#1080;&#1085;&#1076;&#1080;&#1074;&#1080;&#1076;&#1091;&#1072;&#1083;&#1100;&#1085;&#1072;&#1103; &#1087;&#1083;&#1086;&#1097;&#1072;&#1076;&#1100;</text><ellipse cx="204.8701" cy="240.5469" fill="#000000" rx="2.5" ry="2.5"/><text fill="#000000" font-family="sans-serif" font-size="12" lengthAdjust="spacing" textLength="152.2148" x="211.3701" y="245.0352">&#1060;&#1086;&#1088;&#1084;&#1072; (&#1082;&#1088;&#1091;&#1075;, &#1082;&#1074;&#1072;&#1076;&#1088;&#1072;&#1090; &#1080; &#1076;&#1088;.)</text><ellipse cx="204.8701" cy="256.5078" fill="#000000" rx="2.5" ry="2.5"/><text fill="#000000" font-family="sans-serif" font-size="12" lengthAdjust="spacing" textLength="167.3262" x="211.3701" y="260.9961">&#1056;&#1072;&#1089;&#1089;&#1090;&#1086;&#1103;&#1085;&#1080;&#1077; &#1084;&#1077;&#1078;&#1076;&#1091; &#1088;&#1077;&#1075;&#1080;&#1086;&#1085;&#1072;&#1084;&#1080;</text><rect fill="none" height="318.4648" style="stroke:#000000;stroke-width:1.5;" width="481.0879" x="69.0337" y="296.0078"/><path d="M322.8716,296.0078 L322.8716,307.6289 L312.8716,317.6289 L69.0337,317.6289" fill="none" style="stroke:#000000;stroke-width:1.5;"/><text fill="#000000" font-family="sans-serif" font-size="14" lengthAdjust="spacing" textLength="243.8379" x="72.0337" y="312.1152">&#1069;&#1090;&#1072;&#1087; 1: &#1043;&#1077;&#1085;&#1077;&#1088;&#1072;&#1094;&#1080;&#1103; &#1082;&#1072;&#1085;&#1076;&#1080;&#1076;&#1072;&#1090;&#1086;&#1074; (PRG)</text><rect fill="#F1F1F1" height="35.9609" rx="12.5" ry="12.5" style="stroke:#181818;stroke-width:0.5;" width="274.6719" x="167.4209" y="334.6289"/><text fill="#000000" font-family="sans-serif" font-size="12" lengthAdjust="spacing" textLength="254.6719" x="177.4209" y="357.5781">&#1042;&#1099;&#1073;&#1086;&#1088; &#1089;&#1090;&#1088;&#1072;&#1090;&#1077;&#1075;&#1080;&#1080; &#1088;&#1072;&#1079;&#1088;&#1077;&#1096;&#1077;&#1085;&#1080;&#1103; (Low/Med/High)</text><polygon fill="#F1F1F1" points="246.8188,390.5898,362.6948,390.5898,374.6948,402.5898,362.6948,414.5898,246.8188,414.5898,234.8188,402.5898,246.8188,390.5898" style="stroke:#181818;stroke-width:0.5;"/><text fill="#000000" font-family="sans-serif" font-size="11" lengthAdjust="spacing" textLength="115.876" x="246.8188" y="407.1445">&#1042;&#1099;&#1089;&#1086;&#1082;&#1086;&#1077; &#1088;&#1072;&#1079;&#1088;&#1077;&#1096;&#1077;&#1085;&#1080;&#1077;?</text><text fill="#000000" font-family="sans-serif" font-size="11" lengthAdjust="spacing" textLength="13.5674" x="221.2515" y="399.8291">&#1044;&#1072;</text><text fill="#000000" font-family="sans-serif" font-size="11" lengthAdjust="spacing" textLength="19.0996" x="374.6948" y="399.8291">&#1053;&#1077;&#1090;</text><rect fill="#F1F1F1" height="35.9609" rx="12.5" ry="12.5" style="stroke:#181818;stroke-width:0.5;" width="200.9023" x="89.0337" y="424.5898"/><text fill="#000000" font-family="sans-serif" font-size="12" lengthAdjust="spacing" textLength="180.9023" x="99.0337" y="447.5391">&#1056;&#1086;&#1089;&#1090; &#1088;&#1077;&#1075;&#1080;&#1086;&#1085;&#1086;&#1074; &#1080;&#1079; &#1082;&#1072;&#1078;&#1076;&#1086;&#1081; &#1103;&#1095;&#1077;&#1081;&#1082;&#1080;</text><rect fill="#F1F1F1" height="35.9609" rx="12.5" ry="12.5" style="stroke:#181818;stroke-width:0.5;" width="220.1855" x="309.936" y="424.5898"/><text fill="#000000" font-family="sans-serif" font-size="12" lengthAdjust="spacing" textLength="200.1855" x="319.936" y="447.5391">&#1056;&#1077;&#1089;&#1077;&#1084;&#1087;&#1083;&#1080;&#1085;&#1075; &#1080; &#1074;&#1099;&#1073;&#1086;&#1088; &#1086;&#1087;&#1086;&#1088;&#1085;&#1099;&#1093; &#1090;&#1086;&#1095;&#1077;&#1082;</text><polygon fill="#F1F1F1" points="304.7568,466.5508,316.7568,478.5508,304.7568,490.5508,292.7568,478.5508,304.7568,466.5508" style="stroke:#181818;stroke-width:0.5;"/><rect fill="#F1F1F1" height="35.9609" rx="12.5" ry="12.5" style="stroke:#181818;stroke-width:0.5;" width="274.332" x="167.5908" y="510.5508"/><text fill="#000000" font-family="sans-serif" font-size="12" lengthAdjust="spacing" textLength="254.332" x="177.5908" y="533.5">&#1048;&#1090;&#1077;&#1088;&#1072;&#1090;&#1080;&#1074;&#1085;&#1099;&#1081; &#1088;&#1086;&#1089;&#1090; &#1088;&#1077;&#1075;&#1080;&#1086;&#1085;&#1086;&#1074; (Region Growing)</text><rect fill="#F1F1F1" height="35.9609" rx="12.5" ry="12.5" style="stroke:#181818;stroke-width:0.5;" width="322.4609" x="143.5264" y="566.5117"/><text fill="#000000" font-family="sans-serif" font-size="12" lengthAdjust="spacing" textLength="302.4609" x="153.5264" y="589.4609">&#1056;&#1072;&#1089;&#1095;&#1077;&#1090; Utility (&#1089;&#1088;&#1077;&#1076;&#1085;&#1077;&#1077;/&#1089;&#1091;&#1084;&#1084;&#1072;) &#1080; Shape (&#1082;&#1086;&#1084;&#1087;&#1072;&#1082;&#1090;&#1085;&#1086;&#1089;&#1090;&#1100;)</text><rect fill="none" height="150.582" style="stroke:#000000;stroke-width:1.5;" width="593.4023" x="11" y="624.4727"/><path d="M282.6729,624.4727 L282.6729,636.0938 L272.6729,646.0938 L11,646.0938" fill="none" style="stroke:#000000;stroke-width:1.5;"/><text fill="#000000" font-family="sans-serif" font-size="14" lengthAdjust="spacing" textLength="261.6729" x="14" y="640.5801">&#1069;&#1090;&#1072;&#1087; 2: &#1055;&#1088;&#1086;&#1089;&#1090;&#1088;&#1072;&#1085;&#1089;&#1090;&#1074;&#1077;&#1085;&#1085;&#1072;&#1103; &#1086;&#1087;&#1090;&#1080;&#1084;&#1080;&#1079;&#1072;&#1094;&#1080;&#1103;</text><polygon fill="#F1F1F1" points="234.6399,663.0938,374.8738,663.0938,386.8738,675.0938,374.8738,687.0938,234.6399,687.0938,222.6399,675.0938,234.6399,663.0938" style="stroke:#181818;stroke-width:0.5;"/><text fill="#000000" font-family="sans-serif" font-size="11" lengthAdjust="spacing" textLength="140.2339" x="234.6399" y="679.6484">&#1050;&#1086;&#1083;&#1080;&#1095;&#1077;&#1089;&#1090;&#1074;&#1086; &#1088;&#1077;&#1075;&#1080;&#1086;&#1085;&#1086;&#1074; &lt;= 8?</text><text fill="#000000" font-family="sans-serif" font-size="11" lengthAdjust="spacing" textLength="13.5674" x="209.0725" y="672.333">&#1044;&#1072;</text><text fill="#000000" font-family="sans-serif" font-size="11" lengthAdjust="spacing" textLength="19.0996" x="386.8738" y="672.333">&#1053;&#1077;&#1090;</text><rect fill="#F1F1F1" height="35.9609" rx="12.5" ry="12.5" style="stroke:#181818;stroke-width:0.5;" width="268.8125" x="23" y="697.0938"/><text fill="#000000" font-family="sans-serif" font-size="12" lengthAdjust="spacing" textLength="248.8125" x="33" y="720.043">&#1050;&#1086;&#1084;&#1073;&#1080;&#1085;&#1072;&#1090;&#1086;&#1088;&#1085;&#1099;&#1081; &#1087;&#1086;&#1080;&#1089;&#1082; &#1086;&#1087;&#1090;&#1080;&#1084;&#1072;&#1083;&#1100;&#1085;&#1086;&#1075;&#1086; &#1085;&#1072;&#1073;&#1086;&#1088;&#1072;</text><rect fill="#F1F1F1" height="35.9609" rx="12.5" ry="12.5" style="stroke:#181818;stroke-width:0.5;" width="280.5898" x="311.8125" y="697.0938"/><text fill="#000000" font-family="sans-serif" font-size="12" lengthAdjust="spacing" textLength="260.5898" x="321.8125" y="720.043">&#1055;&#1086;&#1089;&#1083;&#1077;&#1076;&#1086;&#1074;&#1072;&#1090;&#1077;&#1083;&#1100;&#1085;&#1099;&#1081; (Sequential) &#1074;&#1099;&#1073;&#1086;&#1088; &#1083;&#1091;&#1095;&#1096;&#1080;&#1093;</text><polygon fill="#F1F1F1" points="304.7568,739.0547,316.7568,751.0547,304.7568,763.0547,292.7568,751.0547,304.7568,739.0547" style="stroke:#181818;stroke-width:0.5;"/><rect fill="#F1F1F1" height="35.9609" rx="12.5" ry="12.5" style="stroke:#181818;stroke-width:0.5;" width="206.8613" x="201.3262" y="795.0547"/><text fill="#000000" font-family="sans-serif" font-size="12" lengthAdjust="spacing" textLength="186.8613" x="211.3262" y="818.0039">&#1042;&#1099;&#1093;&#1086;&#1076;&#1085;&#1086;&#1081; &#1088;&#1072;&#1089;&#1090;&#1088; &#1074;&#1099;&#1076;&#1077;&#1083;&#1077;&#1085;&#1085;&#1099;&#1093; &#1079;&#1086;&#1085;</text><ellipse cx="304.7568" cy="862.0156" fill="none" rx="11" ry="11" style="stroke:#222222;stroke-width:1;"/><ellipse cx="304.7568" cy="862.0156" fill="#222222" rx="6" ry="6" style="stroke:#222222;stroke-width:1;"/><line style="stroke:#181818;stroke-width:1;" x1="304.7568" x2="304.7568" y1="154.2031" y2="174.2031"/><polygon fill="#181818" points="300.7568,164.2031,304.7568,174.2031,308.7568,164.2031,304.7568,168.2031" style="stroke:#181818;stroke-width:1;"/><line style="stroke:#181818;stroke-width:1;" x1="304.7568" x2="304.7568" y1="69.6211" y2="118.2422"/><polygon fill="#181818" points="300.7568,108.2422,304.7568,118.2422,308.7568,108.2422,304.7568,112.2422" style="stroke:#181818;stroke-width:1;"/><line style="stroke:#181818;stroke-width:1;" x1="234.8188" x2="189.4849" y1="402.5898" y2="402.5898"/><line style="stroke:#181818;stroke-width:1;" x1="189.4849" x2="189.4849" y1="402.5898" y2="424.5898"/><polygon fill="#181818" points="185.4849,414.5898,189.4849,424.5898,193.4849,414.5898,189.4849,418.5898" style="stroke:#181818;stroke-width:1;"/><line style="stroke:#181818;stroke-width:1;" x1="374.6948" x2="420.0288" y1="402.5898" y2="402.5898"/><line style="stroke:#181818;stroke-width:1;" x1="420.0288" x2="420.0288" y1="402.5898" y2="424.5898"/><polygon fill="#181818" points="416.0288,414.5898,420.0288,424.5898,424.0288,414.5898,420.0288,418.5898" style="stroke:#181818;stroke-width:1;"/><line style="stroke:#181818;stroke-width:1;" x1="189.4849" x2="189.4849" y1="460.5508" y2="478.5508"/><line style="stroke:#181818;stroke-width:1;" x1="189.4849" x2="292.7568" y1="478.5508" y2="478.5508"/><polygon fill="#181818" points="282.7568,474.5508,292.7568,478.5508,282.7568,482.5508,286.7568,478.5508" style="stroke:#181818;stroke-width:1;"/><line style="stroke:#181818;stroke-width:1;" x1="420.0288" x2="420.0288" y1="460.5508" y2="478.5508"/><line style="stroke:#181818;stroke-width:1;" x1="420.0288" x2="316.7568" y1="478.5508" y2="478.5508"/><polygon fill="#181818" points="326.7568,474.5508,316.7568,478.5508,326.7568,482.5508,322.7568,478.5508" style="stroke:#181818;stroke-width:1;"/><line style="stroke:#181818;stroke-width:1;" x1="304.7568" x2="304.7568" y1="370.5898" y2="390.5898"/><polygon fill="#181818" points="300.7568,380.5898,304.7568,390.5898,308.7568,380.5898,304.7568,384.5898" style="stroke:#181818;stroke-width:1;"/><line style="stroke:#181818;stroke-width:1;" x1="304.7568" x2="304.7568" y1="490.5508" y2="510.5508"/><polygon fill="#181818" points="300.7568,500.5508,304.7568,510.5508,308.7568,500.5508,304.7568,504.5508" style="stroke:#181818;stroke-width:1;"/><line style="stroke:#181818;stroke-width:1;" x1="304.7568" x2="304.7568" y1="546.5117" y2="566.5117"/><polygon fill="#181818" points="300.7568,556.5117,304.7568,566.5117,308.7568,556.5117,304.7568,560.5117" style="stroke:#181818;stroke-width:1;"/><line style="stroke:#181818;stroke-width:1;" x1="304.7568" x2="304.7568" y1="274.0078" y2="334.6289"/><polygon fill="#181818" points="300.7568,324.6289,304.7568,334.6289,308.7568,324.6289,304.7568,328.6289" style="stroke:#181818;stroke-width:1;"/><line style="stroke:#181818;stroke-width:1;" x1="222.6399" x2="157.4063" y1="675.0938" y2="675.0938"/><line style="stroke:#181818;stroke-width:1;" x1="157.4063" x2="157.4063" y1="675.0938" y2="697.0938"/><polygon fill="#181818" points="153.4063,687.0938,157.4063,697.0938,161.4063,687.0938,157.4063,691.0938" style="stroke:#181818;stroke-width:1;"/><line style="stroke:#181818;stroke-width:1;" x1="386.8738" x2="452.1074" y1="675.0938" y2="675.0938"/><line style="stroke:#181818;stroke-width:1;" x1="452.1074" x2="452.1074" y1="675.0938" y2="697.0938"/><polygon fill="#181818" points="448.1074,687.0938,452.1074,697.0938,456.1074,687.0938,452.1074,691.0938" style="stroke:#181818;stroke-width:1;"/><line style="stroke:#181818;stroke-width:1;" x1="157.4063" x2="157.4063" y1="733.0547" y2="751.0547"/><line style="stroke:#181818;stroke-width:1;" x1="157.4063" x2="292.7568" y1="751.0547" y2="751.0547"/><polygon fill="#181818" points="282.7568,747.0547,292.7568,751.0547,282.7568,755.0547,286.7568,751.0547" style="stroke:#181818;stroke-width:1;"/><line style="stroke:#181818;stroke-width:1;" x1="452.1074" x2="452.1074" y1="733.0547" y2="751.0547"/><line style="stroke:#181818;stroke-width:1;" x1="452.1074" x2="316.7568" y1="751.0547" y2="751.0547"/><polygon fill="#181818" points="326.7568,747.0547,316.7568,751.0547,326.7568,755.0547,322.7568,751.0547" style="stroke:#181818;stroke-width:1;"/><line style="stroke:#181818;stroke-width:1;" x1="304.7568" x2="304.7568" y1="602.4727" y2="663.0938"/><polygon fill="#181818" points="300.7568,653.0938,304.7568,663.0938,308.7568,653.0938,304.7568,657.0938" style="stroke:#181818;stroke-width:1;"/><line style="stroke:#181818;stroke-width:1;" x1="304.7568" x2="304.7568" y1="763.0547" y2="795.0547"/><polygon fill="#181818" points="300.7568,785.0547,304.7568,795.0547,308.7568,785.0547,304.7568,789.0547" style="stroke:#181818;stroke-width:1;"/><line style="stroke:#181818;stroke-width:1;" x1="304.7568" x2="304.7568" y1="831.0156" y2="851.0156"/><polygon fill="#181818" points="300.7568,841.0156,304.7568,851.0156,308.7568,841.0156,304.7568,845.0156" style="stroke:#181818;stroke-width:1;"/><!--SRC=[ZLHTQnDH47tFhnZwj2jYqITf5F4f5ggK17z0QBV9OaXgib95X3ObLcaWfGfAGTi7NuNDnzfjacx-mjn_v9cvkw518mOsxDuxSsRcd7Dlu0SrZ_Y49ppanEnpRDeyfOt6LZdmgEXL_4QzHSxZvbPXlKIRpOQRoxM2SZF8vNRnxmVOfnK-vG4dF28USSZNV6sEJOSu9fvn2D2GfnoPDjuI7gpGsnpXjyQdfYDPI4ZuYYJE74WKqgGJwSZkoZBGdABVUa7hzMtljPjFCRu0t1QDEI8a3BKUFiqHHxfyjQQnjuZFi3-nEmg9fgLiX4enjgIF0JdFt2p-E_VDHtJLqrbY18pmFy0pCeUeCZ5ThEd-3C2916Ehc-N_K4gd79B3OxEFdE5juZ4G94pcRIiotk_CYrue3T9UOdhPNE2FVqdLnNw5s3YVUxUena_aXZoZksl4dvI4I8kzn-WzgH-cauoa0plqPh7WtbJccFlIF5b5DCwMZLKelfG-p0TBCL2TZSRUwbDlU_M9NwccwlWxc1jGvW0rndYYl-HozCYbeEhL4VkPGqk3xUB2Al-dH7Yzj7E04skUdifzXSNO5lTgBG-GtyHuYw3G7g5JbKmq7Qe6W_d809ofSDR6AeI0ZrFW-hQ_a_BqLMX9wH5Z8CCwUKdZZZrHL6WszlnwPUvYgxdOiatF0x_c1s_8mOhaomc8E5h5vo6wXfjSQRXKBU_AWCAhp1B2OUtii9YkkzGLz-2Aywn5UrZImo1wf7O61JhILAZEh9FvGtNzhxFqu27TNohlcNRULmtKXvPo42Zy0_g0npSxoSvR8XS3gVjLC0x_hVYvZ8fU8_NA8FMoOcarf-IzVENL0xzSSnTyC367vWW-ZKtdflJWLK_8qjjB84PImZ9gByDB8IKljsTZzpS0]--></g></svg>