<svg xmlns="http://www.w3.org/2000/svg" xmlns:xlink="http://www.w3.org/1999/xlink" contentStyleType="text/css" data-diagram-type="ACTIVITY" height="639px" preserveAspectRatio="none" style="width:293px;height:639px;background:#FFFFFF;" version="1.1" viewBox="0 0 293 639" width="293px" zoomAndPan="magnify"><defs/><g><ellipse cx="146.9658" cy="20" fill="#222222" rx="10" ry="10" style="stroke:#222222;stroke-width:1;"/><rect fill="#F1F1F1" height="33.4063" rx="12.5" ry="12.5" style="stroke:#181818;stroke-width:0.5;" width="115.168" x="89.3818" y="50"/><text fill="#000000" font-family="Arial" font-size="12" lengthAdjust="spacing" textLength="95.168" x="99.3818" y="70.8633">&#1042;&#1093;&#1086;&#1076;&#1085;&#1099;&#1077; &#1076;&#1072;&#1085;&#1085;&#1099;&#1077;</text><rect fill="none" height="294.6719" style="stroke:#000000;stroke-width:1.5;" width="255.2588" x="19.3364" y="93.873"/><path d="M264.5952,93.873 L264.5952,102.5137 L254.5952,112.5137 L19.3364,112.5137" fill="none" style="stroke:#000000;stroke-width:1.5;"/><text fill="#000000" font-family="Arial" font-size="14" lengthAdjust="spacing" textLength="235.2588" x="22.3364" y="107.5469">&#1069;&#1090;&#1072;&#1087; I: &#1056;&#1077;&#1075;&#1080;&#1086;&#1085;&#1072;&#1083;&#1100;&#1085;&#1099;&#1081; &#1043;&#1048;&#1057;-&#1089;&#1082;&#1088;&#1080;&#1085;&#1080;&#1085;&#1075;</text><rect fill="#F1F1F1" height="33.4063" rx="12.5" ry="12.5" style="stroke:#181818;stroke-width:0.5;" width="183.8047" x="55.0635" y="129.5137"/><text fill="#000000" font-family="Arial" font-size="12" lengthAdjust="spacing" textLength="163.8047" x="65.0635" y="150.377">&#1056;&#1072;&#1089;&#1095;&#1077;&#1090; &#1092;&#1072;&#1082;&#1090;&#1086;&#1088;&#1086;&#1074; &#1079;&#1072;&#1090;&#1086;&#1087;&#1083;&#1077;&#1085;&#1080;&#1103;</text><rect fill="#F1F1F1" height="33.4063" rx="12.5" ry="12.5" style="stroke:#181818;stroke-width:0.5;" width="190.9121" x="51.5098" y="182.9199"/><text fill="#000000" font-family="Arial" font-size="12" lengthAdjust="spacing" textLength="170.9121" x="61.5098" y="203.7832">&#1042;&#1079;&#1074;&#1077;&#1096;&#1080;&#1074;&#1072;&#1085;&#1080;&#1077; &#1092;&#1072;&#1082;&#1090;&#1086;&#1088;&#1086;&#1074; (&#1052;&#1040;&#1048;)</text><rect fill="#F1F1F1" height="33.4063" rx="12.5" ry="12.5" style="stroke:#181818;stroke-width:0.5;" width="192.9805" x="50.4756" y="236.3262"/><text fill="#000000" font-family="Arial" font-size="12" lengthAdjust="spacing" textLength="172.9805" x="60.4756" y="257.1895">&#1048;&#1085;&#1090;&#1077;&#1075;&#1088;&#1072;&#1083;&#1100;&#1085;&#1072;&#1103; &#1082;&#1072;&#1088;&#1090;&#1072; &#1086;&#1087;&#1072;&#1089;&#1085;&#1086;&#1089;&#1090;&#1080;</text><rect fill="#F1F1F1" height="33.4063" rx="12.5" ry="12.5" style="stroke:#181818;stroke-width:0.5;" width="230.4277" x="31.752" y="289.7324"/><text fill="#000000" font-family="Arial" font-size="12" lengthAdjust="spacing" textLength="210.4277" x="41.752" y="310.5957">&#1053;&#1072;&#1083;&#1086;&#1078;&#1077;&#1085;&#1080;&#1077; &#1092;&#1072;&#1082;&#1090;&#1086;&#1088;&#1072; &#1087;&#1086;&#1076;&#1074;&#1077;&#1088;&#1078;&#1077;&#1085;&#1085;&#1086;&#1089;&#1090;&#1080;</text><rect fill="#F1F1F1" height="33.4063" rx="12.5" ry="12.5" style="stroke:#181818;stroke-width:0.5;" width="209.832" x="42.0498" y="343.1387"/><text fill="#000000" font-family="Arial" font-size="12" lengthAdjust="spacing" textLength="189.832" x="52.0498" y="364.002">&#1042;&#1099;&#1076;&#1077;&#1083;&#1077;&#1085;&#1080;&#1077; &#1090;&#1086;&#1087;-5 &#1082;&#1088;&#1080;&#1090;&#1080;&#1095;&#1077;&#1089;&#1082;&#1080;&#1093; &#1079;&#1086;&#1085;</text><rect fill="none" height="134.4531" style="stroke:#000000;stroke-width:1.5;" width="271.9316" x="11" y="398.5449"/><path d="M249.9014,398.5449 L249.9014,407.1855 L239.9014,417.1855 L11,417.1855" fill="none" style="stroke:#000000;stroke-width:1.5;"/><text fill="#000000" font-family="Arial" font-size="14" lengthAdjust="spacing" textLength="228.9014" x="14" y="412.2188">&#1069;&#1090;&#1072;&#1087; II: &#1044;&#1077;&#1090;&#1072;&#1083;&#1100;&#1085;&#1086;&#1077; &#1084;&#1086;&#1076;&#1077;&#1083;&#1080;&#1088;&#1086;&#1074;&#1072;&#1085;&#1080;&#1077;</text><rect fill="#F1F1F1" height="33.4063" rx="12.5" ry="12.5" style="stroke:#181818;stroke-width:0.5;" width="251.9316" x="21" y="434.1855"/><text fill="#000000" font-family="Arial" font-size="12" lengthAdjust="spacing" textLength="231.9316" x="31" y="455.0488">2D &#1075;&#1080;&#1076;&#1088;&#1086;&#1076;&#1080;&#1085;&#1072;&#1084;&#1080;&#1095;&#1077;&#1089;&#1082;&#1072;&#1103; &#1089;&#1080;&#1084;&#1091;&#1083;&#1103;&#1094;&#1080;&#1103; (SWE)</text><rect fill="#F1F1F1" height="33.4063" rx="12.5" ry="12.5" style="stroke:#181818;stroke-width:0.5;" width="236.1348" x="28.8984" y="487.5918"/><text fill="#000000" font-family="Arial" font-size="12" lengthAdjust="spacing" textLength="216.1348" x="38.8984" y="508.4551">&#1042;&#1099;&#1076;&#1077;&#1083;&#1077;&#1085;&#1080;&#1077; &#1083;&#1086;&#1082;&#1072;&#1083;&#1100;&#1085;&#1099;&#1093; "&#1075;&#1086;&#1088;&#1103;&#1095;&#1080;&#1093; &#1090;&#1086;&#1095;&#1077;&#1082;"</text><rect fill="#F1F1F1" height="33.4063" rx="12.5" ry="12.5" style="stroke:#181818;stroke-width:0.5;" width="226.2148" x="33.8584" y="552.998"/><text fill="#000000" font-family="Arial" font-size="12" lengthAdjust="spacing" textLength="206.2148" x="43.8584" y="573.8613">&#1056;&#1072;&#1079;&#1088;&#1072;&#1073;&#1086;&#1090;&#1082;&#1072; &#1072;&#1076;&#1088;&#1077;&#1089;&#1085;&#1099;&#1093; &#1088;&#1077;&#1082;&#1086;&#1084;&#1077;&#1085;&#1076;&#1072;&#1094;&#1080;&#1081;</text><ellipse cx="146.9658" cy="617.4043" fill="none" rx="11" ry="11" style="stroke:#222222;stroke-width:1;"/><ellipse cx="146.9658" cy="617.4043" fill="#222222" rx="6" ry="6" style="stroke:#222222;stroke-width:1;"/><line style="stroke:#181818;stroke-width:1;" x1="146.9658" x2="146.9658" y1="30" y2="50"/><polygon fill="#181818" points="142.9658,40,146.9658,50,150.9658,40,146.9658,44" style="stroke:#181818;stroke-width:1;"/><line style="stroke:#181818;stroke-width:1;" x1="146.9658" x2="146.9658" y1="162.9199" y2="182.9199"/><polygon fill="#181818" points="142.9658,172.9199,146.9658,182.9199,150.9658,172.9199,146.9658,176.9199" style="stroke:#181818;stroke-width:1;"/><line style="stroke:#181818;stroke-width:1;" x1="146.9658" x2="146.9658" y1="216.3262" y2="236.3262"/><polygon fill="#181818" points="142.9658,226.3262,146.9658,236.3262,150.9658,226.3262,146.9658,230.3262" style="stroke:#181818;stroke-width:1;"/><line style="stroke:#181818;stroke-width:1;" x1="146.9658" x2="146.9658" y1="269.7324" y2="289.7324"/><polygon fill="#181818" points="142.9658,279.7324,146.9658,289.7324,150.9658,279.7324,146.9658,283.7324" style="stroke:#181818;stroke-width:1;"/><line style="stroke:#181818;stroke-width:1;" x1="146.9658" x2="146.9658" y1="323.1387" y2="343.1387"/><polygon fill="#181818" points="142.9658,333.1387,146.9658,343.1387,150.9658,333.1387,146.9658,337.1387" style="stroke:#181818;stroke-width:1;"/><line style="stroke:#181818;stroke-width:1;" x1="146.9658" x2="146.9658" y1="83.4063" y2="129.5137"/><polygon fill="#181818" points="142.9658,119.5137,146.9658,129.5137,150.9658,119.5137,146.9658,123.5137" style="stroke:#181818;stroke-width:1;"/><line style="stroke:#181818;stroke-width:1;" x1="146.9658" x2="146.9658" y1="467.5918" y2="487.5918"/><polygon fill="#181818" points="142.9658,477.5918,146.9658,487.5918,150.9658,477.5918,146.9658,481.5918" style="stroke:#181818;stroke-width:1;"/><line style="stroke:#181818;stroke-width:1;" x1="146.9658" x2="146.9658" y1="376.5449" y2="434.1855"/><polygon fill="#181818" points="142.9658,424.1855,146.9658,434.1855,150.9658,424.1855,146.9658,428.1855" style="stroke:#181818;stroke-width:1;"/><line style="stroke:#181818;stroke-width:1;" x1="146.9658" x2="146.9658" y1="520.998" y2="552.998"/><polygon fill="#181818" points="142.9658,542.998,146.9658,552.998,150.9658,542.998,146.9658,546.998" style="stroke:#181818;stroke-width:1;"/><line style="stroke:#181818;stroke-width:1;" x1="146.9658" x2="146.9658" y1="586.4043" y2="606.4043"/><polygon fill="#181818" points="142.9658,596.4043,146.9658,606.4043,150.9658,596.4043,146.9658,600.4043" style="stroke:#181818;stroke-width:1;"/><!--SRC=[TLBBIiD05DtdAovPrOKRmKsx4bHmuyQ5wr2Z5jkafDE5Y53Z4nGgrKKN2le1GcrJJTCs_OKxV-Ivapx4Ho1a9cVEFUUUExMZabTr0gT25T_pYuU1Nt591NNNgisHgbCySWxS7NLSTYbmY-eRjkVkE_MoslGzjUs0kXQKdB9brPGJA2lFBNt9AKSyrhVS9omwFCus1Gi5L4cLV8ziVjCXe0bjvObVkCyzZi4RuzzGtnd2WFY1s_owhCyuqGtWO_FsR3gn24yUn8u-qzVSro7f2t0JL4rnDkKkyITGR7d2GmY0h9k5AR45i0lQ3IfsZSKORd-LoF4JttDxQKPhmrWePe5FZKAZIPpWqv2EoEZ15P0KtaAEP-HdeG3-oCpyr0DrOf8JNutfgLz5MWWc0ZHS534jBgzI5f8SDeaWDAmk9GRaMh1E_uvVyd-K0ESDfJAtaR4YEd6MnIoaUVWhwsI65XayCgFfWBTGbsImY7capr6xgQza19JRsTrO-hyVar6ok0TemOOG8aA5QzEIIGmgdDZIbxa7_6bcyWua53fX8zR4IbP5Da1IU1Gjt4mnn8C2xgvV_G80]--></g></svg>