<svg xmlns="http://www.w3.org/2000/svg" xmlns:xlink="http://www.w3.org/1999/xlink" contentStyleType="text/css" data-diagram-type="ACTIVITY" height="1004px" preserveAspectRatio="none" style="width:1019px;height:1004px;background:#FFFFFF;" version="1.1" viewBox="0 0 1019 1004" width="1019px" zoomAndPan="magnify"><title>&#1051;&#1086;&#1075;&#1080;&#1082;&#1072; &#1084;&#1086;&#1076;&#1077;&#1083;&#1080;&#1088;&#1086;&#1074;&#1072;&#1085;&#1080;&#1103; &#1087;&#1086;&#1074;&#1077;&#1088;&#1093;&#1085;&#1086;&#1089;&#1090;&#1085;&#1086;&#1075;&#1086; &#1089;&#1090;&#1086;&#1082;&#1072; (SCS-CN)</title><defs/><g><rect fill="#F9F9F9" height="28.7939" rx="2.5" ry="2.5" style="stroke:#DDDDDD;stroke-width:3;" width="1008.4316" x="5" y="5"/><text fill="#000000" font-family="monospace" font-size="10" lengthAdjust="spacing" textLength="354.0576" x="10" y="20">Please&#160;use&#160;'!option&#160;handwritten&#160;true'&#160;to&#160;enable&#160;handwritten</text><g class="title" data-source-line="7"><text fill="#000000" font-family="Arial" font-size="14" font-weight="bold" lengthAdjust="spacing" textLength="388.7324" x="306.3496" y="71.4678">&#1051;&#1086;&#1075;&#1080;&#1082;&#1072; &#1084;&#1086;&#1076;&#1077;&#1083;&#1080;&#1088;&#1086;&#1074;&#1072;&#1085;&#1080;&#1103; &#1087;&#1086;&#1074;&#1077;&#1088;&#1093;&#1085;&#1086;&#1089;&#1090;&#1085;&#1086;&#1075;&#1086; &#1089;&#1090;&#1086;&#1082;&#1072; (SCS-CN)</text></g><ellipse cx="445.1455" cy="95.4346" fill="#222222" rx="10" ry="10" style="stroke:#222222;stroke-width:1;"/><rect fill="none" height="239.0313" style="stroke:#000000;stroke-width:1.5;" width="354.0391" x="268.126" y="115.4346"/><path d="M443.7998,115.4346 L443.7998,121.8408 L433.7998,131.8408 L268.126,131.8408" fill="none" style="stroke:#000000;stroke-width:1.5;"/><text fill="#000000" font-family="Arial" font-size="12" lengthAdjust="spacing" textLength="165.6738" x="271.126" y="127.2979">&#1055;&#1086;&#1076;&#1075;&#1086;&#1090;&#1086;&#1074;&#1082;&#1072; &#1080;&#1089;&#1093;&#1086;&#1076;&#1085;&#1099;&#1093; &#1076;&#1072;&#1085;&#1085;&#1099;&#1093;</text><rect fill="#F1F1F1" height="33.4063" rx="12.5" ry="12.5" style="stroke:#181818;stroke-width:0.5;" width="140.1934" x="375.0488" y="148.8408"/><text fill="#000000" font-family="Arial" font-size="12" lengthAdjust="spacing" textLength="120.1934" x="385.0488" y="169.7041">&#1057;&#1083;&#1086;&#1081; &#1088;&#1077;&#1083;&#1100;&#1077;&#1092;&#1072; (DEM)</text><rect fill="#F1F1F1" height="33.4063" rx="12.5" ry="12.5" style="stroke:#181818;stroke-width:0.5;" width="248.8906" x="320.7002" y="202.2471"/><text fill="#000000" font-family="Arial" font-size="12" lengthAdjust="spacing" textLength="228.8906" x="330.7002" y="223.1104">&#1057;&#1083;&#1086;&#1081; &#1087;&#1086;&#1095;&#1074; (Hydrologic Soil Groups - HSG)</text><rect fill="#F1F1F1" height="33.4063" rx="12.5" ry="12.5" style="stroke:#181818;stroke-width:0.5;" width="334.0391" x="278.126" y="255.6533"/><text fill="#000000" font-family="Arial" font-size="12" lengthAdjust="spacing" textLength="314.0391" x="288.126" y="276.5166">&#1057;&#1083;&#1086;&#1081; &#1079;&#1077;&#1084;&#1083;&#1077;&#1087;&#1086;&#1083;&#1100;&#1079;&#1086;&#1074;&#1072;&#1085;&#1080;&#1103; (Land Use / Land Cover - LULC)</text><rect fill="#F1F1F1" height="33.4063" rx="12.5" ry="12.5" style="stroke:#181818;stroke-width:0.5;" width="139.5254" x="375.3828" y="309.0596"/><text fill="#000000" font-family="Arial" font-size="12" lengthAdjust="spacing" textLength="119.5254" x="385.3828" y="329.9229">&#1057;&#1083;&#1086;&#1081; &#1086;&#1089;&#1072;&#1076;&#1082;&#1086;&#1074; (P, &#1084;&#1084;)</text><rect fill="none" height="239.0313" style="stroke:#000000;stroke-width:1.5;" width="734.4668" x="258.9648" y="364.4658"/><path d="M455.5156,364.4658 L455.5156,370.8721 L445.5156,380.8721 L258.9648,380.8721" fill="none" style="stroke:#000000;stroke-width:1.5;"/><text fill="#000000" font-family="Arial" font-size="12" lengthAdjust="spacing" textLength="186.5508" x="261.9648" y="376.3291">&#1054;&#1087;&#1088;&#1077;&#1076;&#1077;&#1083;&#1077;&#1085;&#1080;&#1077; Curve Number (CN)</text><rect fill="#F1F1F1" height="33.4063" rx="12.5" ry="12.5" style="stroke:#181818;stroke-width:0.5;" width="180.125" x="355.083" y="397.8721"/><text fill="#000000" font-family="Arial" font-size="12" lengthAdjust="spacing" textLength="160.125" x="365.083" y="418.7354">&#1057;&#1086;&#1087;&#1086;&#1089;&#1090;&#1072;&#1074;&#1083;&#1077;&#1085;&#1080;&#1077; HSG &#1080; LULC</text><rect fill="#F1F1F1" height="33.4063" rx="12.5" ry="12.5" style="stroke:#181818;stroke-width:0.5;" width="299.7734" x="295.2588" y="451.2783"/><text fill="#000000" font-family="Arial" font-size="12" lengthAdjust="spacing" textLength="279.7734" x="305.2588" y="472.1416">&#1059;&#1095;&#1077;&#1090; &#1075;&#1080;&#1076;&#1088;&#1086;&#1083;&#1086;&#1075;&#1080;&#1095;&#1077;&#1089;&#1082;&#1086;&#1075;&#1086; &#1089;&#1086;&#1089;&#1090;&#1086;&#1103;&#1085;&#1080;&#1103; &#1088;&#1072;&#1089;&#1090;&#1080;&#1090;&#1077;&#1083;&#1100;&#1085;&#1086;&#1089;&#1090;&#1080;</text><rect fill="#F1F1F1" height="33.4063" rx="12.5" ry="12.5" style="stroke:#181818;stroke-width:0.5;" width="257.3926" x="316.4492" y="504.6846"/><text fill="#000000" font-family="Arial" font-size="12" lengthAdjust="spacing" textLength="237.3926" x="326.4492" y="525.5479">&#1042;&#1099;&#1073;&#1086;&#1088; &#1073;&#1072;&#1079;&#1086;&#1074;&#1086;&#1075;&#1086; &#1079;&#1085;&#1072;&#1095;&#1077;&#1085;&#1080;&#1103; CN (&#1076;&#1083;&#1103; AMC II)</text><path d="M641.3262,563.0908 L641.3262,570.7939 L621.3262,574.7939 L641.3262,578.7939 L641.3262,586.4971 A0,0 0 0 0 641.3262,586.4971 L983.4316,586.4971 A0,0 0 0 0 983.4316,586.4971 L983.4316,573.0908 L973.4316,563.0908 L641.3262,563.0908 A0,0 0 0 0 641.3262,563.0908" fill="#FAFAFA" style="stroke:#181818;stroke-width:0.5;"/><path d="M973.4316,563.0908 L973.4316,573.0908 L983.4316,573.0908 L973.4316,563.0908" fill="#FAFAFA" style="stroke:#181818;stroke-width:0.5;"/><text fill="#000000" font-family="Arial" font-size="12" lengthAdjust="spacing" textLength="321.1055" x="647.3262" y="578.9541">CN &#1079;&#1072;&#1074;&#1080;&#1089;&#1080;&#1090; &#1086;&#1090; &#1089;&#1087;&#1086;&#1089;&#1086;&#1073;&#1085;&#1086;&#1089;&#1090;&#1080; &#1087;&#1086;&#1074;&#1077;&#1088;&#1093;&#1085;&#1086;&#1089;&#1090;&#1080; &#1082; &#1080;&#1085;&#1092;&#1080;&#1083;&#1100;&#1090;&#1088;&#1072;&#1094;&#1080;&#1080;</text><rect fill="#F1F1F1" height="33.4063" rx="12.5" ry="12.5" style="stroke:#181818;stroke-width:0.5;" width="352.3613" x="268.9648" y="558.0908"/><text fill="#000000" font-family="Arial" font-size="12" lengthAdjust="spacing" textLength="332.3613" x="278.9648" y="578.9541">&#1050;&#1086;&#1088;&#1088;&#1077;&#1082;&#1090;&#1080;&#1088;&#1086;&#1074;&#1082;&#1072; CN &#1087;&#1086; &#1074;&#1083;&#1072;&#1078;&#1085;&#1086;&#1089;&#1090;&#1080; &#1087;&#1086;&#1095;&#1074;&#1099; (AMC I &#1080;&#1083;&#1080; AMC III)</text><rect fill="none" height="132.2188" style="stroke:#000000;stroke-width:1.5;" width="579.5098" x="11" y="613.4971"/><path d="M226.4941,613.4971 L226.4941,619.9033 L216.4941,629.9033 L11,629.9033" fill="none" style="stroke:#000000;stroke-width:1.5;"/><text fill="#000000" font-family="Arial" font-size="12" lengthAdjust="spacing" textLength="205.4941" x="14" y="625.3604">&#1056;&#1072;&#1089;&#1095;&#1077;&#1090; &#1075;&#1080;&#1076;&#1088;&#1086;&#1083;&#1086;&#1075;&#1080;&#1095;&#1077;&#1089;&#1082;&#1080;&#1093; &#1087;&#1072;&#1088;&#1072;&#1084;&#1077;&#1090;&#1088;&#1086;&#1074;</text><path d="M134.0859,651.9033 L134.0859,675.3096 A0,0 0 0 0 134.0859,675.3096 L290.8242,675.3096 A0,0 0 0 0 290.8242,675.3096 L290.8242,669.9033 L310.8242,663.6064 L290.8242,661.9033 L290.8242,661.9033 L280.8242,651.9033 L134.0859,651.9033 A0,0 0 0 0 134.0859,651.9033" fill="#FAFAFA" style="stroke:#181818;stroke-width:0.5;"/><path d="M280.8242,651.9033 L280.8242,661.9033 L290.8242,661.9033 L280.8242,651.9033" fill="#FAFAFA" style="stroke:#181818;stroke-width:0.5;"/><text fill="#000000" font-family="Arial" font-size="12" lengthAdjust="spacing" textLength="135.7383" x="140.0859" y="667.7666">S = 25.4 * (1000/CN - 10)</text><rect fill="#F1F1F1" height="33.4063" rx="12.5" ry="12.5" style="stroke:#181818;stroke-width:0.5;" width="268.6426" x="310.8242" y="646.9033"/><text fill="#000000" font-family="Arial" font-size="12" lengthAdjust="spacing" textLength="248.6426" x="320.8242" y="667.7666">&#1056;&#1072;&#1089;&#1095;&#1077;&#1090; &#1084;&#1072;&#1082;&#1089;. &#1087;&#1086;&#1090;&#1077;&#1085;&#1094;&#1080;&#1072;&#1083;&#1100;&#1085;&#1086;&#1075;&#1086; &#1091;&#1076;&#1077;&#1088;&#1078;&#1072;&#1085;&#1080;&#1103; (S)</text><path d="M21,705.3096 L21,728.7158 A0,0 0 0 0 21,728.7158 L289.7813,728.7158 A0,0 0 0 0 289.7813,728.7158 L289.7813,723.3096 L309.7813,717.0127 L289.7813,715.3096 L289.7813,715.3096 L279.7813,705.3096 L21,705.3096 A0,0 0 0 0 21,705.3096" fill="#FAFAFA" style="stroke:#181818;stroke-width:0.5;"/><path d="M279.7813,705.3096 L279.7813,715.3096 L289.7813,715.3096 L279.7813,705.3096" fill="#FAFAFA" style="stroke:#181818;stroke-width:0.5;"/><text fill="#000000" font-family="Arial" font-size="12" lengthAdjust="spacing" textLength="247.7813" x="27" y="721.1729">Ia = 0.2S (&#1089;&#1090;&#1072;&#1085;&#1076;&#1072;&#1088;&#1090;) &#1080;&#1083;&#1080; Ia = 0.05S (&#1090;&#1088;&#1086;&#1087;&#1080;&#1082;&#1080;)</text><rect fill="#F1F1F1" height="33.4063" rx="12.5" ry="12.5" style="stroke:#181818;stroke-width:0.5;" width="270.7285" x="309.7813" y="700.3096"/><text fill="#000000" font-family="Arial" font-size="12" lengthAdjust="spacing" textLength="250.7285" x="319.7813" y="721.1729">&#1042;&#1099;&#1073;&#1086;&#1088; &#1082;&#1086;&#1101;&#1092;&#1092;&#1080;&#1094;&#1080;&#1077;&#1085;&#1090;&#1072; &#1085;&#1072;&#1095;&#1072;&#1083;&#1100;&#1085;&#1099;&#1093; &#1087;&#1086;&#1090;&#1077;&#1088;&#1100; (Ia)</text><rect fill="none" height="142.8125" style="stroke:#000000;stroke-width:1.5;" width="453.7441" x="190.0122" y="755.7158"/><path d="M334.8599,755.7158 L334.8599,762.1221 L324.8599,772.1221 L190.0122,772.1221" fill="none" style="stroke:#000000;stroke-width:1.5;"/><text fill="#000000" font-family="Arial" font-size="12" lengthAdjust="spacing" textLength="134.8477" x="193.0122" y="767.5791">&#1043;&#1077;&#1085;&#1077;&#1088;&#1072;&#1094;&#1080;&#1103; &#1088;&#1072;&#1089;&#1090;&#1088;&#1072; &#1089;&#1090;&#1086;&#1082;&#1072;</text><polygon fill="#F1F1F1" points="425.9648,789.1221,464.3262,789.1221,476.3262,801.1221,464.3262,813.1221,425.9648,813.1221,413.9648,801.1221,425.9648,789.1221" style="stroke:#181818;stroke-width:0.5;"/><text fill="#000000" font-family="Arial" font-size="12" lengthAdjust="spacing" textLength="38.3613" x="425.9648" y="805.2822">P &gt; Ia?</text><text fill="#000000" font-family="Arial" font-size="12" lengthAdjust="spacing" textLength="13.6758" x="400.2891" y="798.5791">&#1076;&#1072;</text><text fill="#000000" font-family="Arial" font-size="12" lengthAdjust="spacing" textLength="18.7969" x="476.3262" y="798.5791">&#1085;&#1077;&#1090;</text><path d="M392.7407,828.1221 L392.7407,835.8252 L372.7407,839.8252 L392.7407,843.8252 L392.7407,851.5283 A0,0 0 0 0 392.7407,851.5283 L554.0728,851.5283 A0,0 0 0 0 554.0728,851.5283 L554.0728,838.1221 L544.0728,828.1221 L392.7407,828.1221 A0,0 0 0 0 392.7407,828.1221" fill="#FAFAFA" style="stroke:#181818;stroke-width:0.5;"/><path d="M544.0728,828.1221 L544.0728,838.1221 L554.0728,838.1221 L544.0728,828.1221" fill="#FAFAFA" style="stroke:#181818;stroke-width:0.5;"/><text fill="#000000" font-family="Arial" font-size="12" lengthAdjust="spacing" textLength="140.332" x="398.7407" y="843.9854">Q = (P - Ia)^2 / (P - Ia + S)</text><rect fill="#F1F1F1" height="33.4063" rx="12.5" ry="12.5" style="stroke:#181818;stroke-width:0.5;" width="162.7285" x="210.0122" y="823.1221"/><text fill="#000000" font-family="Arial" font-size="12" lengthAdjust="spacing" textLength="142.7285" x="220.0122" y="843.9854">&#1056;&#1072;&#1089;&#1095;&#1077;&#1090; &#1075;&#1083;&#1091;&#1073;&#1080;&#1085;&#1099; &#1089;&#1090;&#1086;&#1082;&#1072; (Q)</text><rect fill="#F1F1F1" height="33.4063" rx="12.5" ry="12.5" style="stroke:#181818;stroke-width:0.5;" width="49.6836" x="574.0728" y="823.1221"/><text fill="#000000" font-family="Arial" font-size="12" lengthAdjust="spacing" textLength="29.6836" x="584.0728" y="843.9854">Q = 0</text><polygon fill="#F1F1F1" points="445.1455,862.5283,457.1455,874.5283,445.1455,886.5283,433.1455,874.5283,445.1455,862.5283" style="stroke:#181818;stroke-width:0.5;"/><rect fill="#F1F1F1" height="33.4063" rx="12.5" ry="12.5" style="stroke:#181818;stroke-width:0.5;" width="282.7461" x="303.7725" y="918.5283"/><text fill="#000000" font-family="Arial" font-size="12" lengthAdjust="spacing" textLength="262.7461" x="313.7725" y="939.3916">&#1048;&#1090;&#1086;&#1075;&#1086;&#1074;&#1099;&#1081; &#1088;&#1072;&#1089;&#1090;&#1088; &#1075;&#1083;&#1091;&#1073;&#1080;&#1085;&#1099; &#1087;&#1086;&#1074;&#1077;&#1088;&#1093;&#1085;&#1086;&#1089;&#1090;&#1085;&#1086;&#1075;&#1086; &#1089;&#1090;&#1086;&#1082;&#1072;</text><ellipse cx="445.1455" cy="982.9346" fill="none" rx="11" ry="11" style="stroke:#222222;stroke-width:1;"/><ellipse cx="445.1455" cy="982.9346" fill="#222222" rx="6" ry="6" style="stroke:#222222;stroke-width:1;"/><line style="stroke:#181818;stroke-width:1;" x1="445.1455" x2="445.1455" y1="182.2471" y2="202.2471"/><polygon fill="#181818" points="441.1455,192.2471,445.1455,202.2471,449.1455,192.2471,445.1455,196.2471" style="stroke:#181818;stroke-width:1;"/><line style="stroke:#181818;stroke-width:1;" x1="445.1455" x2="445.1455" y1="235.6533" y2="255.6533"/><polygon fill="#181818" points="441.1455,245.6533,445.1455,255.6533,449.1455,245.6533,445.1455,249.6533" style="stroke:#181818;stroke-width:1;"/><line style="stroke:#181818;stroke-width:1;" x1="445.1455" x2="445.1455" y1="289.0596" y2="309.0596"/><polygon fill="#181818" points="441.1455,299.0596,445.1455,309.0596,449.1455,299.0596,445.1455,303.0596" style="stroke:#181818;stroke-width:1;"/><line style="stroke:#181818;stroke-width:1;" x1="445.1455" x2="445.1455" y1="105.4346" y2="148.8408"/><polygon fill="#181818" points="441.1455,138.8408,445.1455,148.8408,449.1455,138.8408,445.1455,142.8408" style="stroke:#181818;stroke-width:1;"/><line style="stroke:#181818;stroke-width:1;" x1="445.1455" x2="445.1455" y1="431.2783" y2="451.2783"/><polygon fill="#181818" points="441.1455,441.2783,445.1455,451.2783,449.1455,441.2783,445.1455,445.2783" style="stroke:#181818;stroke-width:1;"/><line style="stroke:#181818;stroke-width:1;" x1="445.1455" x2="445.1455" y1="484.6846" y2="504.6846"/><polygon fill="#181818" points="441.1455,494.6846,445.1455,504.6846,449.1455,494.6846,445.1455,498.6846" style="stroke:#181818;stroke-width:1;"/><line style="stroke:#181818;stroke-width:1;" x1="445.1455" x2="445.1455" y1="538.0908" y2="558.0908"/><polygon fill="#181818" points="441.1455,548.0908,445.1455,558.0908,449.1455,548.0908,445.1455,552.0908" style="stroke:#181818;stroke-width:1;"/><line style="stroke:#181818;stroke-width:1;" x1="445.1455" x2="445.1455" y1="342.4658" y2="397.8721"/><polygon fill="#181818" points="441.1455,387.8721,445.1455,397.8721,449.1455,387.8721,445.1455,391.8721" style="stroke:#181818;stroke-width:1;"/><line style="stroke:#181818;stroke-width:1;" x1="445.1455" x2="445.1455" y1="680.3096" y2="700.3096"/><polygon fill="#181818" points="441.1455,690.3096,445.1455,700.3096,449.1455,690.3096,445.1455,694.3096" style="stroke:#181818;stroke-width:1;"/><line style="stroke:#181818;stroke-width:1;" x1="445.1455" x2="445.1455" y1="591.4971" y2="646.9033"/><polygon fill="#181818" points="441.1455,636.9033,445.1455,646.9033,449.1455,636.9033,445.1455,640.9033" style="stroke:#181818;stroke-width:1;"/><line style="stroke:#181818;stroke-width:1;" x1="413.9648" x2="291.3765" y1="801.1221" y2="801.1221"/><line style="stroke:#181818;stroke-width:1;" x1="291.3765" x2="291.3765" y1="801.1221" y2="823.1221"/><polygon fill="#181818" points="287.3765,813.1221,291.3765,823.1221,295.3765,813.1221,291.3765,817.1221" style="stroke:#181818;stroke-width:1;"/><line style="stroke:#181818;stroke-width:1;" x1="476.3262" x2="598.9146" y1="801.1221" y2="801.1221"/><line style="stroke:#181818;stroke-width:1;" x1="598.9146" x2="598.9146" y1="801.1221" y2="823.1221"/><polygon fill="#181818" points="594.9146,813.1221,598.9146,823.1221,602.9146,813.1221,598.9146,817.1221" style="stroke:#181818;stroke-width:1;"/><line style="stroke:#181818;stroke-width:1;" x1="291.3765" x2="291.3765" y1="856.5283" y2="874.5283"/><line style="stroke:#181818;stroke-width:1;" x1="291.3765" x2="433.1455" y1="874.5283" y2="874.5283"/><polygon fill="#181818" points="423.1455,870.5283,433.1455,874.5283,423.1455,878.5283,427.1455,874.5283" style="stroke:#181818;stroke-width:1;"/><line style="stroke:#181818;stroke-width:1;" x1="598.9146" x2="598.9146" y1="856.5283" y2="874.5283"/><line style="stroke:#181818;stroke-width:1;" x1="598.9146" x2="457.1455" y1="874.5283" y2="874.5283"/><polygon fill="#181818" points="467.1455,870.5283,457.1455,874.5283,467.1455,878.5283,463.1455,874.5283" style="stroke:#181818;stroke-width:1;"/><line style="stroke:#181818;stroke-width:1;" x1="445.1455" x2="445.1455" y1="733.7158" y2="789.1221"/><polygon fill="#181818" points="441.1455,779.1221,445.1455,789.1221,449.1455,779.1221,445.1455,783.1221" style="stroke:#181818;stroke-width:1;"/><line style="stroke:#181818;stroke-width:1;" x1="445.1455" x2="445.1455" y1="886.5283" y2="918.5283"/><polygon fill="#181818" points="441.1455,908.5283,445.1455,918.5283,449.1455,908.5283,445.1455,912.5283" style="stroke:#181818;stroke-width:1;"/><line style="stroke:#181818;stroke-width:1;" x1="445.1455" x2="445.1455" y1="951.9346" y2="971.9346"/><polygon fill="#181818" points="441.1455,961.9346,445.1455,971.9346,449.1455,961.9346,445.1455,965.9346" style="stroke:#181818;stroke-width:1;"/><!--SRC=[ZLJRJXDH57tlL-pmD5KBfP4NY1fI5Pf08vdmQZAsKpgXxJJJAGQD2HIGXs98zCLeuYN-GBaKXjBBBvppHwwzPqelckX3qtFcxBtMNcllSshRJgLgULQPYbOb_zfpVD-kKC4grUnOxUwix5RSND5popRvNdtyf6hbjgqjs_HtIpPvTiuVEylR1QjUyf-x5Jzh8NNPSwpItyzDvurDywbOp7Ty0AclggykLA0wgaMgYysbQgjR5UWzhCzLI_MmFYKra6rRx-aZVEhhVTtWV-JsIJPzWJ3Cj9b8P-EnMCstF3yMGm5WSjmApQZl0eyC2JyFEGDa7yb1JpVr4M71fBAPeRSneaNr4nNrrGsXA1IdJr378PCzVROUNvg8u3hriJedOtKtxxabTyl9aUaw9Lhnt7grHWbQDLUcawu1syMcBJAPu7f2lR66bj5cpQOvacNQtR4zOArjhgMdmU0D4Y-Xhizrl7Z0ldOHzMxIZMzg87f2mzjCfTgKhdixDcNhvLSWCE3ao8E-Y6ElMwXjb091i55g2Klv1GVQka7Is4lfv6tOPZdObzB2naM0VNqQIKLqIpu5-8Lc3ziTXEWVTLETuTCUuQyLEHNYOTD3-d5O6j3IMJ8Wy1RBvVKqPJAHMLyuNzHtX6hlRXwGmJ995BRKrOZzhhUwIOQWGJMFQWGTObTS7zV3sIhwYu9rBMPXo5WGDwV1giL8S9vDmVynulZSOPeU1YvWDtH377gFNJ3TqHzYtJ-z3tZA1uW544QZBP2W7dPw0gQBc8xUdmtLSqjwGjuQjYPiv06F4M2kHZDhZlmesGNOOT8ZIYtCFgHxPCmdayav-9EW-MHykgqO3_r17x9auMBE1j_LiBaHTNXRewfWsWaP6MkQCsE1D3cRCic89hV75npXZVYmVL5CSe63GYy6yY85yMc7FybajOSj69jN_XzxY48ldGBk7pq6mvCu-KMyjpoDBHRyXz4NK7K01xZNpOadRKD4JOxM1ae6T0BGyPSfF0lHXkwJoV0sddMGSQsDY8vJaenaL_9EWPKjgi_2Si7TX_qtOsgc2_hF1tY97rwt-Xi0]--></g></svg>