<svg xmlns="http://www.w3.org/2000/svg" xmlns:xlink="http://www.w3.org/1999/xlink" contentStyleType="text/css" data-diagram-type="CLASS" height="696px" preserveAspectRatio="none" style="width:986px;height:696px;background:#FFFFFF;" version="1.1" viewBox="0 0 986 696" width="986px" zoomAndPan="magnify"><title>&#1057;&#1093;&#1077;&#1084;&#1072; &#1084;&#1086;&#1076;&#1077;&#1083;&#1080;&#1088;&#1086;&#1074;&#1072;&#1085;&#1080;&#1103; &#1087;&#1086;&#1074;&#1077;&#1088;&#1093;&#1085;&#1086;&#1089;&#1090;&#1085;&#1086;&#1075;&#1086; &#1089;&#1090;&#1086;&#1082;&#1072;</title><defs/><g><g class="title" data-source-line="67"><text fill="#000000" font-family="PtSans" font-size="14" font-weight="bold" lengthAdjust="spacing" textLength="318.0693" x="326.9653" y="25.1074">&#1057;&#1093;&#1077;&#1084;&#1072; &#1084;&#1086;&#1076;&#1077;&#1083;&#1080;&#1088;&#1086;&#1074;&#1072;&#1085;&#1080;&#1103; &#1087;&#1086;&#1074;&#1077;&#1088;&#1093;&#1085;&#1086;&#1089;&#1090;&#1085;&#1086;&#1075;&#1086; &#1089;&#1090;&#1086;&#1082;&#1072;</text></g><!--cluster inputs--><g class="cluster" data-entity="inputs" data-source-line="69" data-uid="ent0002" id="cluster_inputs"><path d="M204,45.6211 L303.5,45.6211 A7.5,7.5 0 0 1 308.5,50.6211 L315.5,67.582 L974,67.582 A5,5 0 0 1 979,72.582 L979,158.6211 A5,5 0 0 1 974,163.6211 L204,163.6211 A5,5 0 0 1 199,158.6211 L199,50.6211 A5,5 0 0 1 204,45.6211" fill="#FFFFFF" style="stroke:#D3D3D3;stroke-width:1.5;"/><line style="stroke:#D3D3D3;stroke-width:1.5;" x1="199" x2="315.5" y1="67.582" y2="67.582"/><text fill="#808080" font-family="PtSans" font-size="12" font-weight="bold" lengthAdjust="spacing" textLength="103.5" x="203" y="60.5703">&#1042;&#1093;&#1086;&#1076;&#1085;&#1099;&#1077; &#1076;&#1072;&#1085;&#1085;&#1099;&#1077;</text></g><!--cluster modeling--><g class="cluster" data-entity="modeling" data-source-line="77" data-uid="ent0008" id="cluster_modeling"><path d="M11,187.6211 L139.5215,187.6211 A7.5,7.5 0 0 1 144.5215,192.6211 L151.5215,209.582 L675,209.582 A5,5 0 0 1 680,214.582 L680,684.6211 A5,5 0 0 1 675,689.6211 L11,689.6211 A5,5 0 0 1 6,684.6211 L6,192.6211 A5,5 0 0 1 11,187.6211" fill="#FFFFFF" style="stroke:#D3D3D3;stroke-width:1.5;"/><line style="stroke:#D3D3D3;stroke-width:1.5;" x1="6" x2="151.5215" y1="209.582" y2="209.582"/><text fill="#808080" font-family="PtSans" font-size="12" font-weight="bold" lengthAdjust="spacing" textLength="132.5215" x="10" y="202.5703">&#1052;&#1086;&#1076;&#1077;&#1083;&#1080;&#1088;&#1086;&#1074;&#1072;&#1085;&#1080;&#1077; &#1089;&#1090;&#1086;&#1082;&#1072;</text></g><!--entity landuse--><g class="entity" data-entity="landuse" data-source-line="70" data-uid="ent0003" id="entity_landuse"><path d="M392,93.1211 C392,83.1211 436.002,83.1211 436.002,83.1211 C436.002,83.1211 480.0039,83.1211 480.0039,93.1211 L480.0039,134.043 C480.0039,144.043 436.002,144.043 436.002,144.043 C436.002,144.043 392,144.043 392,134.043 L392,93.1211" fill="#FFB6C1" style="stroke:#FF69B4;stroke-width:0.5;"/><path d="M392,93.1211 C392,103.1211 436.002,103.1211 436.002,103.1211 C436.002,103.1211 480.0039,103.1211 480.0039,93.1211" fill="none" style="stroke:#FF69B4;stroke-width:0.5;"/><text fill="#000000" font-family="PtSans" font-size="12" font-weight="bold" lengthAdjust="spacing" textLength="68.0039" x="402" y="120.0703">WorldCover</text><text fill="#000000" font-family="PtSans" font-size="12" lengthAdjust="spacing" textLength="62.5371" x="402" y="136.0313">(&#1055;&#1086;&#1082;&#1088;&#1099;&#1090;&#1080;&#1103;)</text></g><!--entity soil--><g class="entity" data-entity="soil" data-source-line="71" data-uid="ent0004" id="entity_soil"><path d="M515,93.1211 C515,83.1211 563.959,83.1211 563.959,83.1211 C563.959,83.1211 612.918,83.1211 612.918,93.1211 L612.918,134.043 C612.918,144.043 563.959,144.043 563.959,144.043 C563.959,144.043 515,144.043 515,134.043 L515,93.1211" fill="#FFB6C1" style="stroke:#FF69B4;stroke-width:0.5;"/><path d="M515,93.1211 C515,103.1211 563.959,103.1211 563.959,103.1211 C563.959,103.1211 612.918,103.1211 612.918,93.1211" fill="none" style="stroke:#FF69B4;stroke-width:0.5;"/><text fill="#000000" font-family="PtSans" font-size="12" font-weight="bold" lengthAdjust="spacing" textLength="68.6719" x="525" y="120.0703">HiHydroSoil</text><text fill="#000000" font-family="PtSans" font-size="12" lengthAdjust="spacing" textLength="77.918" x="525" y="136.0313">(&#1043;&#1088;&#1091;&#1087;&#1087;&#1099; &#1087;&#1086;&#1095;&#1074;)</text></g><!--entity xrain--><g class="entity" data-entity="xrain" data-source-line="72" data-uid="ent0005" id="entity_xrain"><path d="M215.5,93.1211 C215.5,83.1211 285.8398,83.1211 285.8398,83.1211 C285.8398,83.1211 356.1797,83.1211 356.1797,93.1211 L356.1797,134.043 C356.1797,144.043 285.8398,144.043 285.8398,144.043 C285.8398,144.043 215.5,144.043 215.5,134.043 L215.5,93.1211" fill="#FFB6C1" style="stroke:#FF69B4;stroke-width:0.5;"/><path d="M215.5,93.1211 C215.5,103.1211 285.8398,103.1211 285.8398,103.1211 C285.8398,103.1211 356.1797,103.1211 356.1797,93.1211" fill="none" style="stroke:#FF69B4;stroke-width:0.5;"/><text fill="#000000" font-family="PtSans" font-size="12" font-weight="bold" lengthAdjust="spacing" textLength="104.4199" x="225.5" y="120.0703">&#1057;&#1090;&#1072;&#1090;&#1080;&#1089;&#1090;&#1080;&#1082;&#1072; XRain</text><text fill="#000000" font-family="PtSans" font-size="12" lengthAdjust="spacing" textLength="120.6797" x="225.5" y="136.0313">(&#1050;&#1088;&#1080;&#1074;&#1099;&#1077; IDF &#1086;&#1089;&#1072;&#1076;&#1082;&#1086;&#1074;)</text></g><!--entity rx5--><g class="entity" data-entity="rx5" data-source-line="73" data-uid="ent0006" id="entity_rx5"><rect fill="#FFFFFF" height="67.8828" rx="5" ry="5" style="stroke:#708090;stroke-width:0.5;stroke-dasharray:7,7;" width="140.6855" x="821.5" y="79.6211"/><text fill="#000000" font-family="PtSans" font-size="12" font-style="italic" lengthAdjust="spacing" textLength="32.0215" x="875.832" y="102.5703">&#171;Ref&#187;</text><text fill="#000000" font-family="PtSans" font-size="12" font-weight="bold" lengthAdjust="spacing" textLength="44.0273" x="831.5" y="118.5313">Rx5Day</text><text fill="#000000" font-family="PtSans" font-size="12" lengthAdjust="spacing" textLength="120.6855" x="831.5" y="134.4922">(&#1052;&#1072;&#1082;&#1089;. &#1079;&#1072; 5 &#1089;&#1091;&#1090;&#1086;&#1082;, &#1084;&#1084;)</text></g><!--entity rx1--><g class="entity" data-entity="rx1" data-source-line="74" data-uid="ent0007" id="entity_rx1"><rect fill="#FFFFFF" height="67.8828" rx="5" ry="5" style="stroke:#708090;stroke-width:0.5;stroke-dasharray:7,7;" width="138.0957" x="648" y="79.6211"/><text fill="#000000" font-family="PtSans" font-size="12" font-style="italic" lengthAdjust="spacing" textLength="32.0215" x="701.0371" y="102.5703">&#171;Ref&#187;</text><text fill="#000000" font-family="PtSans" font-size="12" font-weight="bold" lengthAdjust="spacing" textLength="44.0273" x="658" y="118.5313">Rx1Day</text><text fill="#000000" font-family="PtSans" font-size="12" lengthAdjust="spacing" textLength="118.0957" x="658" y="134.4922">(&#1052;&#1072;&#1082;&#1089;. &#1089;&#1091;&#1090;&#1086;&#1095;&#1085;&#1099;&#1077;, &#1084;&#1084;)</text></g><!--entity scs_calc--><g class="entity" data-entity="scs_calc" data-source-line="79" data-uid="ent0009" id="entity_scs_calc"><rect fill="#E6E6FA" height="67.8828" rx="5" ry="5" style="stroke:#9370D8;stroke-width:0.5;" width="172.3965" x="492" y="221.6211"/><text fill="#000000" font-family="PtSans" font-size="12" font-style="italic" lengthAdjust="spacing" textLength="45.3516" x="555.5225" y="244.5703">&#171;ArcPy&#187;</text><text fill="#000000" font-family="PtSans" font-size="12" font-weight="bold" lengthAdjust="spacing" textLength="152.3965" x="502" y="260.5313">&#1055;&#1077;&#1088;&#1077;&#1082;&#1086;&#1076;&#1080;&#1088;&#1086;&#1074;&#1082;&#1072; &#1074; SCS-CN</text><text fill="#000000" font-family="PtSans" font-size="12" lengthAdjust="spacing" textLength="86.6426" x="502" y="276.4922">(&#1053;&#1086;&#1084;&#1077;&#1088; &#1082;&#1088;&#1080;&#1074;&#1086;&#1081;)</text></g><!--entity cn_ref--><g class="entity" data-entity="cn_ref" data-source-line="80" data-uid="ent0010" id="entity_cn_ref"><rect fill="#FFFACD" height="67.8828" rx="5" ry="5" style="stroke:#FFD700;stroke-width:0.5;" width="188.3281" x="269" y="221.6211"/><text fill="#000000" font-family="PtSans" font-size="12" font-style="italic" lengthAdjust="spacing" textLength="48.6914" x="338.8184" y="244.5703">&#171;Param&#187;</text><text fill="#000000" font-family="PtSans" font-size="12" font-weight="bold" lengthAdjust="spacing" textLength="167.2324" x="279" y="260.5313">&#1057;&#1087;&#1088;&#1072;&#1074;&#1086;&#1095;&#1085;&#1080;&#1082; &#1087;&#1077;&#1088;&#1077;&#1082;&#1086;&#1076;&#1080;&#1088;&#1086;&#1074;&#1082;&#1080;</text><text fill="#000000" font-family="PtSans" font-size="12" lengthAdjust="spacing" textLength="168.3281" x="279" y="276.4922">(&#1055;&#1086;&#1082;&#1088;&#1099;&#1090;&#1080;&#1077;+&#1043;&#1080;&#1076;&#1088;&#1086;&#1075;&#1088;&#1091;&#1087;&#1087;&#1072;-&gt;CN)</text></g><!--entity cn--><g class="entity" data-entity="cn" data-source-line="81" data-uid="ent0011" id="entity_cn"><rect fill="#90EE90" height="67.8828" rx="5" ry="5" style="stroke:#3CB371;stroke-width:0.5;" width="103.4609" x="526.5" y="349.6211"/><text fill="#000000" font-family="PtSans" font-size="12" font-style="italic" lengthAdjust="spacing" textLength="47.3613" x="554.5498" y="372.5703">&#171;Result&#187;</text><text fill="#000000" font-family="PtSans" font-size="12" font-weight="bold" lengthAdjust="spacing" textLength="46.002" x="536.5" y="388.5313">SCS-CN</text><text fill="#000000" font-family="PtSans" font-size="12" lengthAdjust="spacing" textLength="83.4609" x="536.5" y="404.4922">(&#1050;&#1088;&#1080;&#1074;&#1099;&#1077; &#1089;&#1090;&#1086;&#1082;&#1072;)</text></g><!--entity runoff_calc_5--><g class="entity" data-entity="runoff_calc_5" data-source-line="84" data-uid="ent0012" id="entity_runoff_calc_5"><rect fill="#E6E6FA" height="67.8828" rx="5" ry="5" style="stroke:#9370D8;stroke-width:0.5;" width="155.1348" x="508.5" y="477.6211"/><text fill="#000000" font-family="PtSans" font-size="12" font-style="italic" lengthAdjust="spacing" textLength="45.3516" x="563.3916" y="500.5703">&#171;ArcPy&#187;</text><text fill="#000000" font-family="PtSans" font-size="12" font-weight="bold" lengthAdjust="spacing" textLength="131.5078" x="518.5" y="516.5313">&#1056;&#1072;&#1089;&#1095;&#1077;&#1090; &#1089;&#1090;&#1086;&#1082;&#1072; &#1089; &#1103;&#1095;&#1077;&#1081;&#1082;&#1080;</text><text fill="#000000" font-family="PtSans" font-size="12" lengthAdjust="spacing" textLength="135.1348" x="518.5" y="532.4922">(&#1052;&#1077;&#1090;&#1086;&#1076;&#1080;&#1082;&#1072; SCS (TR-55))</text></g><!--entity run_rx5--><g class="entity" data-entity="run_rx5" data-source-line="85" data-uid="ent0013" id="entity_run_rx5"><rect fill="#90EE90" height="67.8828" rx="5" ry="5" style="stroke:#3CB371;stroke-width:0.5;" width="109.8477" x="531" y="605.6211"/><text fill="#000000" font-family="PtSans" font-size="12" font-style="italic" lengthAdjust="spacing" textLength="47.3613" x="562.2432" y="628.5703">&#171;Result&#187;</text><text fill="#000000" font-family="PtSans" font-size="12" font-weight="bold" lengthAdjust="spacing" textLength="75.2402" x="541" y="644.5313">&#1057;&#1090;&#1086;&#1082; Rx5Day</text><text fill="#000000" font-family="PtSans" font-size="12" lengthAdjust="spacing" textLength="89.8477" x="541" y="660.4922">(&#1057;&#1083;&#1086;&#1081; &#1074; &#1084;&#1077;&#1090;&#1088;&#1072;&#1093;)</text></g><!--entity idf_analyze--><g class="entity" data-entity="idf_analyze" data-source-line="88" data-uid="ent0014" id="entity_idf_analyze"><rect fill="#FFDAB9" height="67.8828" rx="5" ry="5" style="stroke:#F4A460;stroke-width:0.5;" width="211.1328" x="22.5" y="221.6211"/><text fill="#000000" font-family="PtSans" font-size="12" font-style="italic" lengthAdjust="spacing" textLength="68.0215" x="94.0557" y="244.5703">&#171;Transform&#187;</text><text fill="#000000" font-family="PtSans" font-size="12" font-weight="bold" lengthAdjust="spacing" textLength="191.1328" x="32.5" y="260.5313">&#1042;&#1080;&#1079;&#1091;&#1072;&#1083;&#1100;&#1085;&#1099;&#1081; &#1072;&#1085;&#1072;&#1083;&#1080;&#1079; &#1082;&#1088;&#1080;&#1074;&#1099;&#1093; IDF</text><text fill="#000000" font-family="PtSans" font-size="12" lengthAdjust="spacing" textLength="182.6777" x="32.5" y="276.4922">(&#1055;&#1086;&#1080;&#1089;&#1082; max &#1080;&#1085;&#1090;&#1077;&#1085;&#1089;&#1080;&#1074;&#1085;&#1086;&#1075;&#1086; &#1083;&#1080;&#1074;&#1085;&#1103;)</text></g><!--entity rain_param--><g class="entity" data-entity="rain_param" data-source-line="89" data-uid="ent0015" id="entity_rain_param"><rect fill="#FFFACD" height="67.8828" rx="5" ry="5" style="stroke:#FFD700;stroke-width:0.5;" width="201.6582" x="142" y="349.6211"/><text fill="#000000" font-family="PtSans" font-size="12" font-style="italic" lengthAdjust="spacing" textLength="48.6914" x="218.4834" y="372.5703">&#171;Param&#187;</text><text fill="#000000" font-family="PtSans" font-size="12" font-weight="bold" lengthAdjust="spacing" textLength="154.4121" x="152" y="388.5313">Max &#1080;&#1085;&#1090;&#1077;&#1085;&#1089;&#1080;&#1074;&#1085;&#1099;&#1081; &#1083;&#1080;&#1074;&#1077;&#1085;&#1100;</text><text fill="#000000" font-family="PtSans" font-size="12" lengthAdjust="spacing" textLength="181.6582" x="152" y="404.4922">(&#1044;&#1083;&#1080;&#1090;&#1077;&#1083;&#1100;&#1085;&#1086;&#1089;&#1090;&#1100;, &#1076;&#1086;&#1083;&#1103; &#1086;&#1090; Rx1Day)</text></g><!--entity rain_intens_calc--><g class="entity" data-entity="rain_intens_calc" data-source-line="90" data-uid="ent0016" id="entity_rain_intens_calc"><rect fill="#E6E6FA" height="51.9219" rx="5" ry="5" style="stroke:#9370D8;stroke-width:0.5;" width="230.416" x="243" y="485.6211"/><text fill="#000000" font-family="PtSans" font-size="12" font-style="italic" lengthAdjust="spacing" textLength="45.3516" x="335.5322" y="508.5703">&#171;ArcPy&#187;</text><text fill="#000000" font-family="PtSans" font-size="12" font-weight="bold" lengthAdjust="spacing" textLength="210.416" x="253" y="524.5313">&#1056;&#1072;&#1089;&#1095;&#1077;&#1090; &#1080;&#1085;&#1090;&#1077;&#1085;&#1089;&#1080;&#1074;&#1085;&#1086;&#1089;&#1090;&#1080; &#1089;&#1090;&#1086;&#1082;&#1072; &#1083;&#1080;&#1074;&#1085;&#1103;</text></g><!--entity rx--><g class="entity" data-entity="rx" data-source-line="91" data-uid="ent0017" id="entity_rx"><rect fill="#90EE90" height="67.8828" rx="5" ry="5" style="stroke:#3CB371;stroke-width:0.5;" width="193.1328" x="261.5" y="605.6211"/><text fill="#000000" font-family="PtSans" font-size="12" font-style="italic" lengthAdjust="spacing" textLength="47.3613" x="334.3857" y="628.5703">&#171;Result&#187;</text><text fill="#000000" font-family="PtSans" font-size="12" font-weight="bold" lengthAdjust="spacing" textLength="44.4727" x="271.5" y="644.5313">&#1051;&#1080;&#1074;&#1077;&#1085;&#1100;</text><text fill="#000000" font-family="PtSans" font-size="12" lengthAdjust="spacing" textLength="173.1328" x="271.5" y="660.4922">(&#1048;&#1085;&#1090;&#1077;&#1085;&#1089;&#1080;&#1074;&#1085;&#1086;&#1089;&#1090;&#1100; &#1083;&#1080;&#1074;&#1085;&#1103;, &#1084;&#1084;/&#1089;&#1077;&#1082;)</text></g><!--link landuse to scs_calc--><g class="link" data-entity-1="landuse" data-entity-2="scs_calc" data-source-line="94" data-uid="lnk18" id="link_landuse_scs_calc"><path codeLine="94" d="M476.5,144.3311 C476.5,183.0511 476.5,244.6211 476.5,244.6211 C476.5,244.6211 476.65,244.6211 485.92,244.6211" fill="none" id="landuse-to-scs_calc" style="stroke:#708090;stroke-width:2;"/><polygon fill="#708090" points="491.92,244.6211,482.92,240.6211,486.92,244.6211,482.92,248.6211,491.92,244.6211" style="stroke:#708090;stroke-width:2;"/></g><!--link soil to scs_calc--><g class="link" data-entity-1="soil" data-entity-2="scs_calc" data-source-line="95" data-uid="lnk19" id="link_soil_scs_calc"><path codeLine="95" d="M564,144.4311 C564,167.1111 564,191.9411 564,215.3811" fill="none" id="soil-to-scs_calc" style="stroke:#708090;stroke-width:2;"/><polygon fill="#708090" points="564,221.3811,568,212.3811,564,216.3811,560,212.3811,564,221.3811" style="stroke:#708090;stroke-width:2;"/></g><!--link cn_ref to scs_calc--><g class="link" data-entity-1="cn_ref" data-entity-2="scs_calc" data-source-line="96" data-uid="lnk20" id="link_cn_ref_scs_calc"><path codeLine="96" d="M457.3,267.6211 C468.81,267.6211 474.52,267.6211 485.9,267.6211" fill="none" id="cn_ref-to-scs_calc" style="stroke:#708090;stroke-width:2;stroke-dasharray:7,7;"/><polygon fill="#708090" points="491.9,267.6211,482.9,263.6211,486.9,267.6211,482.9,271.6211,491.9,267.6211" style="stroke:#708090;stroke-width:2;"/></g><!--link scs_calc to cn--><g class="link" data-entity-1="scs_calc" data-entity-2="cn" data-source-line="97" data-uid="lnk21" id="link_scs_calc_cn"><path codeLine="97" d="M578,289.9211 C578,308.2911 578,324.8411 578,343.2211" fill="none" id="scs_calc-to-cn" style="stroke:#708090;stroke-width:2;"/><polygon fill="#708090" points="578,349.2211,582,340.2211,578,344.2211,574,340.2211,578,349.2211" style="stroke:#708090;stroke-width:2;"/></g><!--link rx5 to runoff_calc_5--><g class="link" data-entity-1="rx5" data-entity-2="runoff_calc_5" data-source-line="99" data-uid="lnk22" id="link_rx5_runoff_calc_5"><path codeLine="99" d="M892,147.9011 C892,244.4411 892,511.6211 892,511.6211 C892,511.6211 760.27,511.6211 669.61,511.6211" fill="none" id="rx5-to-runoff_calc_5" style="stroke:#708090;stroke-width:2;"/><polygon fill="#708090" points="663.61,511.6211,672.61,515.6211,668.61,511.6211,672.61,507.6211,663.61,511.6211" style="stroke:#708090;stroke-width:2;"/></g><!--link cn to runoff_calc_5--><g class="link" data-entity-1="cn" data-entity-2="runoff_calc_5" data-source-line="100" data-uid="lnk23" id="link_cn_runoff_calc_5"><path codeLine="100" d="M578,417.9211 C578,436.2911 578,452.8411 578,471.2211" fill="none" id="cn-to-runoff_calc_5" style="stroke:#708090;stroke-width:2;"/><polygon fill="#708090" points="578,477.2211,582,468.2211,578,472.2211,574,468.2211,578,477.2211" style="stroke:#708090;stroke-width:2;"/></g><!--link runoff_calc_5 to run_rx5--><g class="link" data-entity-1="runoff_calc_5" data-entity-2="run_rx5" data-source-line="101" data-uid="lnk24" id="link_runoff_calc_5_run_rx5"><path codeLine="101" d="M586,545.9211 C586,564.2911 586,580.8411 586,599.2211" fill="none" id="runoff_calc_5-to-run_rx5" style="stroke:#708090;stroke-width:2;"/><polygon fill="#708090" points="586,605.2211,590,596.2211,586,600.2211,582,596.2211,586,605.2211" style="stroke:#708090;stroke-width:2;"/></g><!--link xrain to idf_analyze--><g class="link" data-entity-1="xrain" data-entity-2="idf_analyze" data-source-line="103" data-uid="lnk25" id="link_xrain_idf_analyze"><path codeLine="103" d="M224.5,144.4311 C224.5,167.1111 224.5,191.9411 224.5,215.3811" fill="none" id="xrain-to-idf_analyze" style="stroke:#708090;stroke-width:2;"/><polygon fill="#708090" points="224.5,221.3811,228.5,212.3811,224.5,216.3811,220.5,212.3811,224.5,221.3811" style="stroke:#708090;stroke-width:2;"/></g><!--link idf_analyze to rain_param--><g class="link" data-entity-1="idf_analyze" data-entity-2="rain_param" data-source-line="104" data-uid="lnk26" id="link_idf_analyze_rain_param"><path codeLine="104" d="M187.75,289.9211 C187.75,308.2911 187.75,324.8411 187.75,343.2211" fill="none" id="idf_analyze-to-rain_param" style="stroke:#708090;stroke-width:2;"/><polygon fill="#708090" points="187.75,349.2211,191.75,340.2211,187.75,344.2211,183.75,340.2211,187.75,349.2211" style="stroke:#708090;stroke-width:2;"/></g><!--link rain_param to rain_intens_calc--><g class="link" data-entity-1="rain_param" data-entity-2="rain_intens_calc" data-source-line="105" data-uid="lnk27" id="link_rain_param_rain_intens_calc"><path codeLine="105" d="M293.5,417.9211 C293.5,439.1011 293.5,459.8611 293.5,479.3511" fill="none" id="rain_param-to-rain_intens_calc" style="stroke:#708090;stroke-width:2;"/><polygon fill="#708090" points="293.5,485.3511,297.5,476.3511,293.5,480.3511,289.5,476.3511,293.5,485.3511" style="stroke:#708090;stroke-width:2;"/></g><!--link cn to rain_intens_calc--><g class="link" data-entity-1="cn" data-entity-2="rain_intens_calc" data-source-line="106" data-uid="lnk28" id="link_cn_rain_intens_calc"><path codeLine="106" d="M526.39,383.6211 C497.67,383.6211 467.67,383.6211 467.67,383.6211 C467.67,383.6211 467.67,441.9611 467.67,479.4111" fill="none" id="cn-to-rain_intens_calc" style="stroke:#708090;stroke-width:2;"/><polygon fill="#708090" points="467.67,485.4111,471.67,476.4111,467.67,480.4111,463.67,476.4111,467.67,485.4111" style="stroke:#708090;stroke-width:2;"/></g><!--link rx1 to rain_intens_calc--><g class="link" data-entity-1="rx1" data-entity-2="rain_intens_calc" data-source-line="107" data-uid="lnk29" id="link_rx1_rain_intens_calc"><path codeLine="107" d="M656,147.8711 C656,166.0311 656,184.6211 656,184.6211 C656,184.6211 462.33,184.6211 462.33,184.6211 C462.33,184.6211 462.33,401.8211 462.33,479.4111" fill="none" id="rx1-to-rain_intens_calc" style="stroke:#708090;stroke-width:2;"/><polygon fill="#708090" points="462.33,485.4111,466.33,476.4111,462.33,480.4111,458.33,476.4111,462.33,485.4111" style="stroke:#708090;stroke-width:2;"/></g><!--link rain_intens_calc to rx--><g class="link" data-entity-1="rain_intens_calc" data-entity-2="rx" data-source-line="108" data-uid="lnk30" id="link_rain_intens_calc_rx"><path codeLine="108" d="M358,537.8311 C358,557.2911 358,578.0011 358,599.1811" fill="none" id="rain_intens_calc-to-rx" style="stroke:#708090;stroke-width:2;"/><polygon fill="#708090" points="358,605.1811,362,596.1811,358,600.1811,354,596.1811,358,605.1811" style="stroke:#708090;stroke-width:2;"/></g><!--SRC=[ZLPRJnj757xVNp7rGmCgX1A9DsC930GaGYoRAcrLoHfsP-qLwrbhTftOgI9n4Se3IBH9gbG9QKAgzeK-M0GBbu3p5sR_KS_Cx6Lygm09Ti-SyvtBTywPnQxhFIdNdAP3AuPn1ytFpoF-WdVvPRZFs_npUCHlmaFUGVo6jyFTS2_SuJt-Bx_YNQ5h-DiEhME6QyYlOijxWcpi-aGJMyJ63JTOyMYmWMi4PGf12LC_Crgbv3mbQFQUTiYy1hNo7gE4eTbljGFNeIHerGdoM53r3Eq4CmQ1_6mW-CbxhiTGoSK1kSzmIyesguwvJOdletloNJXMUajEJMezq-7gsDp65H81Bi9R9GfAc3ogEW5H9nwp25FITQTI3HA7gOC-KIbekGJCN4iuZ6h_A_-5l-PdYB-2XtVmUyR_GXCbhy5CuayErDp20Tx2_hZOP1G5XsuFnRVgANdgzpt_mF_WV_FV-2dydg69JGOqsHwheQzHGNWRyiw86M1QSKascoZdScDYAH1iLWiDsnwA1Th1QYq2PRI_xXhy0ZCBhR7Gw_WneG0tXFo0M4wZLcYmkal6OilSncEJcaVpLSUsFJg4Vx-VkWzGlDVyJ_wM_yC_0diVHHdNFMoX6RI9MOK4_rF18l5X1iR7eHgA43econB1wdXSdaLYZqKVtSJHr92MTg9wri9-bUYfdq2wRsG7YTuHINu5KmqJYfOM9nnh2hbuYxYJQSDcf223i8ySAr5UMLjVrjKn2nmRcq6_EifcLnoNv7A9NM6XkF10Dqpo7hACw4vCDuiB6wMLXyLRcckDda0i5FE57svd7ZLoObfSBdstldaxsxX34kCV7sxqLIjULADhMrnUkQqVQ1J329m03lbfUC0x_9gt4VpfyGju-SoxyXOuXmlY1fwF4VyYNplX3cZVy9wuACH__edta7pfmOtHDWmLCgqt0dyAPVWBK1UOqHLp8G7bIsOoQbNe7nSMHCCdO93ToZtoc0jT-vYmxCnMxYSw0PiBmC7p8RY1O2R1DBRqFSTLPglEQijYNWa4iTrBiDc7oB-4XpA1y3a_1-FOjicmGvKn564FRZy1BtBfYbpGzqKuZx7UG46w_5ociRQqWaG989aBqEobg882rfnJeCNct19knG0de7qLxjv5_1AmvqJHzbNPfaJXh_iXPcE8sL4GiIqa96kP8ZoB6AXv5e7xio8uE1dDAYII4fUmSGULygNf_0RAOzTim7vmehMePi0t_R899r7PtekE0EWhwIA65yNZvn5G7FmxEBeMwaXmAMefFZFYhDLycxJCY1rJ0hpjGAZdAaz1Yc1njCFko5xXdM_uI_Xt8VK-nUt0szEv_4PQS3cX9fqIRlk3rbbFYnLRHWKhDgXdssY9r8EgLYecnR9QvQWZO7-AJwpdaCIUXWUFA3mMOlNTbVBTaIeNKKD2R71h5wVdvYO7WWTVPT5tIIy3BkhllrFW7mekY94yYE-yTdWmc0kqF7pWkMYD1eJwJX1zK6axr2vZYjtMqsXSHtnBWXFHOMtHSVmouHiuEH2perC5ymQHrd0JWSOD1Dw1lxkoE-Bj8b7WLGw-rYnYUilo4bI1F1W9ei9H449y57j_9UT1wCgmrKeBZwR4akg1x5YC-1vI4nXxZfWLdXrP87qOT797PQDMYyvxcfg8Qe3IfcBpxN3elu_63eyqGBKIPa03XYNQ3D6QHTFJEHGFiY4sQBz4JI6wgoj53rBHf8O1pIQV-veSB4S8-zxYSz6jXY4ti1HfRMLepqez8Tf87zCJZOWaW44vBDGn1mC2fTKq_WC0]--></g></svg>