<svg xmlns="http://www.w3.org/2000/svg" xmlns:xlink="http://www.w3.org/1999/xlink" contentStyleType="text/css" data-diagram-type="STATE" height="578px" preserveAspectRatio="none" style="width:524px;height:578px;background:#FFFFFF;" version="1.1" viewBox="0 0 524 578" width="524px" zoomAndPan="magnify"><defs/><g><g id="IA"><rect fill="#F9F9F9" height="86.5039" rx="12.5" ry="12.5" style="stroke:#000000;stroke-width:0.5;" width="188.6445" x="7" y="234"/><line style="stroke:#000000;stroke-width:0.5;" x1="7" x2="195.6445" y1="262.6211" y2="262.6211"/><text fill="#000000" font-family="sans-serif" font-size="14" lengthAdjust="spacing" textLength="147.9707" x="27.3369" y="254.1074">&#1053;&#1072;&#1095;&#1072;&#1083;&#1100;&#1085;&#1099;&#1077; &#1087;&#1086;&#1090;&#1077;&#1088;&#1080; (Ia)</text><text fill="#000000" font-family="sans-serif" font-size="12" lengthAdjust="spacing" textLength="74.2148" x="12" y="280.5703">&#1048;&#1085;&#1090;&#1077;&#1088;&#1094;&#1077;&#1087;&#1094;&#1080;&#1103;</text><text fill="#000000" font-family="sans-serif" font-size="12" lengthAdjust="spacing" textLength="168.6445" x="12" y="296.5313">&#1048;&#1085;&#1092;&#1080;&#1083;&#1100;&#1090;&#1088;&#1072;&#1094;&#1080;&#1103; &#1076;&#1086; &#1085;&#1072;&#1089;&#1099;&#1097;&#1077;&#1085;&#1080;&#1103;</text><text fill="#000000" font-family="sans-serif" font-size="12" lengthAdjust="spacing" textLength="154.1074" x="12" y="312.4922">&#1047;&#1072;&#1087;&#1086;&#1083;&#1085;&#1077;&#1085;&#1080;&#1077; &#1084;&#1080;&#1082;&#1088;&#1086;&#1088;&#1077;&#1083;&#1100;&#1077;&#1092;&#1072;</text></g><g id="F"><rect fill="#FFFFFF" height="70.543" rx="12.5" ry="12.5" style="stroke:#000000;stroke-width:0.5;" width="166.7363" x="101" y="400"/><line style="stroke:#000000;stroke-width:0.5;" x1="101" x2="267.7363" y1="428.6211" y2="428.6211"/><text fill="#000000" font-family="sans-serif" font-size="14" lengthAdjust="spacing" textLength="135.0986" x="116.8188" y="420.1074">&#1059;&#1076;&#1077;&#1088;&#1078;&#1072;&#1085;&#1080;&#1077; &#1074;&#1083;&#1072;&#1075;&#1080; (F)</text><text fill="#000000" font-family="sans-serif" font-size="12" lengthAdjust="spacing" textLength="112.8398" x="106" y="446.5703">&#1060;&#1080;&#1083;&#1100;&#1090;&#1088;&#1072;&#1094;&#1080;&#1103; &#1074; &#1087;&#1086;&#1095;&#1074;&#1091;</text><text fill="#000000" font-family="sans-serif" font-size="12" lengthAdjust="spacing" textLength="146.7363" x="106" y="462.5313">S (Max Potential Retention)</text></g><g id="Q"><rect fill="#DEDEDE" height="54.582" rx="12.5" ry="12.5" style="stroke:#000000;stroke-width:0.5;" width="177.7188" x="231.5" y="250"/><line style="stroke:#000000;stroke-width:0.5;" x1="231.5" x2="409.2188" y1="278.6211" y2="278.6211"/><text fill="#000000" font-family="sans-serif" font-size="14" lengthAdjust="spacing" textLength="157.7188" x="241.5" y="270.1074">&#1055;&#1086;&#1074;&#1077;&#1088;&#1093;&#1085;&#1086;&#1089;&#1090;&#1085;&#1099;&#1081; &#1089;&#1090;&#1086;&#1082; (Q)</text><text fill="#000000" font-family="sans-serif" font-size="12" lengthAdjust="spacing" textLength="70.0254" x="236.5" y="296.5703">Direct Runoff</text></g><ellipse cx="174.5" cy="16" fill="#222222" rx="10" ry="10" style="stroke:#222222;stroke-width:1;"/><g id="......"><rect fill="#FFFFFF" height="50" rx="12.5" ry="12.5" style="stroke:#000000;stroke-width:0.5;" width="67.79" x="140.5" y="105"/><line style="stroke:#000000;stroke-width:0.5;" x1="140.5" x2="208.29" y1="133.6211" y2="133.6211"/><text fill="#000000" font-family="sans-serif" font-size="14" lengthAdjust="spacing" textLength="47.79" x="150.5" y="125.1074">&#1054;&#1089;&#1072;&#1076;&#1082;&#1080;</text></g><ellipse cx="184.5" cy="561" fill="none" rx="11" ry="11" style="stroke:#222222;stroke-width:1;"/><ellipse cx="184.5" cy="561" fill="#222222" rx="6" ry="6" style="stroke:#222222;stroke-width:1;"/><g class="entity" data-entity="GMN2" data-source-line="32" data-uid="ent0003" id="entity_GMN2"><path d="M303.5,413 L303.5,457.582 A0,0 0 0 0 303.5,457.582 L517.4561,457.582 A0,0 0 0 0 517.4561,457.582 L517.4561,423 L507.4561,413 L401.84,413 L335.97,305.32 L393.84,413 L303.5,413 A0,0 0 0 0 303.5,413" fill="#FAFAFA" style="stroke:#181818;stroke-width:0.5;"/><path d="M507.4561,413 L507.4561,423 L517.4561,423 L507.4561,413" fill="#FAFAFA" style="stroke:#181818;stroke-width:0.5;"/><text fill="#000000" font-family="sans-serif" font-size="13" lengthAdjust="spacing" textLength="152.0264" x="309.5" y="432.0283">Q = (P - Ia)^2 / (P - Ia + S)</text><text fill="#000000" font-family="sans-serif" font-size="13" lengthAdjust="spacing" textLength="192.9561" x="309.5" y="449.3193">Ia = 0.05 * S (&#1047;&#1072;&#1087;&#1072;&#1076;&#1085;&#1072;&#1103; &#1040;&#1092;&#1088;&#1080;&#1082;&#1072;)</text></g><!--link *start* to ??????--><g class="link" data-entity-1=".start." data-entity-2="......" data-source-line="9" data-uid="lnk4" id="link_.start._......"><path d="M174.5,26.17 C174.5,43.2 174.5,74.23 174.5,98.89" fill="none" id="*start*-to-&#1054;&#1089;&#1072;&#1076;&#1082;&#1080;" style="stroke:#181818;stroke-width:1;"/><polygon fill="#181818" points="174.5,104.89,178.5,95.89,174.5,99.89,170.5,95.89,174.5,104.89" style="stroke:#181818;stroke-width:1;"/><text fill="#000000" font-family="sans-serif" font-size="13" lengthAdjust="spacing" textLength="124.9917" x="175.5" y="71.0283">P (Total Precipitation)</text></g><!--link ?????? to IA--><g class="link" data-entity-1="......" data-entity-2="IA" data-source-line="26" data-uid="lnk5" id="link_......_IA"><path d="M154.18,155.26 C147.32,164.23 140.01,174.72 134.5,185 C126.29,200.33 121.2697,212.4588 115.8997,228.2688" fill="none" id="&#1054;&#1089;&#1072;&#1076;&#1082;&#1080;-to-IA" style="stroke:#181818;stroke-width:1;"/><polygon fill="#181818" points="113.97,233.95,120.652,226.7146,115.5781,229.2156,113.077,224.1417,113.97,233.95" style="stroke:#181818;stroke-width:1;"/><text fill="#000000" font-family="sans-serif" font-size="13" lengthAdjust="spacing" textLength="104.4951" x="135.5" y="200.0283">P &lt;= Ia (&#1057;&#1090;&#1086;&#1082; = 0)</text></g><!--link ?????? to Q--><g class="link" data-entity-1="......" data-entity-2="Q" data-source-line="27" data-uid="lnk6" id="link_......_Q"><path d="M208.85,155.12 C220.62,163.98 233.56,174.45 244.5,185 C265.46,205.21 282.7285,226.159 297.3085,245.169" fill="none" id="&#1054;&#1089;&#1072;&#1076;&#1082;&#1080;-to-Q" style="stroke:#181818;stroke-width:1;"/><polygon fill="#181818" points="300.96,249.93,298.6567,240.3542,297.9171,245.9625,292.3088,245.2229,300.96,249.93" style="stroke:#181818;stroke-width:1;"/><text fill="#000000" font-family="sans-serif" font-size="13" lengthAdjust="spacing" textLength="34.3281" x="264.5" y="200.0283">P &gt; Ia</text></g><!--link Q to F--><g class="link" data-entity-1="Q" data-entity-2="F" data-source-line="28" data-uid="lnk7" id="link_Q_F"><path d="M290.49,305.28 C276.28,318.51 259.42,335.02 245.5,351 C232.17,366.3 222.19,379.4581 211.32,394.8581" fill="none" id="Q-to-F" style="stroke:#181818;stroke-width:1;"/><polygon fill="#181818" points="207.86,399.76,216.3179,394.7138,210.7433,395.6751,209.782,390.1005,207.86,399.76" style="stroke:#181818;stroke-width:1;"/><text fill="#000000" font-family="sans-serif" font-size="13" lengthAdjust="spacing" textLength="108.583" x="246.5" y="366.0283">&#1052;&#1072;&#1089;&#1089;&#1086;&#1074;&#1099;&#1081; &#1073;&#1072;&#1083;&#1072;&#1085;&#1089;</text></g><!--link F to *end*--><g class="link" data-entity-1="F" data-entity-2=".end." data-source-line="29" data-uid="lnk9" id="link_F_.end."><path d="M184.5,471.23 C184.5,497.91 184.5,526.98 184.5,543.95" fill="none" id="F-to-*end*" style="stroke:#181818;stroke-width:1;"/><polygon fill="#181818" points="184.5,549.95,188.5,540.95,184.5,544.95,180.5,540.95,184.5,549.95" style="stroke:#181818;stroke-width:1;"/><text fill="#000000" font-family="sans-serif" font-size="13" lengthAdjust="spacing" textLength="60.6392" x="185.5" y="516.0283">&#1059;&#1076;&#1077;&#1088;&#1078;&#1072;&#1085;&#1086;</text></g><!--SRC=[RPBVQXDH4CRlprDyj3UxbMWGlB0OGQqBkH2ohNUYS9ficgN9dhBPK4444rkBL6ZlzC8_Y3x06et4r6nVOSuRENCsbGOb9DbpPkQRttop_TqusTEfxg5d4jFifAON8Ki7aUh_ZVGxkcNsusG7RTtjH-foADDPX6SAkAkRkpkf6IIjUwPhKkntuYoIUvEsehIys-voadgkrAErnwXKReC-sY7bz8DcDCKw6l0UcantqKYZPhmNitXi4fyRkZOhz85oUyG5P_ODpUqnJK3dLDWHJUmBLl3gsb-1xgD-1wl1JVauDZwkWzvnYSkqhsX2v_mxjITBqGEQYhGTiLfUni5m1MZEvw4zjg-vShvKzvPnc87E-Dx51Eet_yrOfE3lnD5EM3oNqIz6-SB2GlsJwnTLOnR9wRiC4fHp10u_a3vV_ySsBkS_eh5zkKZSWlT0FqN3P56InUpbPkIUnCTBxJynyjYPSSZj2nvkv1pz1VTOq0nUM4A4MDsetgy69Kp8FJPYta-6pK5YscrHNTgZBDPvqy2j6keQ7drUIDPGzVzD3bqk5saLkWity7jd-L0u7HTzayMBMtQe0fSdhn5dBbjPA9NmyDWsMMPwC6s43hi6hu4AD_6VNCUrYmEkOCkNPMg1krgzWJMnSB5MePJLizMdza3UCOREVHKbBKWJzGS0]--></g></svg>