<svg xmlns="http://www.w3.org/2000/svg" xmlns:xlink="http://www.w3.org/1999/xlink" contentStyleType="text/css" data-diagram-type="DESCRIPTION" height="367px" preserveAspectRatio="none" style="width:560px;height:367px;" version="1.1" viewBox="0 0 560 367" width="560px" zoomAndPan="magnify"><defs/><g><!--entity Risk--><g class="entity" data-entity="Risk" data-source-line="3" data-uid="ent0002" id="entity_Risk"><rect fill="#D3D3D3" height="43.2422" rx="2.5" ry="2.5" style="stroke:#181818;stroke-width:0.5;" width="156.6367" x="149" y="213"/><text fill="#000000" font-family="sans-serif" font-size="14" lengthAdjust="spacing" textLength="82.4551" x="159" y="231.1074">Disaster Risk</text><text fill="#000000" font-family="sans-serif" font-size="14" lengthAdjust="spacing" textLength="136.6367" x="159" y="249.7285">(&#1056;&#1080;&#1089;&#1082; &#1073;&#1077;&#1076;&#1089;&#1090;&#1074;&#1080;&#1081;, R_c)</text></g><!--entity Hazard--><g class="entity" data-entity="Hazard" data-source-line="5" data-uid="ent0003" id="entity_Hazard"><rect fill="#FFCCCC" height="43.2422" rx="2.5" ry="2.5" style="stroke:#181818;stroke-width:0.5;" width="116.6943" x="7" y="110"/><text fill="#000000" font-family="sans-serif" font-size="14" lengthAdjust="spacing" textLength="45.1309" x="17" y="128.1074">Hazard</text><text fill="#000000" font-family="sans-serif" font-size="14" lengthAdjust="spacing" textLength="96.6943" x="17" y="146.7285">(&#1054;&#1087;&#1072;&#1089;&#1085;&#1086;&#1089;&#1090;&#1100;, H)</text></g><!--entity Exposure--><g class="entity" data-entity="Exposure" data-source-line="6" data-uid="ent0004" id="entity_Exposure"><rect fill="#CCCCFF" height="43.2422" rx="2.5" ry="2.5" style="stroke:#181818;stroke-width:0.5;" width="137.0859" x="159" y="110"/><text fill="#000000" font-family="sans-serif" font-size="14" lengthAdjust="spacing" textLength="59.1445" x="169" y="128.1074">Exposure</text><text fill="#000000" font-family="sans-serif" font-size="14" lengthAdjust="spacing" textLength="117.0859" x="169" y="146.7285">(&#1044;&#1086;&#1089;&#1103;&#1075;&#1072;&#1077;&#1084;&#1086;&#1089;&#1090;&#1100;, E)</text></g><!--entity Vulnerability--><g class="entity" data-entity="Vulnerability" data-source-line="7" data-uid="ent0005" id="entity_Vulnerability"><rect fill="#CCFFCC" height="43.2422" rx="2.5" ry="2.5" style="stroke:#181818;stroke-width:0.5;" width="122.71" x="331" y="110"/><text fill="#000000" font-family="sans-serif" font-size="14" lengthAdjust="spacing" textLength="76.2617" x="341" y="128.1074">Vulnerability</text><text fill="#000000" font-family="sans-serif" font-size="14" lengthAdjust="spacing" textLength="102.71" x="341" y="146.7285">(&#1059;&#1103;&#1079;&#1074;&#1080;&#1084;&#1086;&#1089;&#1090;&#1100;, V)</text></g><!--entity Sensitivity--><g class="entity" data-entity="Sensitivity" data-source-line="9" data-uid="ent0006" id="entity_Sensitivity"><rect fill="#FFFFFF" height="43.2422" rx="2.5" ry="2.5" style="stroke:#181818;stroke-width:0.5;" width="164.7646" x="217" y="7"/><text fill="#000000" font-family="sans-serif" font-size="14" lengthAdjust="spacing" textLength="63.0205" x="227" y="25.1074">Sensitivity</text><text fill="#000000" font-family="sans-serif" font-size="14" lengthAdjust="spacing" textLength="144.7646" x="227" y="43.7285">(&#1063;&#1091;&#1074;&#1089;&#1090;&#1074;&#1080;&#1090;&#1077;&#1083;&#1100;&#1085;&#1086;&#1089;&#1090;&#1100;, S)</text></g><!--entity Adaptability--><g class="entity" data-entity="Adaptability" data-source-line="10" data-uid="ent0007" id="entity_Adaptability"><rect fill="#FFFFFF" height="43.2422" rx="2.5" ry="2.5" style="stroke:#181818;stroke-width:0.5;" width="137.209" x="417" y="7"/><text fill="#000000" font-family="sans-serif" font-size="14" lengthAdjust="spacing" textLength="72.3789" x="427" y="25.1074">Adaptability</text><text fill="#000000" font-family="sans-serif" font-size="14" lengthAdjust="spacing" textLength="117.209" x="427" y="43.7285">(&#1040;&#1076;&#1072;&#1087;&#1090;&#1080;&#1074;&#1085;&#1086;&#1089;&#1090;&#1100;, A)</text></g><g class="entity" data-entity="GMN13" data-source-line="20" data-uid="ent0014" id="entity_GMN13"><path d="M136,316 L136,360.582 A0,0 0 0 0 136,360.582 L318.5859,360.582 A0,0 0 0 0 318.5859,360.582 L318.5859,326 L308.5859,316 L231.5,316 L227.5,256.14 L223.5,316 L136,316 A0,0 0 0 0 136,316" fill="#FEFFDD" style="stroke:#181818;stroke-width:0.5;"/><path d="M308.5859,316 L308.5859,326 L318.5859,326 L308.5859,316" fill="#FEFFDD" style="stroke:#181818;stroke-width:0.5;"/><text fill="#000000" font-family="sans-serif" font-size="13" lengthAdjust="spacing" textLength="161.5859" x="142" y="335.0283">&#1056;&#1080;&#1089;&#1082; &#1074;&#1086;&#1079;&#1085;&#1080;&#1082;&#1072;&#1077;&#1090; &#1090;&#1086;&#1083;&#1100;&#1082;&#1086; &#1087;&#1088;&#1080;</text><text fill="#000000" font-family="sans-serif" font-size="13" lengthAdjust="spacing" textLength="130.2158" x="142" y="352.3193">&#1087;&#1077;&#1088;&#1077;&#1089;&#1077;&#1095;&#1077;&#1085;&#1080;&#1080; H, E &#1080; V</text></g><!--link Hazard to Risk--><g class="link" data-entity-1="Hazard" data-entity-2="Risk" data-source-line="12" data-uid="lnk8" id="link_Hazard_Risk"><path d="M98.67,153.18 C126.63,170.61 161.3394,192.2443 189.2794,209.6743" fill="none" id="Hazard-to-Risk" style="stroke:#181818;stroke-width:1;"/><polygon fill="#181818" points="194.37,212.85,188.8512,204.6926,190.1278,210.2036,184.6169,211.4802,194.37,212.85" style="stroke:#181818;stroke-width:1;"/></g><!--link Exposure to Risk--><g class="link" data-entity-1="Exposure" data-entity-2="Risk" data-source-line="13" data-uid="lnk9" id="link_Exposure_Risk"><path d="M227.5,153.43 C227.5,170.88 227.5,189.6 227.5,206.95" fill="none" id="Exposure-to-Risk" style="stroke:#181818;stroke-width:1;"/><polygon fill="#181818" points="227.5,212.95,231.5,203.95,227.5,207.95,223.5,203.95,227.5,212.95" style="stroke:#181818;stroke-width:1;"/></g><!--link Vulnerability to Risk--><g class="link" data-entity-1="Vulnerability" data-entity-2="Risk" data-source-line="14" data-uid="lnk10" id="link_Vulnerability_Risk"><path d="M358.71,153.18 C330.24,170.61 294.8167,192.2864 266.3567,209.7164" fill="none" id="Vulnerability-to-Risk" style="stroke:#181818;stroke-width:1;"/><polygon fill="#181818" points="261.24,212.85,271.0041,211.5606,265.5039,210.2386,266.8259,204.7384,261.24,212.85" style="stroke:#181818;stroke-width:1;"/></g><!--link Sensitivity to Vulnerability--><g class="link" data-entity-1="Sensitivity" data-entity-2="Vulnerability" data-source-line="16" data-uid="lnk11" id="link_Sensitivity_Vulnerability"><path d="M318.77,50.43 C334.84,67.88 353.5366,88.1854 369.5066,105.5354" fill="none" id="Sensitivity-to-Vulnerability" style="stroke:#181818;stroke-width:1;"/><polygon fill="#181818" points="373.57,109.95,370.4179,100.6192,370.1838,106.2712,364.5318,106.0371,373.57,109.95" style="stroke:#181818;stroke-width:1;"/></g><!--link Adaptability to Vulnerability--><g class="link" data-entity-1="Adaptability" data-entity-2="Vulnerability" data-source-line="17" data-uid="lnk12" id="link_Adaptability_Vulnerability"><path d="M466.23,50.43 C450.16,67.88 431.4634,88.1854 415.4934,105.5354" fill="none" id="Adaptability-to-Vulnerability" style="stroke:#181818;stroke-width:1;"/><polygon fill="#181818" points="411.43,109.95,420.4682,106.0371,414.8162,106.2712,414.5821,100.6192,411.43,109.95" style="stroke:#181818;stroke-width:1;"/></g><!--SRC=[PPBDJi9058NtVOeRkj54Ni44bOGr9AnCpD0Vc52cP3gek09Sk27HXMjZui8j8iIAKbxXzesyqnzeOvFf93FtV7FFcGdwN0oPP0CuOrQ_A_sHiCzzpvUW91C1RJb26OR5f0sL2nwmG3aIcZpeNueZVCKmdk86y0FNk8gdyGoN6EBt2JIlhECAi20f1TFZtPxgIZREKGrsHxDclE0E5qJPOgG1yVm46gaqhG7JTItwCc7zTkW78-bewNCYUSHFND3vlmT0FGNajM1gWEjcYFR84uva7UvnDTQSDs9y9PqN6EsKKIhM8DrDxgBbY80hVfrntkDxNEOfq7-DF_6yQAoLCWioC6zwN3aPhsQpeIeqzeGhihOZL4Z80gYMWehrESd8OgjMJvFmZNqA-vMof_soKUnBhvRgZD9X_xSDuIi7EhvI_W1yDqK27Dx84YDAUKjMDlg-uXcGhoY9Q8CHaCq9Xbgneyq9ZIcD1mfHIq9eqBK2pMt34JRem_u0]--></g></svg>