<svg xmlns="http://www.w3.org/2000/svg" xmlns:xlink="http://www.w3.org/1999/xlink" contentStyleType="text/css" data-diagram-type="DESCRIPTION" height="617px" preserveAspectRatio="none" style="width:990px;height:617px;background:#FFFFFF;" version="1.1" viewBox="0 0 990 617" width="990px" zoomAndPan="magnify"><title>&#1050;&#1086;&#1085;&#1074;&#1077;&#1081;&#1077;&#1088; &#1084;&#1077;&#1090;&#1086;&#1076;&#1072; WLC</title><defs/><g><rect fill="#FFFFCC" height="28.7939" rx="2.5" ry="2.5" style="stroke:#FFDD88;stroke-width:3;" width="979" x="5" y="5"/><text fill="#000000" font-family="monospace" font-size="10" lengthAdjust="spacing" textLength="354.0576" x="10" y="20">Please&#160;use&#160;'!option&#160;handwritten&#160;true'&#160;to&#160;enable&#160;handwritten</text><g class="title" data-source-line="5"><text fill="#000000" font-family="sans-serif" font-size="14" font-weight="bold" lengthAdjust="spacing" textLength="156.7686" x="402.1157" y="63.9014">&#1050;&#1086;&#1085;&#1074;&#1077;&#1081;&#1077;&#1088; &#1084;&#1077;&#1090;&#1086;&#1076;&#1072; WLC</text></g><!--cluster ???????? ???????--><g class="cluster" data-entity="........ ......." data-source-line="7" data-uid="ent0002" id="cluster_........ ......."><polygon fill="none" points="112,94.415,122,84.415,508,84.415,508,181.415,498,191.415,112,191.415,112,94.415" style="stroke:#181818;stroke-width:1;"/><line style="stroke:#181818;stroke-width:1;" x1="498" x2="508" y1="94.415" y2="84.415"/><line style="stroke:#181818;stroke-width:1;" x1="112" x2="498" y1="94.415" y2="94.415"/><line style="stroke:#181818;stroke-width:1;" x1="498" x2="498" y1="94.415" y2="191.415"/><text fill="#000000" font-family="sans-serif" font-size="14" font-weight="bold" lengthAdjust="spacing" textLength="138.1201" x="236.9399" y="112.5225">&#1048;&#1089;&#1093;&#1086;&#1076;&#1085;&#1099;&#1077; &#1092;&#1072;&#1082;&#1090;&#1086;&#1088;&#1099;</text></g><!--cluster ????????????--><g class="cluster" data-entity="............" data-source-line="13" data-uid="ent0006" id="cluster_............"><polygon fill="none" points="16,225.415,26,215.415,604,215.415,604,330.415,594,340.415,16,340.415,16,225.415" style="stroke:#181818;stroke-width:1;"/><line style="stroke:#181818;stroke-width:1;" x1="594" x2="604" y1="225.415" y2="215.415"/><line style="stroke:#181818;stroke-width:1;" x1="16" x2="594" y1="225.415" y2="225.415"/><line style="stroke:#181818;stroke-width:1;" x1="594" x2="594" y1="225.415" y2="340.415"/><text fill="#000000" font-family="sans-serif" font-size="14" font-weight="bold" lengthAdjust="spacing" textLength="102.9834" x="254.5083" y="243.5225">&#1053;&#1086;&#1088;&#1084;&#1072;&#1083;&#1080;&#1079;&#1072;&#1094;&#1080;&#1103;</text></g><!--cluster ???????????--><g class="cluster" data-entity="..........." data-source-line="19" data-uid="ent0010" id="cluster_..........."><polygon fill="none" points="628,234.415,638,224.415,958,224.415,958,321.415,948,331.415,628,331.415,628,234.415" style="stroke:#181818;stroke-width:1;"/><line style="stroke:#181818;stroke-width:1;" x1="948" x2="958" y1="234.415" y2="224.415"/><line style="stroke:#181818;stroke-width:1;" x1="628" x2="948" y1="234.415" y2="234.415"/><line style="stroke:#181818;stroke-width:1;" x1="948" x2="948" y1="234.415" y2="331.415"/><text fill="#000000" font-family="sans-serif" font-size="14" font-weight="bold" lengthAdjust="spacing" textLength="94.9785" x="741.5107" y="252.5225">&#1042;&#1079;&#1074;&#1077;&#1096;&#1080;&#1074;&#1072;&#1085;&#1080;&#1077;</text></g><!--entity f1--><g class="entity" data-entity="f1" data-source-line="8" data-uid="ent0003" id="entity_f1"><rect fill="#F1F1F1" height="48.6211" rx="2.5" ry="2.5" style="stroke:#181818;stroke-width:0.5;" width="98.2148" x="394" y="126.415"/><rect fill="#F1F1F1" height="10" style="stroke:#181818;stroke-width:0.5;" width="15" x="472.2148" y="131.415"/><rect fill="#F1F1F1" height="2" style="stroke:#181818;stroke-width:0.5;" width="4" x="470.2148" y="133.415"/><rect fill="#F1F1F1" height="2" style="stroke:#181818;stroke-width:0.5;" width="4" x="470.2148" y="137.415"/><text fill="#000000" font-family="sans-serif" font-size="14" lengthAdjust="spacing" textLength="58.2148" x="409" y="161.5225">&#1060;&#1072;&#1082;&#1090;&#1086;&#1088; 1</text></g><!--entity f2--><g class="entity" data-entity="f2" data-source-line="9" data-uid="ent0004" id="entity_f2"><rect fill="#F1F1F1" height="48.6211" rx="2.5" ry="2.5" style="stroke:#181818;stroke-width:0.5;" width="98.2148" x="261" y="126.415"/><rect fill="#F1F1F1" height="10" style="stroke:#181818;stroke-width:0.5;" width="15" x="339.2148" y="131.415"/><rect fill="#F1F1F1" height="2" style="stroke:#181818;stroke-width:0.5;" width="4" x="337.2148" y="133.415"/><rect fill="#F1F1F1" height="2" style="stroke:#181818;stroke-width:0.5;" width="4" x="337.2148" y="137.415"/><text fill="#000000" font-family="sans-serif" font-size="14" lengthAdjust="spacing" textLength="58.2148" x="276" y="161.5225">&#1060;&#1072;&#1082;&#1090;&#1086;&#1088; 2</text></g><!--entity fn--><g class="entity" data-entity="fn" data-source-line="10" data-uid="ent0005" id="entity_fn"><rect fill="#F1F1F1" height="48.6211" rx="2.5" ry="2.5" style="stroke:#181818;stroke-width:0.5;" width="98.2148" x="128" y="126.415"/><rect fill="#F1F1F1" height="10" style="stroke:#181818;stroke-width:0.5;" width="15" x="206.2148" y="131.415"/><rect fill="#F1F1F1" height="2" style="stroke:#181818;stroke-width:0.5;" width="4" x="204.2148" y="133.415"/><rect fill="#F1F1F1" height="2" style="stroke:#181818;stroke-width:0.5;" width="4" x="204.2148" y="137.415"/><text fill="#000000" font-family="sans-serif" font-size="14" lengthAdjust="spacing" textLength="58.2148" x="143" y="161.5225">&#1060;&#1072;&#1082;&#1090;&#1086;&#1088; n</text></g><!--entity nf1--><g class="entity" data-entity="nf1" data-source-line="14" data-uid="ent0007" id="entity_nf1"><rect fill="#F1F1F1" height="67.2422" rx="2.5" ry="2.5" style="stroke:#181818;stroke-width:0.5;" width="161.8574" x="426" y="257.415"/><rect fill="#F1F1F1" height="10" style="stroke:#181818;stroke-width:0.5;" width="15" x="567.8574" y="262.415"/><rect fill="#F1F1F1" height="2" style="stroke:#181818;stroke-width:0.5;" width="4" x="565.8574" y="264.415"/><rect fill="#F1F1F1" height="2" style="stroke:#181818;stroke-width:0.5;" width="4" x="565.8574" y="268.415"/><text fill="#000000" font-family="sans-serif" font-size="14" lengthAdjust="spacing" textLength="121.8574" x="441" y="292.5225">&#1053;&#1086;&#1088;&#1084;&#1072;&#1083;&#1080;&#1079;&#1086;&#1074;&#1072;&#1085;&#1085;&#1099;&#1081;</text><text fill="#000000" font-family="sans-serif" font-size="14" lengthAdjust="spacing" textLength="58.2148" x="441" y="311.1436">&#1060;&#1072;&#1082;&#1090;&#1086;&#1088; 1</text></g><!--entity nf2--><g class="entity" data-entity="nf2" data-source-line="15" data-uid="ent0008" id="entity_nf2"><rect fill="#F1F1F1" height="67.2422" rx="2.5" ry="2.5" style="stroke:#181818;stroke-width:0.5;" width="161.8574" x="229" y="257.415"/><rect fill="#F1F1F1" height="10" style="stroke:#181818;stroke-width:0.5;" width="15" x="370.8574" y="262.415"/><rect fill="#F1F1F1" height="2" style="stroke:#181818;stroke-width:0.5;" width="4" x="368.8574" y="264.415"/><rect fill="#F1F1F1" height="2" style="stroke:#181818;stroke-width:0.5;" width="4" x="368.8574" y="268.415"/><text fill="#000000" font-family="sans-serif" font-size="14" lengthAdjust="spacing" textLength="121.8574" x="244" y="292.5225">&#1053;&#1086;&#1088;&#1084;&#1072;&#1083;&#1080;&#1079;&#1086;&#1074;&#1072;&#1085;&#1085;&#1099;&#1081;</text><text fill="#000000" font-family="sans-serif" font-size="14" lengthAdjust="spacing" textLength="58.2148" x="244" y="311.1436">&#1060;&#1072;&#1082;&#1090;&#1086;&#1088; 2</text></g><!--entity nfn--><g class="entity" data-entity="nfn" data-source-line="16" data-uid="ent0009" id="entity_nfn"><rect fill="#F1F1F1" height="67.2422" rx="2.5" ry="2.5" style="stroke:#181818;stroke-width:0.5;" width="161.8574" x="32" y="257.415"/><rect fill="#F1F1F1" height="10" style="stroke:#181818;stroke-width:0.5;" width="15" x="173.8574" y="262.415"/><rect fill="#F1F1F1" height="2" style="stroke:#181818;stroke-width:0.5;" width="4" x="171.8574" y="264.415"/><rect fill="#F1F1F1" height="2" style="stroke:#181818;stroke-width:0.5;" width="4" x="171.8574" y="268.415"/><text fill="#000000" font-family="sans-serif" font-size="14" lengthAdjust="spacing" textLength="121.8574" x="47" y="292.5225">&#1053;&#1086;&#1088;&#1084;&#1072;&#1083;&#1080;&#1079;&#1086;&#1074;&#1072;&#1085;&#1085;&#1099;&#1081;</text><text fill="#000000" font-family="sans-serif" font-size="14" lengthAdjust="spacing" textLength="58.2148" x="47" y="311.1436">&#1060;&#1072;&#1082;&#1090;&#1086;&#1088; n</text></g><!--entity w1--><g class="entity" data-entity="w1" data-source-line="20" data-uid="ent0011" id="entity_w1"><rect fill="#F1F1F1" height="48.6211" rx="2.5" ry="2.5" style="stroke:#181818;stroke-width:0.5;" width="75.7998" x="866" y="266.415"/><rect fill="#F1F1F1" height="10" style="stroke:#181818;stroke-width:0.5;" width="15" x="921.7998" y="271.415"/><rect fill="#F1F1F1" height="2" style="stroke:#181818;stroke-width:0.5;" width="4" x="919.7998" y="273.415"/><rect fill="#F1F1F1" height="2" style="stroke:#181818;stroke-width:0.5;" width="4" x="919.7998" y="277.415"/><text fill="#000000" font-family="sans-serif" font-size="14" lengthAdjust="spacing" textLength="35.7998" x="881" y="301.5225">&#1042;&#1077;&#1089; 1</text></g><!--entity w2--><g class="entity" data-entity="w2" data-source-line="21" data-uid="ent0012" id="entity_w2"><rect fill="#F1F1F1" height="48.6211" rx="2.5" ry="2.5" style="stroke:#181818;stroke-width:0.5;" width="75.7998" x="755" y="266.415"/><rect fill="#F1F1F1" height="10" style="stroke:#181818;stroke-width:0.5;" width="15" x="810.7998" y="271.415"/><rect fill="#F1F1F1" height="2" style="stroke:#181818;stroke-width:0.5;" width="4" x="808.7998" y="273.415"/><rect fill="#F1F1F1" height="2" style="stroke:#181818;stroke-width:0.5;" width="4" x="808.7998" y="277.415"/><text fill="#000000" font-family="sans-serif" font-size="14" lengthAdjust="spacing" textLength="35.7998" x="770" y="301.5225">&#1042;&#1077;&#1089; 2</text></g><!--entity wn--><g class="entity" data-entity="wn" data-source-line="22" data-uid="ent0013" id="entity_wn"><rect fill="#F1F1F1" height="48.6211" rx="2.5" ry="2.5" style="stroke:#181818;stroke-width:0.5;" width="75.7998" x="644" y="266.415"/><rect fill="#F1F1F1" height="10" style="stroke:#181818;stroke-width:0.5;" width="15" x="699.7998" y="271.415"/><rect fill="#F1F1F1" height="2" style="stroke:#181818;stroke-width:0.5;" width="4" x="697.7998" y="273.415"/><rect fill="#F1F1F1" height="2" style="stroke:#181818;stroke-width:0.5;" width="4" x="697.7998" y="277.415"/><text fill="#000000" font-family="sans-serif" font-size="14" lengthAdjust="spacing" textLength="35.7998" x="659" y="301.5225">&#1042;&#1077;&#1089; n</text></g><!--entity sum--><g class="entity" data-entity="sum" data-source-line="25" data-uid="ent0014" id="entity_sum"><ellipse cx="594" cy="434.415" fill="#F1F1F1" rx="8" ry="8" style="stroke:#181818;stroke-width:0.5;"/><text fill="#000000" font-family="sans-serif" font-size="14" lengthAdjust="spacing" textLength="92.7227" x="547.6387" y="466.5225">&#1055;&#1086;&#1087;&#1080;&#1082;&#1089;&#1077;&#1083;&#1100;&#1085;&#1072;&#1103;</text><text fill="#000000" font-family="sans-serif" font-size="14" lengthAdjust="spacing" textLength="41.0361" x="547.6387" y="485.1436">&#1089;&#1091;&#1084;&#1084;&#1072;</text></g><!--entity result--><g class="entity" data-entity="result" data-source-line="27" data-uid="ent0015" id="entity_result"><rect fill="#F1F1F1" height="67.2422" rx="2.5" ry="2.5" style="stroke:#181818;stroke-width:0.5;" width="185.0518" x="501.5" y="544.415"/><rect fill="#F1F1F1" height="10" style="stroke:#181818;stroke-width:0.5;" width="15" x="666.5518" y="549.415"/><rect fill="#F1F1F1" height="2" style="stroke:#181818;stroke-width:0.5;" width="4" x="664.5518" y="551.415"/><rect fill="#F1F1F1" height="2" style="stroke:#181818;stroke-width:0.5;" width="4" x="664.5518" y="555.415"/><text fill="#000000" font-family="sans-serif" font-size="14" lengthAdjust="spacing" textLength="145.0518" x="516.5" y="579.5225">&#1048;&#1085;&#1090;&#1077;&#1075;&#1088;&#1072;&#1083;&#1100;&#1085;&#1099;&#1081; &#1092;&#1072;&#1082;&#1090;&#1086;&#1088;</text><text fill="#000000" font-family="sans-serif" font-size="14" lengthAdjust="spacing" textLength="56.1982" x="516.5" y="598.1436">(&#1048;&#1085;&#1076;&#1077;&#1082;&#1089;)</text></g><!--link f1 to nf1--><g class="link" data-entity-1="f1" data-entity-2="nf1" data-source-line="29" data-uid="lnk16" id="link_f1_nf1"><path d="M454,175.635 C464.44,198.145 477.6868,226.7014 489.3068,251.7714" fill="none" id="f1-to-nf1" style="stroke:#181818;stroke-width:1;"/><polygon fill="#181818" points="491.83,257.215,491.6744,247.3674,489.7274,252.6786,484.4161,250.7316,491.83,257.215" style="stroke:#181818;stroke-width:1;"/></g><!--link f2 to nf2--><g class="link" data-entity-1="f2" data-entity-2="nf2" data-source-line="30" data-uid="lnk17" id="link_f2_nf2"><path d="M310,175.635 C310,198.145 310,226.145 310,251.215" fill="none" id="f2-to-nf2" style="stroke:#181818;stroke-width:1;"/><polygon fill="#181818" points="310,257.215,314,248.215,310,252.215,306,248.215,310,257.215" style="stroke:#181818;stroke-width:1;"/></g><!--link fn to nfn--><g class="link" data-entity-1="fn" data-entity-2="nfn" data-source-line="31" data-uid="lnk18" id="link_fn_nfn"><path d="M166,175.635 C155.56,198.145 142.3132,226.7014 130.6932,251.7714" fill="none" id="fn-to-nfn" style="stroke:#181818;stroke-width:1;"/><polygon fill="#181818" points="128.17,257.215,135.5839,250.7316,130.2726,252.6786,128.3256,247.3674,128.17,257.215" style="stroke:#181818;stroke-width:1;"/></g><!--link nf1 to sum--><g class="link" data-entity-1="nf1" data-entity-2="sum" data-source-line="33" data-uid="lnk19" id="link_nf1_sum"><path d="M527.18,324.735 C547.46,357.715 574.1987,401.2031 585.8987,420.2431" fill="none" id="nf1-to-sum" style="stroke:#181818;stroke-width:1;"/><polygon fill="#181818" points="589.04,425.355,587.7361,415.5929,586.4223,421.0951,580.9201,419.7813,589.04,425.355" style="stroke:#181818;stroke-width:1;"/></g><!--link nf2 to sum--><g class="link" data-entity-1="nf2" data-entity-2="sum" data-source-line="34" data-uid="lnk20" id="link_nf2_sum"><path d="M365.03,324.455 C379.22,332.535 394.57,340.995 409,348.415 C475.02,382.335 551.6984,415.4573 579.0984,427.1073" fill="none" id="nf2-to-sum" style="stroke:#181818;stroke-width:1;"/><polygon fill="#181818" points="584.62,429.455,577.9027,422.2524,580.0186,427.4986,574.7724,429.6146,584.62,429.455" style="stroke:#181818;stroke-width:1;"/></g><!--link nfn to sum--><g class="link" data-entity-1="nfn" data-entity-2="sum" data-source-line="35" data-uid="lnk21" id="link_nfn_sum"><path d="M163.19,324.425 C178.41,333.205 195.48,342.035 212,348.415 C354.59,403.515 535.6595,426.7379 578.8595,431.7179" fill="none" id="nfn-to-sum" style="stroke:#181818;stroke-width:1;"/><polygon fill="#181818" points="584.82,432.405,576.3373,427.4007,579.8529,431.8324,575.4211,435.348,584.82,432.405" style="stroke:#181818;stroke-width:1;"/></g><!--link w1 to sum--><g class="link" data-entity-1="w1" data-entity-2="sum" data-source-line="37" data-uid="lnk22" id="link_w1_sum"><path d="M885.71,315.415 C875.87,326.725 862.92,339.685 849,348.415 C762.43,402.725 643.2793,425.3342 608.9393,431.0242" fill="none" id="w1-to-sum" style="stroke:#181818;stroke-width:1;stroke-dasharray:7,7;"/><polygon fill="#181818" points="603.02,432.005,612.5528,434.48,607.9527,431.1877,611.2451,426.5876,603.02,432.005" style="stroke:#181818;stroke-width:1;"/></g><!--link w2 to sum--><g class="link" data-entity-1="w2" data-entity-2="sum" data-source-line="38" data-uid="lnk23" id="link_w2_sum"><path d="M772.59,315.605 C762.73,326.295 750.38,338.685 738,348.415 C691.21,385.185 632.4243,414.9686 608.7043,426.4086" fill="none" id="w2-to-sum" style="stroke:#181818;stroke-width:1;stroke-dasharray:7,7;"/><polygon fill="#181818" points="603.3,429.015,613.1441,428.7082,607.8036,426.843,609.6688,421.5025,603.3,429.015" style="stroke:#181818;stroke-width:1;"/></g><!--link wn to sum--><g class="link" data-entity-1="wn" data-entity-2="sum" data-source-line="39" data-uid="lnk24" id="link_wn_sum"><path d="M667.27,315.595 C647.11,348.015 615.1175,399.4492 602.1575,420.2992" fill="none" id="wn-to-sum" style="stroke:#181818;stroke-width:1;stroke-dasharray:7,7;"/><polygon fill="#181818" points="598.99,425.395,607.1384,419.863,601.6296,421.1485,600.344,415.6397,598.99,425.395" style="stroke:#181818;stroke-width:1;"/></g><!--link sum to result--><g class="link" data-entity-1="sum" data-entity-2="result" data-source-line="41" data-uid="lnk25" id="link_sum_result"><path d="M594,443.425 C594,462.485 594,505.395 594,538.415" fill="none" id="sum-to-result" style="stroke:#181818;stroke-width:1;"/><polygon fill="#181818" points="594,544.415,598,535.415,594,539.415,590,535.415,594,544.415" style="stroke:#181818;stroke-width:1;"/></g><!--SRC=[bL6xJiD04EplAqwfe4WatmVGqD9J91IMOnCBUuriHouGKX8UGWfIf5GH4gBX0op08WyIVc7lZzZpNPn0QDBOevsTtPdRvCA7IpksGzwnePt5Vfgwm3qxI5oML5mOGUHquYXqTwYaOxUZp8Tpmx3KJmENunEkS8blME0C2zdZ-4M_0HK_CEUd9yUCGTHsUGqdiY_lolfI3h7WyXPpdAjMsPF36hzYd3VnTLFarXct4-vPEuJGXDWXG1F0hgkrpueWKpakS8gVcCjxdChHUjzVUaLHSWgaFCvQy8yVC8RsKGgZ57ihmIYt8ur9Gmyk7qYjbLCire76HFIDrSpQAcaFcTWgwU5PETlnOoTGqr_8ppTDdCi-7NKX7sb-BaSjeFlTa6loNLEof1ioriG9sHvGupj5odMxYl7hl2quK7rq-aADFIpNncxI3LB6F8lNwqVbith2GC4yC10ejcbH6y7qQ0mLPfd56msDCx61K456dxBTBFu1]--></g></svg>