<?xml version="1.0" encoding="utf-8" standalone="no"?>
<!DOCTYPE svg PUBLIC "-//W3C//DTD SVG 1.1//EN"
  "http://www.w3.org/Graphics/SVG/1.1/DTD/svg11.dtd">
<svg xmlns:xlink="http://www.w3.org/1999/xlink" width="792pt" height="432pt" viewBox="0 0 792 432" xmlns="http://www.w3.org/2000/svg" version="1.1">
 <metadata>
  <rdf:RDF xmlns:dc="http://purl.org/dc/elements/1.1/" xmlns:cc="http://creativecommons.org/ns#" xmlns:rdf="http://www.w3.org/1999/02/22-rdf-syntax-ns#">
   <cc:Work>
    <dc:type rdf:resource="http://purl.org/dc/dcmitype/StillImage"/>
    <dc:date>2025-12-25T15:39:15.724506</dc:date>
    <dc:format>image/svg+xml</dc:format>
    <dc:creator>
     <cc:Agent>
      <dc:title>Matplotlib v3.10.0, https://matplotlib.org/</dc:title>
     </cc:Agent>
    </dc:creator>
   </cc:Work>
  </rdf:RDF>
 </metadata>
 <defs>
  <style type="text/css">*{stroke-linejoin: round; stroke-linecap: butt}</style>
 </defs>
 <g id="figure_1">
  <g id="patch_1">
   <path d="M 0 432 
L 792 432 
L 792 0 
L 0 0 
z
" style="fill: #ffffff"/>
  </g>
  <g id="axes_1">
   <g id="patch_2">
    <path d="M 99 384.48 
L 712.8 384.48 
L 712.8 51.84 
L 99 51.84 
z
" style="fill: #ffffff"/>
   </g>
   <g id="patch_3">
    <path d="M 126.9 384.48 
L 132.48 384.48 
L 132.48 384.449425 
L 126.9 384.449425 
z
" clip-path="url(#p510effb357)" style="fill: #87ceeb; opacity: 0.5"/>
   </g>
   <g id="patch_4">
    <path d="M 132.48 384.48 
L 138.06 384.48 
L 138.06 384.411205 
L 132.48 384.411205 
z
" clip-path="url(#p510effb357)" style="fill: #87ceeb; opacity: 0.5"/>
   </g>
   <g id="patch_5">
    <path d="M 138.06 384.48 
L 143.64 384.48 
L 143.64 384.319479 
L 138.06 384.319479 
z
" clip-path="url(#p510effb357)" style="fill: #87ceeb; opacity: 0.5"/>
   </g>
   <g id="patch_6">
    <path d="M 143.64 384.48 
L 149.22 384.48 
L 149.22 384.212465 
L 143.64 384.212465 
z
" clip-path="url(#p510effb357)" style="fill: #87ceeb; opacity: 0.5"/>
   </g>
   <g id="patch_7">
    <path d="M 149.22 384.48 
L 154.8 384.48 
L 154.8 383.990793 
L 149.22 383.990793 
z
" clip-path="url(#p510effb357)" style="fill: #87ceeb; opacity: 0.5"/>
   </g>
   <g id="patch_8">
    <path d="M 154.8 384.48 
L 160.38 384.48 
L 160.38 383.417503 
L 154.8 383.417503 
z
" clip-path="url(#p510effb357)" style="fill: #87ceeb; opacity: 0.5"/>
   </g>
   <g id="patch_9">
    <path d="M 160.38 384.48 
L 165.96 384.48 
L 165.96 382.714267 
L 160.38 382.714267 
z
" clip-path="url(#p510effb357)" style="fill: #87ceeb; opacity: 0.5"/>
   </g>
   <g id="patch_10">
    <path d="M 165.96 384.48 
L 171.54 384.48 
L 171.54 381.055548 
L 165.96 381.055548 
z
" clip-path="url(#p510effb357)" style="fill: #87ceeb; opacity: 0.5"/>
   </g>
   <g id="patch_11">
    <path d="M 171.54 384.48 
L 177.12 384.48 
L 177.12 378.716526 
L 171.54 378.716526 
z
" clip-path="url(#p510effb357)" style="fill: #87ceeb; opacity: 0.5"/>
   </g>
   <g id="patch_12">
    <path d="M 177.12 384.48 
L 182.7 384.48 
L 182.7 374.695852 
L 177.12 374.695852 
z
" clip-path="url(#p510effb357)" style="fill: #87ceeb; opacity: 0.5"/>
   </g>
   <g id="patch_13">
    <path d="M 182.7 384.48 
L 188.28 384.48 
L 188.28 368.756569 
L 182.7 368.756569 
z
" clip-path="url(#p510effb357)" style="fill: #87ceeb; opacity: 0.5"/>
   </g>
   <g id="patch_14">
    <path d="M 188.28 384.48 
L 193.86 384.48 
L 193.86 359.415765 
L 188.28 359.415765 
z
" clip-path="url(#p510effb357)" style="fill: #87ceeb; opacity: 0.5"/>
   </g>
   <g id="patch_15">
    <path d="M 193.86 384.48 
L 199.44 384.48 
L 199.44 347.56013 
L 193.86 347.56013 
z
" clip-path="url(#p510effb357)" style="fill: #87ceeb; opacity: 0.5"/>
   </g>
   <g id="patch_16">
    <path d="M 199.44 384.48 
L 205.02 384.48 
L 205.02 330.674832 
L 199.44 330.674832 
z
" clip-path="url(#p510effb357)" style="fill: #87ceeb; opacity: 0.5"/>
   </g>
   <g id="patch_17">
    <path d="M 205.02 384.48 
L 210.6 384.48 
L 210.6 311.916786 
L 205.02 311.916786 
z
" clip-path="url(#p510effb357)" style="fill: #87ceeb; opacity: 0.5"/>
   </g>
   <g id="patch_18">
    <path d="M 210.6 384.48 
L 216.18 384.48 
L 216.18 287.853898 
L 210.6 287.853898 
z
" clip-path="url(#p510effb357)" style="fill: #87ceeb; opacity: 0.5"/>
   </g>
   <g id="patch_19">
    <path d="M 216.18 384.48 
L 221.76 384.48 
L 221.76 262.629142 
L 216.18 262.629142 
z
" clip-path="url(#p510effb357)" style="fill: #87ceeb; opacity: 0.5"/>
   </g>
   <g id="patch_20">
    <path d="M 221.76 384.48 
L 227.34 384.48 
L 227.34 236.020847 
L 221.76 236.020847 
z
" clip-path="url(#p510effb357)" style="fill: #87ceeb; opacity: 0.5"/>
   </g>
   <g id="patch_21">
    <path d="M 227.34 384.48 
L 232.92 384.48 
L 232.92 205.261933 
L 227.34 205.261933 
z
" clip-path="url(#p510effb357)" style="fill: #87ceeb; opacity: 0.5"/>
   </g>
   <g id="patch_22">
    <path d="M 232.92 384.48 
L 238.5 384.48 
L 238.5 175.901846 
L 232.92 175.901846 
z
" clip-path="url(#p510effb357)" style="fill: #87ceeb; opacity: 0.5"/>
   </g>
   <g id="patch_23">
    <path d="M 238.5 384.48 
L 244.08 384.48 
L 244.08 150.233746 
L 238.5 150.233746 
z
" clip-path="url(#p510effb357)" style="fill: #87ceeb; opacity: 0.5"/>
   </g>
   <g id="patch_24">
    <path d="M 244.08 384.48 
L 249.66 384.48 
L 249.66 127.516178 
L 244.08 127.516178 
z
" clip-path="url(#p510effb357)" style="fill: #87ceeb; opacity: 0.5"/>
   </g>
   <g id="patch_25">
    <path d="M 249.66 384.48 
L 255.24 384.48 
L 255.24 102.222628 
L 249.66 102.222628 
z
" clip-path="url(#p510effb357)" style="fill: #87ceeb; opacity: 0.5"/>
   </g>
   <g id="patch_26">
    <path d="M 255.24 384.48 
L 260.82 384.48 
L 260.82 84.702888 
L 255.24 84.702888 
z
" clip-path="url(#p510effb357)" style="fill: #87ceeb; opacity: 0.5"/>
   </g>
   <g id="patch_27">
    <path d="M 260.82 384.48 
L 266.4 384.48 
L 266.4 74.291944 
L 260.82 74.291944 
z
" clip-path="url(#p510effb357)" style="fill: #87ceeb; opacity: 0.5"/>
   </g>
   <g id="patch_28">
    <path d="M 266.4 384.48 
L 271.98 384.48 
L 271.98 68.092769 
L 266.4 68.092769 
z
" clip-path="url(#p510effb357)" style="fill: #87ceeb; opacity: 0.5"/>
   </g>
   <g id="patch_29">
    <path d="M 271.98 384.48 
L 277.56 384.48 
L 277.56 67.855809 
L 271.98 67.855809 
z
" clip-path="url(#p510effb357)" style="fill: #87ceeb; opacity: 0.5"/>
   </g>
   <g id="patch_30">
    <path d="M 277.56 384.48 
L 283.14 384.48 
L 283.14 67.68 
L 277.56 67.68 
z
" clip-path="url(#p510effb357)" style="fill: #87ceeb; opacity: 0.5"/>
   </g>
   <g id="patch_31">
    <path d="M 283.14 384.48 
L 288.72 384.48 
L 288.72 72.56443 
L 283.14 72.56443 
z
" clip-path="url(#p510effb357)" style="fill: #87ceeb; opacity: 0.5"/>
   </g>
   <g id="patch_32">
    <path d="M 288.72 384.48 
L 294.3 384.48 
L 294.3 82.318002 
L 288.72 82.318002 
z
" clip-path="url(#p510effb357)" style="fill: #87ceeb; opacity: 0.5"/>
   </g>
   <g id="patch_33">
    <path d="M 294.3 384.48 
L 299.88 384.48 
L 299.88 95.771205 
L 294.3 95.771205 
z
" clip-path="url(#p510effb357)" style="fill: #87ceeb; opacity: 0.5"/>
   </g>
   <g id="patch_34">
    <path d="M 299.88 384.48 
L 305.46 384.48 
L 305.46 110.325125 
L 299.88 110.325125 
z
" clip-path="url(#p510effb357)" style="fill: #87ceeb; opacity: 0.5"/>
   </g>
   <g id="patch_35">
    <path d="M 305.46 384.48 
L 311.04 384.48 
L 311.04 125.223018 
L 305.46 125.223018 
z
" clip-path="url(#p510effb357)" style="fill: #87ceeb; opacity: 0.5"/>
   </g>
   <g id="patch_36">
    <path d="M 311.04 384.48 
L 316.62 384.48 
L 316.62 139.318306 
L 311.04 139.318306 
z
" clip-path="url(#p510effb357)" style="fill: #87ceeb; opacity: 0.5"/>
   </g>
   <g id="patch_37">
    <path d="M 316.62 384.48 
L 322.2 384.48 
L 322.2 152.366384 
L 316.62 152.366384 
z
" clip-path="url(#p510effb357)" style="fill: #87ceeb; opacity: 0.5"/>
   </g>
   <g id="patch_38">
    <path d="M 322.2 384.48 
L 327.78 384.48 
L 327.78 172.813724 
L 322.2 172.813724 
z
" clip-path="url(#p510effb357)" style="fill: #87ceeb; opacity: 0.5"/>
   </g>
   <g id="patch_39">
    <path d="M 327.78 384.48 
L 333.36 384.48 
L 333.36 185.953529 
L 327.78 185.953529 
z
" clip-path="url(#p510effb357)" style="fill: #87ceeb; opacity: 0.5"/>
   </g>
   <g id="patch_40">
    <path d="M 333.36 384.48 
L 338.94 384.48 
L 338.94 204.26823 
L 333.36 204.26823 
z
" clip-path="url(#p510effb357)" style="fill: #87ceeb; opacity: 0.5"/>
   </g>
   <g id="patch_41">
    <path d="M 338.94 384.48 
L 344.52 384.48 
L 344.52 214.503366 
L 338.94 214.503366 
z
" clip-path="url(#p510effb357)" style="fill: #87ceeb; opacity: 0.5"/>
   </g>
   <g id="patch_42">
    <path d="M 344.52 384.48 
L 350.1 384.48 
L 350.1 229.149012 
L 344.52 229.149012 
z
" clip-path="url(#p510effb357)" style="fill: #87ceeb; opacity: 0.5"/>
   </g>
   <g id="patch_43">
    <path d="M 350.1 384.48 
L 355.68 384.48 
L 355.68 243.358958 
L 350.1 243.358958 
z
" clip-path="url(#p510effb357)" style="fill: #87ceeb; opacity: 0.5"/>
   </g>
   <g id="patch_44">
    <path d="M 355.68 384.48 
L 361.26 384.48 
L 361.26 254.473138 
L 355.68 254.473138 
z
" clip-path="url(#p510effb357)" style="fill: #87ceeb; opacity: 0.5"/>
   </g>
   <g id="patch_45">
    <path d="M 361.26 384.48 
L 366.84 384.48 
L 366.84 266.772117 
L 361.26 266.772117 
z
" clip-path="url(#p510effb357)" style="fill: #87ceeb; opacity: 0.5"/>
   </g>
   <g id="patch_46">
    <path d="M 366.84 384.48 
L 372.42 384.48 
L 372.42 274.599435 
L 366.84 274.599435 
z
" clip-path="url(#p510effb357)" style="fill: #87ceeb; opacity: 0.5"/>
   </g>
   <g id="patch_47">
    <path d="M 372.42 384.48 
L 378 384.48 
L 378 285.591314 
L 372.42 285.591314 
z
" clip-path="url(#p510effb357)" style="fill: #87ceeb; opacity: 0.5"/>
   </g>
   <g id="patch_48">
    <path d="M 378 384.48 
L 383.58 384.48 
L 383.58 291.668187 
L 378 291.668187 
z
" clip-path="url(#p510effb357)" style="fill: #87ceeb; opacity: 0.5"/>
   </g>
   <g id="patch_49">
    <path d="M 383.58 384.48 
L 389.16 384.48 
L 389.16 299.258545 
L 383.58 299.258545 
z
" clip-path="url(#p510effb357)" style="fill: #87ceeb; opacity: 0.5"/>
   </g>
   <g id="patch_50">
    <path d="M 389.16 384.48 
L 394.74 384.48 
L 394.74 305.954571 
L 389.16 305.954571 
z
" clip-path="url(#p510effb357)" style="fill: #87ceeb; opacity: 0.5"/>
   </g>
   <g id="patch_51">
    <path d="M 394.74 384.48 
L 400.32 384.48 
L 400.32 313.453203 
L 394.74 313.453203 
z
" clip-path="url(#p510effb357)" style="fill: #87ceeb; opacity: 0.5"/>
   </g>
   <g id="patch_52">
    <path d="M 400.32 384.48 
L 405.9 384.48 
L 405.9 319.025581 
L 400.32 319.025581 
z
" clip-path="url(#p510effb357)" style="fill: #87ceeb; opacity: 0.5"/>
   </g>
   <g id="patch_53">
    <path d="M 405.9 384.48 
L 411.48 384.48 
L 411.48 323.397872 
L 405.9 323.397872 
z
" clip-path="url(#p510effb357)" style="fill: #87ceeb; opacity: 0.5"/>
   </g>
   <g id="patch_54">
    <path d="M 411.48 384.48 
L 417.06 384.48 
L 417.06 329.146059 
L 411.48 329.146059 
z
" clip-path="url(#p510effb357)" style="fill: #87ceeb; opacity: 0.5"/>
   </g>
   <g id="patch_55">
    <path d="M 417.06 384.48 
L 422.64 384.48 
L 422.64 334.703149 
L 417.06 334.703149 
z
" clip-path="url(#p510effb357)" style="fill: #87ceeb; opacity: 0.5"/>
   </g>
   <g id="patch_56">
    <path d="M 422.64 384.48 
L 428.22 384.48 
L 428.22 336.912226 
L 422.64 336.912226 
z
" clip-path="url(#p510effb357)" style="fill: #87ceeb; opacity: 0.5"/>
   </g>
   <g id="patch_57">
    <path d="M 428.22 384.48 
L 433.8 384.48 
L 433.8 342.209425 
L 428.22 342.209425 
z
" clip-path="url(#p510effb357)" style="fill: #87ceeb; opacity: 0.5"/>
   </g>
   <g id="patch_58">
    <path d="M 433.8 384.48 
L 439.38 384.48 
L 439.38 345.144669 
L 433.8 345.144669 
z
" clip-path="url(#p510effb357)" style="fill: #87ceeb; opacity: 0.5"/>
   </g>
   <g id="patch_59">
    <path d="M 439.38 384.48 
L 444.96 384.48 
L 444.96 348.079913 
L 439.38 348.079913 
z
" clip-path="url(#p510effb357)" style="fill: #87ceeb; opacity: 0.5"/>
   </g>
   <g id="patch_60">
    <path d="M 444.96 384.48 
L 450.54 384.48 
L 450.54 351.588447 
L 444.96 351.588447 
z
" clip-path="url(#p510effb357)" style="fill: #87ceeb; opacity: 0.5"/>
   </g>
   <g id="patch_61">
    <path d="M 450.54 384.48 
L 456.12 384.48 
L 456.12 354.317307 
L 450.54 354.317307 
z
" clip-path="url(#p510effb357)" style="fill: #87ceeb; opacity: 0.5"/>
   </g>
   <g id="patch_62">
    <path d="M 456.12 384.48 
L 461.7 384.48 
L 461.7 357.543018 
L 456.12 357.543018 
z
" clip-path="url(#p510effb357)" style="fill: #87ceeb; opacity: 0.5"/>
   </g>
   <g id="patch_63">
    <path d="M 461.7 384.48 
L 467.28 384.48 
L 467.28 360.569989 
L 461.7 360.569989 
z
" clip-path="url(#p510effb357)" style="fill: #87ceeb; opacity: 0.5"/>
   </g>
   <g id="patch_64">
    <path d="M 467.28 384.48 
L 472.86 384.48 
L 472.86 362.725559 
L 467.28 362.725559 
z
" clip-path="url(#p510effb357)" style="fill: #87ceeb; opacity: 0.5"/>
   </g>
   <g id="patch_65">
    <path d="M 472.86 384.48 
L 478.44 384.48 
L 478.44 364.980499 
L 472.86 364.980499 
z
" clip-path="url(#p510effb357)" style="fill: #87ceeb; opacity: 0.5"/>
   </g>
   <g id="patch_66">
    <path d="M 478.44 384.48 
L 484.02 384.48 
L 484.02 366.685081 
L 478.44 366.685081 
z
" clip-path="url(#p510effb357)" style="fill: #87ceeb; opacity: 0.5"/>
   </g>
   <g id="patch_67">
    <path d="M 484.02 384.48 
L 489.6 384.48 
L 489.6 368.450814 
L 484.02 368.450814 
z
" clip-path="url(#p510effb357)" style="fill: #87ceeb; opacity: 0.5"/>
   </g>
   <g id="patch_68">
    <path d="M 489.6 384.48 
L 495.18 384.48 
L 495.18 368.985885 
L 489.6 368.985885 
z
" clip-path="url(#p510effb357)" style="fill: #87ceeb; opacity: 0.5"/>
   </g>
   <g id="patch_69">
    <path d="M 495.18 384.48 
L 500.76 384.48 
L 500.76 371.248469 
L 495.18 371.248469 
z
" clip-path="url(#p510effb357)" style="fill: #87ceeb; opacity: 0.5"/>
   </g>
   <g id="patch_70">
    <path d="M 500.76 384.48 
L 506.34 384.48 
L 506.34 372.914832 
L 500.76 372.914832 
z
" clip-path="url(#p510effb357)" style="fill: #87ceeb; opacity: 0.5"/>
   </g>
   <g id="patch_71">
    <path d="M 506.34 384.48 
L 511.92 384.48 
L 511.92 373.839739 
L 506.34 373.839739 
z
" clip-path="url(#p510effb357)" style="fill: #87ceeb; opacity: 0.5"/>
   </g>
   <g id="patch_72">
    <path d="M 511.92 384.48 
L 517.5 384.48 
L 517.5 375.506102 
L 511.92 375.506102 
z
" clip-path="url(#p510effb357)" style="fill: #87ceeb; opacity: 0.5"/>
   </g>
   <g id="patch_73">
    <path d="M 517.5 384.48 
L 523.08 384.48 
L 523.08 376.171118 
L 517.5 376.171118 
z
" clip-path="url(#p510effb357)" style="fill: #87ceeb; opacity: 0.5"/>
   </g>
   <g id="patch_74">
    <path d="M 523.08 384.48 
L 528.66 384.48 
L 528.66 377.325342 
L 523.08 377.325342 
z
" clip-path="url(#p510effb357)" style="fill: #87ceeb; opacity: 0.5"/>
   </g>
   <g id="patch_75">
    <path d="M 528.66 384.48 
L 534.24 384.48 
L 534.24 377.707535 
L 528.66 377.707535 
z
" clip-path="url(#p510effb357)" style="fill: #87ceeb; opacity: 0.5"/>
   </g>
   <g id="patch_76">
    <path d="M 534.24 384.48 
L 539.82 384.48 
L 539.82 378.624799 
L 534.24 378.624799 
z
" clip-path="url(#p510effb357)" style="fill: #87ceeb; opacity: 0.5"/>
   </g>
   <g id="patch_77">
    <path d="M 539.82 384.48 
L 545.4 384.48 
L 545.4 379.435049 
L 539.82 379.435049 
z
" clip-path="url(#p510effb357)" style="fill: #87ceeb; opacity: 0.5"/>
   </g>
   <g id="patch_78">
    <path d="M 545.4 384.48 
L 550.98 384.48 
L 550.98 380.298806 
L 545.4 380.298806 
z
" clip-path="url(#p510effb357)" style="fill: #87ceeb; opacity: 0.5"/>
   </g>
   <g id="patch_79">
    <path d="M 550.98 384.48 
L 556.56 384.48 
L 556.56 380.64278 
L 550.98 380.64278 
z
" clip-path="url(#p510effb357)" style="fill: #87ceeb; opacity: 0.5"/>
   </g>
   <g id="patch_80">
    <path d="M 556.56 384.48 
L 562.14 384.48 
L 562.14 381.269577 
L 556.56 381.269577 
z
" clip-path="url(#p510effb357)" style="fill: #87ceeb; opacity: 0.5"/>
   </g>
   <g id="patch_81">
    <path d="M 562.14 384.48 
L 567.72 384.48 
L 567.72 381.644126 
L 562.14 381.644126 
z
" clip-path="url(#p510effb357)" style="fill: #87ceeb; opacity: 0.5"/>
   </g>
   <g id="patch_82">
    <path d="M 567.72 384.48 
L 573.3 384.48 
L 573.3 382.18684 
L 567.72 382.18684 
z
" clip-path="url(#p510effb357)" style="fill: #87ceeb; opacity: 0.5"/>
   </g>
   <g id="patch_83">
    <path d="M 573.3 384.48 
L 578.88 384.48 
L 578.88 382.416156 
L 573.3 382.416156 
z
" clip-path="url(#p510effb357)" style="fill: #87ceeb; opacity: 0.5"/>
   </g>
   <g id="patch_84">
    <path d="M 578.88 384.48 
L 584.46 384.48 
L 584.46 382.737199 
L 578.88 382.737199 
z
" clip-path="url(#p510effb357)" style="fill: #87ceeb; opacity: 0.5"/>
   </g>
   <g id="patch_85">
    <path d="M 584.46 384.48 
L 590.04 384.48 
L 590.04 383.042953 
L 584.46 383.042953 
z
" clip-path="url(#p510effb357)" style="fill: #87ceeb; opacity: 0.5"/>
   </g>
   <g id="patch_86">
    <path d="M 590.04 384.48 
L 595.62 384.48 
L 595.62 383.417503 
L 590.04 383.417503 
z
" clip-path="url(#p510effb357)" style="fill: #87ceeb; opacity: 0.5"/>
   </g>
   <g id="patch_87">
    <path d="M 595.62 384.48 
L 601.2 384.48 
L 601.2 383.593312 
L 595.62 383.593312 
z
" clip-path="url(#p510effb357)" style="fill: #87ceeb; opacity: 0.5"/>
   </g>
   <g id="patch_88">
    <path d="M 601.2 384.48 
L 606.78 384.48 
L 606.78 383.608599 
L 601.2 383.608599 
z
" clip-path="url(#p510effb357)" style="fill: #87ceeb; opacity: 0.5"/>
   </g>
   <g id="patch_89">
    <path d="M 606.78 384.48 
L 612.36 384.48 
L 612.36 383.914354 
L 606.78 383.914354 
z
" clip-path="url(#p510effb357)" style="fill: #87ceeb; opacity: 0.5"/>
   </g>
   <g id="patch_90">
    <path d="M 612.36 384.48 
L 617.94 384.48 
L 617.94 383.944929 
L 612.36 383.944929 
z
" clip-path="url(#p510effb357)" style="fill: #87ceeb; opacity: 0.5"/>
   </g>
   <g id="patch_91">
    <path d="M 617.94 384.48 
L 623.52 384.48 
L 623.52 384.0443 
L 617.94 384.0443 
z
" clip-path="url(#p510effb357)" style="fill: #87ceeb; opacity: 0.5"/>
   </g>
   <g id="patch_92">
    <path d="M 623.52 384.48 
L 629.1 384.48 
L 629.1 384.082519 
L 623.52 384.082519 
z
" clip-path="url(#p510effb357)" style="fill: #87ceeb; opacity: 0.5"/>
   </g>
   <g id="patch_93">
    <path d="M 629.1 384.48 
L 634.68 384.48 
L 634.68 384.265972 
L 629.1 384.265972 
z
" clip-path="url(#p510effb357)" style="fill: #87ceeb; opacity: 0.5"/>
   </g>
   <g id="patch_94">
    <path d="M 634.68 384.48 
L 640.26 384.48 
L 640.26 384.319479 
L 634.68 384.319479 
z
" clip-path="url(#p510effb357)" style="fill: #87ceeb; opacity: 0.5"/>
   </g>
   <g id="patch_95">
    <path d="M 640.26 384.48 
L 645.84 384.48 
L 645.84 384.288903 
L 640.26 384.288903 
z
" clip-path="url(#p510effb357)" style="fill: #87ceeb; opacity: 0.5"/>
   </g>
   <g id="patch_96">
    <path d="M 645.84 384.48 
L 651.42 384.48 
L 651.42 384.357698 
L 645.84 384.357698 
z
" clip-path="url(#p510effb357)" style="fill: #87ceeb; opacity: 0.5"/>
   </g>
   <g id="patch_97">
    <path d="M 651.42 384.48 
L 657 384.48 
L 657 384.388274 
L 651.42 384.388274 
z
" clip-path="url(#p510effb357)" style="fill: #87ceeb; opacity: 0.5"/>
   </g>
   <g id="patch_98">
    <path d="M 657 384.48 
L 662.58 384.48 
L 662.58 384.365342 
L 657 384.365342 
z
" clip-path="url(#p510effb357)" style="fill: #87ceeb; opacity: 0.5"/>
   </g>
   <g id="patch_99">
    <path d="M 662.58 384.48 
L 668.16 384.48 
L 668.16 384.418849 
L 662.58 384.418849 
z
" clip-path="url(#p510effb357)" style="fill: #87ceeb; opacity: 0.5"/>
   </g>
   <g id="patch_100">
    <path d="M 668.16 384.48 
L 673.74 384.48 
L 673.74 384.434137 
L 668.16 384.434137 
z
" clip-path="url(#p510effb357)" style="fill: #87ceeb; opacity: 0.5"/>
   </g>
   <g id="patch_101">
    <path d="M 673.74 384.48 
L 679.32 384.48 
L 679.32 384.472356 
L 673.74 384.472356 
z
" clip-path="url(#p510effb357)" style="fill: #87ceeb; opacity: 0.5"/>
   </g>
   <g id="patch_102">
    <path d="M 679.32 384.48 
L 684.9 384.48 
L 684.9 384.457068 
L 679.32 384.457068 
z
" clip-path="url(#p510effb357)" style="fill: #87ceeb; opacity: 0.5"/>
   </g>
   <g id="matplotlib.axis_1">
    <g id="xtick_1">
     <g id="line2d_1">
      <defs>
       <path id="md14cdad560" d="M 0 0 
L 0 3.5 
" style="stroke: #000000; stroke-width: 0.8"/>
      </defs>
      <g>
       <use xlink:href="#md14cdad560" x="173.067737" y="384.48" style="stroke: #000000; stroke-width: 0.8"/>
      </g>
     </g>
     <g id="text_1">
      <!-- −2 -->
      <g transform="translate(165.696643 399.078438) scale(0.1 -0.1)">
       <defs>
        <path id="DejaVuSans-2212" d="M 678 2272 
L 4684 2272 
L 4684 1741 
L 678 1741 
L 678 2272 
z
" transform="scale(0.015625)"/>
        <path id="DejaVuSans-32" d="M 1228 531 
L 3431 531 
L 3431 0 
L 469 0 
L 469 531 
Q 828 903 1448 1529 
Q 2069 2156 2228 2338 
Q 2531 2678 2651 2914 
Q 2772 3150 2772 3378 
Q 2772 3750 2511 3984 
Q 2250 4219 1831 4219 
Q 1534 4219 1204 4116 
Q 875 4013 500 3803 
L 500 4441 
Q 881 4594 1212 4672 
Q 1544 4750 1819 4750 
Q 2544 4750 2975 4387 
Q 3406 4025 3406 3419 
Q 3406 3131 3298 2873 
Q 3191 2616 2906 2266 
Q 2828 2175 2409 1742 
Q 1991 1309 1228 531 
z
" transform="scale(0.015625)"/>
       </defs>
       <use xlink:href="#DejaVuSans-2212"/>
       <use xlink:href="#DejaVuSans-32" transform="translate(83.789062 0)"/>
      </g>
     </g>
    </g>
    <g id="xtick_2">
     <g id="line2d_2">
      <g>
       <use xlink:href="#md14cdad560" x="275.640079" y="384.48" style="stroke: #000000; stroke-width: 0.8"/>
      </g>
     </g>
     <g id="text_2">
      <!-- 0 -->
      <g transform="translate(272.458829 399.078438) scale(0.1 -0.1)">
       <defs>
        <path id="DejaVuSans-30" d="M 2034 4250 
Q 1547 4250 1301 3770 
Q 1056 3291 1056 2328 
Q 1056 1369 1301 889 
Q 1547 409 2034 409 
Q 2525 409 2770 889 
Q 3016 1369 3016 2328 
Q 3016 3291 2770 3770 
Q 2525 4250 2034 4250 
z
M 2034 4750 
Q 2819 4750 3233 4129 
Q 3647 3509 3647 2328 
Q 3647 1150 3233 529 
Q 2819 -91 2034 -91 
Q 1250 -91 836 529 
Q 422 1150 422 2328 
Q 422 3509 836 4129 
Q 1250 4750 2034 4750 
z
" transform="scale(0.015625)"/>
       </defs>
       <use xlink:href="#DejaVuSans-30"/>
      </g>
     </g>
    </g>
    <g id="xtick_3">
     <g id="line2d_3">
      <g>
       <use xlink:href="#md14cdad560" x="378.212422" y="384.48" style="stroke: #000000; stroke-width: 0.8"/>
      </g>
     </g>
     <g id="text_3">
      <!-- 2 -->
      <g transform="translate(375.031172 399.078438) scale(0.1 -0.1)">
       <use xlink:href="#DejaVuSans-32"/>
      </g>
     </g>
    </g>
    <g id="xtick_4">
     <g id="line2d_4">
      <g>
       <use xlink:href="#md14cdad560" x="480.784765" y="384.48" style="stroke: #000000; stroke-width: 0.8"/>
      </g>
     </g>
     <g id="text_4">
      <!-- 4 -->
      <g transform="translate(477.603515 399.078438) scale(0.1 -0.1)">
       <defs>
        <path id="DejaVuSans-34" d="M 2419 4116 
L 825 1625 
L 2419 1625 
L 2419 4116 
z
M 2253 4666 
L 3047 4666 
L 3047 1625 
L 3713 1625 
L 3713 1100 
L 3047 1100 
L 3047 0 
L 2419 0 
L 2419 1100 
L 313 1100 
L 313 1709 
L 2253 4666 
z
" transform="scale(0.015625)"/>
       </defs>
       <use xlink:href="#DejaVuSans-34"/>
      </g>
     </g>
    </g>
    <g id="xtick_5">
     <g id="line2d_5">
      <g>
       <use xlink:href="#md14cdad560" x="583.357107" y="384.48" style="stroke: #000000; stroke-width: 0.8"/>
      </g>
     </g>
     <g id="text_5">
      <!-- 6 -->
      <g transform="translate(580.175857 399.078438) scale(0.1 -0.1)">
       <defs>
        <path id="DejaVuSans-36" d="M 2113 2584 
Q 1688 2584 1439 2293 
Q 1191 2003 1191 1497 
Q 1191 994 1439 701 
Q 1688 409 2113 409 
Q 2538 409 2786 701 
Q 3034 994 3034 1497 
Q 3034 2003 2786 2293 
Q 2538 2584 2113 2584 
z
M 3366 4563 
L 3366 3988 
Q 3128 4100 2886 4159 
Q 2644 4219 2406 4219 
Q 1781 4219 1451 3797 
Q 1122 3375 1075 2522 
Q 1259 2794 1537 2939 
Q 1816 3084 2150 3084 
Q 2853 3084 3261 2657 
Q 3669 2231 3669 1497 
Q 3669 778 3244 343 
Q 2819 -91 2113 -91 
Q 1303 -91 875 529 
Q 447 1150 447 2328 
Q 447 3434 972 4092 
Q 1497 4750 2381 4750 
Q 2619 4750 2861 4703 
Q 3103 4656 3366 4563 
z
" transform="scale(0.015625)"/>
       </defs>
       <use xlink:href="#DejaVuSans-36"/>
      </g>
     </g>
    </g>
    <g id="xtick_6">
     <g id="line2d_6">
      <g>
       <use xlink:href="#md14cdad560" x="685.92945" y="384.48" style="stroke: #000000; stroke-width: 0.8"/>
      </g>
     </g>
     <g id="text_6">
      <!-- 8 -->
      <g transform="translate(682.7482 399.078438) scale(0.1 -0.1)">
       <defs>
        <path id="DejaVuSans-38" d="M 2034 2216 
Q 1584 2216 1326 1975 
Q 1069 1734 1069 1313 
Q 1069 891 1326 650 
Q 1584 409 2034 409 
Q 2484 409 2743 651 
Q 3003 894 3003 1313 
Q 3003 1734 2745 1975 
Q 2488 2216 2034 2216 
z
M 1403 2484 
Q 997 2584 770 2862 
Q 544 3141 544 3541 
Q 544 4100 942 4425 
Q 1341 4750 2034 4750 
Q 2731 4750 3128 4425 
Q 3525 4100 3525 3541 
Q 3525 3141 3298 2862 
Q 3072 2584 2669 2484 
Q 3125 2378 3379 2068 
Q 3634 1759 3634 1313 
Q 3634 634 3220 271 
Q 2806 -91 2034 -91 
Q 1263 -91 848 271 
Q 434 634 434 1313 
Q 434 1759 690 2068 
Q 947 2378 1403 2484 
z
M 1172 3481 
Q 1172 3119 1398 2916 
Q 1625 2713 2034 2713 
Q 2441 2713 2670 2916 
Q 2900 3119 2900 3481 
Q 2900 3844 2670 4047 
Q 2441 4250 2034 4250 
Q 1625 4250 1398 4047 
Q 1172 3844 1172 3481 
z
" transform="scale(0.015625)"/>
       </defs>
       <use xlink:href="#DejaVuSans-38"/>
      </g>
     </g>
    </g>
    <g id="text_7">
     <!-- Стандартизованная переменная $z$ -->
     <g transform="translate(315.1 412.73625) scale(0.1 -0.1)">
      <defs>
       <path id="DejaVuSans-421" d="M 4122 4306 
L 4122 3641 
Q 3803 3938 3442 4084 
Q 3081 4231 2675 4231 
Q 1875 4231 1450 3742 
Q 1025 3253 1025 2328 
Q 1025 1406 1450 917 
Q 1875 428 2675 428 
Q 3081 428 3442 575 
Q 3803 722 4122 1019 
L 4122 359 
Q 3791 134 3420 21 
Q 3050 -91 2638 -91 
Q 1578 -91 968 557 
Q 359 1206 359 2328 
Q 359 3453 968 4101 
Q 1578 4750 2638 4750 
Q 3056 4750 3426 4639 
Q 3797 4528 4122 4306 
z
" transform="scale(0.015625)"/>
       <path id="DejaVuSans-442" d="M 188 3500 
L 3541 3500 
L 3541 3041 
L 2147 3041 
L 2147 0 
L 1581 0 
L 1581 3041 
L 188 3041 
L 188 3500 
z
" transform="scale(0.015625)"/>
       <path id="DejaVuSans-430" d="M 2194 1759 
Q 1497 1759 1228 1600 
Q 959 1441 959 1056 
Q 959 750 1161 570 
Q 1363 391 1709 391 
Q 2188 391 2477 730 
Q 2766 1069 2766 1631 
L 2766 1759 
L 2194 1759 
z
M 3341 1997 
L 3341 0 
L 2766 0 
L 2766 531 
Q 2569 213 2275 61 
Q 1981 -91 1556 -91 
Q 1019 -91 701 211 
Q 384 513 384 1019 
Q 384 1609 779 1909 
Q 1175 2209 1959 2209 
L 2766 2209 
L 2766 2266 
Q 2766 2663 2505 2880 
Q 2244 3097 1772 3097 
Q 1472 3097 1187 3025 
Q 903 2953 641 2809 
L 641 3341 
Q 956 3463 1253 3523 
Q 1550 3584 1831 3584 
Q 2591 3584 2966 3190 
Q 3341 2797 3341 1997 
z
" transform="scale(0.015625)"/>
       <path id="DejaVuSans-43d" d="M 581 3500 
L 1159 3500 
L 1159 2072 
L 3025 2072 
L 3025 3500 
L 3603 3500 
L 3603 0 
L 3025 0 
L 3025 1613 
L 1159 1613 
L 1159 0 
L 581 0 
L 581 3500 
z
" transform="scale(0.015625)"/>
       <path id="DejaVuSans-434" d="M 1384 459 
L 3053 459 
L 3053 3041 
L 1844 3041 
L 1844 2603 
Q 1844 1316 1475 628 
L 1384 459 
z
M 550 459 
Q 834 584 959 850 
Q 1266 1509 1266 2838 
L 1266 3500 
L 3631 3500 
L 3631 459 
L 4091 459 
L 4091 -884 
L 3631 -884 
L 3631 0 
L 794 0 
L 794 -884 
L 334 -884 
L 334 459 
L 550 459 
z
" transform="scale(0.015625)"/>
       <path id="DejaVuSans-440" d="M 1159 525 
L 1159 -1331 
L 581 -1331 
L 581 3500 
L 1159 3500 
L 1159 2969 
Q 1341 3281 1617 3432 
Q 1894 3584 2278 3584 
Q 2916 3584 3314 3078 
Q 3713 2572 3713 1747 
Q 3713 922 3314 415 
Q 2916 -91 2278 -91 
Q 1894 -91 1617 61 
Q 1341 213 1159 525 
z
M 3116 1747 
Q 3116 2381 2855 2742 
Q 2594 3103 2138 3103 
Q 1681 3103 1420 2742 
Q 1159 2381 1159 1747 
Q 1159 1113 1420 752 
Q 1681 391 2138 391 
Q 2594 391 2855 752 
Q 3116 1113 3116 1747 
z
" transform="scale(0.015625)"/>
       <path id="DejaVuSans-438" d="M 3578 3500 
L 3578 0 
L 3006 0 
L 3006 2809 
L 1319 0 
L 581 0 
L 581 3500 
L 1153 3500 
L 1153 697 
L 2838 3500 
L 3578 3500 
z
" transform="scale(0.015625)"/>
       <path id="DejaVuSans-437" d="M 2206 1888 
Q 2594 1813 2809 1584 
Q 3025 1356 3025 1019 
Q 3025 478 2622 193 
Q 2219 -91 1475 -91 
Q 1225 -91 961 -47 
Q 697 -3 416 84 
L 416 619 
Q 638 503 903 445 
Q 1169 388 1459 388 
Q 1931 388 2195 563 
Q 2459 738 2459 1019 
Q 2459 1294 2225 1461 
Q 1991 1628 1563 1628 
L 1100 1628 
L 1100 2103 
L 1584 2103 
Q 1947 2103 2158 2242 
Q 2369 2381 2369 2600 
Q 2369 2800 2151 2944 
Q 1934 3088 1563 3088 
Q 1341 3088 1089 3047 
Q 838 3006 534 2916 
L 534 3438 
Q 841 3513 1106 3550 
Q 1372 3588 1609 3588 
Q 2222 3588 2576 3342 
Q 2931 3097 2931 2656 
Q 2931 2366 2743 2164 
Q 2556 1963 2206 1888 
z
" transform="scale(0.015625)"/>
       <path id="DejaVuSans-43e" d="M 1959 3097 
Q 1497 3097 1228 2736 
Q 959 2375 959 1747 
Q 959 1119 1226 758 
Q 1494 397 1959 397 
Q 2419 397 2687 759 
Q 2956 1122 2956 1747 
Q 2956 2369 2687 2733 
Q 2419 3097 1959 3097 
z
M 1959 3584 
Q 2709 3584 3137 3096 
Q 3566 2609 3566 1747 
Q 3566 888 3137 398 
Q 2709 -91 1959 -91 
Q 1206 -91 779 398 
Q 353 888 353 1747 
Q 353 2609 779 3096 
Q 1206 3584 1959 3584 
z
" transform="scale(0.015625)"/>
       <path id="DejaVuSans-432" d="M 1156 1613 
L 1156 459 
L 1975 459 
Q 2369 459 2575 607 
Q 2781 756 2781 1038 
Q 2781 1319 2575 1466 
Q 2369 1613 1975 1613 
L 1156 1613 
z
M 1156 3041 
L 1156 2072 
L 1913 2072 
Q 2238 2072 2444 2201 
Q 2650 2331 2650 2563 
Q 2650 2794 2444 2917 
Q 2238 3041 1913 3041 
L 1156 3041 
z
M 581 3500 
L 1950 3500 
Q 2566 3500 2897 3275 
Q 3228 3050 3228 2634 
Q 3228 2313 3059 2123 
Q 2891 1934 2559 1888 
Q 2956 1813 3175 1575 
Q 3394 1338 3394 981 
Q 3394 513 3033 256 
Q 2672 0 2003 0 
L 581 0 
L 581 3500 
z
" transform="scale(0.015625)"/>
       <path id="DejaVuSans-44f" d="M 1181 2491 
Q 1181 2231 1381 2084 
Q 1581 1938 1953 1938 
L 2728 1938 
L 2728 3041 
L 1953 3041 
Q 1581 3041 1381 2897 
Q 1181 2753 1181 2491 
z
M 363 0 
L 1431 1534 
Q 1069 1616 828 1830 
Q 588 2044 588 2491 
Q 588 2997 923 3248 
Q 1259 3500 1938 3500 
L 3306 3500 
L 3306 0 
L 2728 0 
L 2728 1478 
L 2013 1478 
L 981 0 
L 363 0 
z
" transform="scale(0.015625)"/>
       <path id="DejaVuSans-20" transform="scale(0.015625)"/>
       <path id="DejaVuSans-43f" d="M 3603 3500 
L 3603 0 
L 3025 0 
L 3025 3041 
L 1159 3041 
L 1159 0 
L 581 0 
L 581 3500 
L 3603 3500 
z
" transform="scale(0.015625)"/>
       <path id="DejaVuSans-435" d="M 3597 1894 
L 3597 1613 
L 953 1613 
Q 991 1019 1311 708 
Q 1631 397 2203 397 
Q 2534 397 2845 478 
Q 3156 559 3463 722 
L 3463 178 
Q 3153 47 2828 -22 
Q 2503 -91 2169 -91 
Q 1331 -91 842 396 
Q 353 884 353 1716 
Q 353 2575 817 3079 
Q 1281 3584 2069 3584 
Q 2775 3584 3186 3129 
Q 3597 2675 3597 1894 
z
M 3022 2063 
Q 3016 2534 2758 2815 
Q 2500 3097 2075 3097 
Q 1594 3097 1305 2825 
Q 1016 2553 972 2059 
L 3022 2063 
z
" transform="scale(0.015625)"/>
       <path id="DejaVuSans-43c" d="M 581 3500 
L 1422 3500 
L 2416 1156 
L 3413 3500 
L 4247 3500 
L 4247 0 
L 3669 0 
L 3669 2950 
L 2703 672 
L 2128 672 
L 1159 2950 
L 1159 0 
L 581 0 
L 581 3500 
z
" transform="scale(0.015625)"/>
       <path id="DejaVuSans-Oblique-7a" d="M 744 3500 
L 3475 3500 
L 3372 2975 
L 738 459 
L 2913 459 
L 2822 0 
L -19 0 
L 84 525 
L 2719 3041 
L 653 3041 
L 744 3500 
z
" transform="scale(0.015625)"/>
      </defs>
      <use xlink:href="#DejaVuSans-421" transform="translate(0 0.78125)"/>
      <use xlink:href="#DejaVuSans-442" transform="translate(69.824219 0.78125)"/>
      <use xlink:href="#DejaVuSans-430" transform="translate(128.076172 0.78125)"/>
      <use xlink:href="#DejaVuSans-43d" transform="translate(189.355469 0.78125)"/>
      <use xlink:href="#DejaVuSans-434" transform="translate(254.736328 0.78125)"/>
      <use xlink:href="#DejaVuSans-430" transform="translate(323.876953 0.78125)"/>
      <use xlink:href="#DejaVuSans-440" transform="translate(385.15625 0.78125)"/>
      <use xlink:href="#DejaVuSans-442" transform="translate(448.632812 0.78125)"/>
      <use xlink:href="#DejaVuSans-438" transform="translate(506.884766 0.78125)"/>
      <use xlink:href="#DejaVuSans-437" transform="translate(571.875 0.78125)"/>
      <use xlink:href="#DejaVuSans-43e" transform="translate(625.048828 0.78125)"/>
      <use xlink:href="#DejaVuSans-432" transform="translate(686.230469 0.78125)"/>
      <use xlink:href="#DejaVuSans-430" transform="translate(745.166016 0.78125)"/>
      <use xlink:href="#DejaVuSans-43d" transform="translate(806.445312 0.78125)"/>
      <use xlink:href="#DejaVuSans-43d" transform="translate(871.826172 0.78125)"/>
      <use xlink:href="#DejaVuSans-430" transform="translate(937.207031 0.78125)"/>
      <use xlink:href="#DejaVuSans-44f" transform="translate(998.486328 0.78125)"/>
      <use xlink:href="#DejaVuSans-20" transform="translate(1058.642578 0.78125)"/>
      <use xlink:href="#DejaVuSans-43f" transform="translate(1090.429688 0.78125)"/>
      <use xlink:href="#DejaVuSans-435" transform="translate(1155.810547 0.78125)"/>
      <use xlink:href="#DejaVuSans-440" transform="translate(1217.333984 0.78125)"/>
      <use xlink:href="#DejaVuSans-435" transform="translate(1280.810547 0.78125)"/>
      <use xlink:href="#DejaVuSans-43c" transform="translate(1342.333984 0.78125)"/>
      <use xlink:href="#DejaVuSans-435" transform="translate(1417.773438 0.78125)"/>
      <use xlink:href="#DejaVuSans-43d" transform="translate(1479.296875 0.78125)"/>
      <use xlink:href="#DejaVuSans-43d" transform="translate(1544.677734 0.78125)"/>
      <use xlink:href="#DejaVuSans-430" transform="translate(1610.058594 0.78125)"/>
      <use xlink:href="#DejaVuSans-44f" transform="translate(1671.337891 0.78125)"/>
      <use xlink:href="#DejaVuSans-20" transform="translate(1731.494141 0.78125)"/>
      <use xlink:href="#DejaVuSans-Oblique-7a" transform="translate(1763.28125 0.78125)"/>
     </g>
    </g>
   </g>
   <g id="matplotlib.axis_2">
    <g id="ytick_1">
     <g id="line2d_7">
      <defs>
       <path id="m25e668149b" d="M 0 0 
L -3.5 0 
" style="stroke: #000000; stroke-width: 0.8"/>
      </defs>
      <g>
       <use xlink:href="#m25e668149b" x="99" y="384.48" style="stroke: #000000; stroke-width: 0.8"/>
      </g>
     </g>
     <g id="text_8">
      <!-- 0.00 -->
      <g transform="translate(69.734375 388.279219) scale(0.1 -0.1)">
       <defs>
        <path id="DejaVuSans-2e" d="M 684 794 
L 1344 794 
L 1344 0 
L 684 0 
L 684 794 
z
" transform="scale(0.015625)"/>
       </defs>
       <use xlink:href="#DejaVuSans-30"/>
       <use xlink:href="#DejaVuSans-2e" transform="translate(63.623047 0)"/>
       <use xlink:href="#DejaVuSans-30" transform="translate(95.410156 0)"/>
       <use xlink:href="#DejaVuSans-30" transform="translate(159.033203 0)"/>
      </g>
     </g>
    </g>
    <g id="ytick_2">
     <g id="line2d_8">
      <g>
       <use xlink:href="#m25e668149b" x="99" y="342.178751" style="stroke: #000000; stroke-width: 0.8"/>
      </g>
     </g>
     <g id="text_9">
      <!-- 0.05 -->
      <g transform="translate(69.734375 345.97797) scale(0.1 -0.1)">
       <defs>
        <path id="DejaVuSans-35" d="M 691 4666 
L 3169 4666 
L 3169 4134 
L 1269 4134 
L 1269 2991 
Q 1406 3038 1543 3061 
Q 1681 3084 1819 3084 
Q 2600 3084 3056 2656 
Q 3513 2228 3513 1497 
Q 3513 744 3044 326 
Q 2575 -91 1722 -91 
Q 1428 -91 1123 -41 
Q 819 9 494 109 
L 494 744 
Q 775 591 1075 516 
Q 1375 441 1709 441 
Q 2250 441 2565 725 
Q 2881 1009 2881 1497 
Q 2881 1984 2565 2268 
Q 2250 2553 1709 2553 
Q 1456 2553 1204 2497 
Q 953 2441 691 2322 
L 691 4666 
z
" transform="scale(0.015625)"/>
       </defs>
       <use xlink:href="#DejaVuSans-30"/>
       <use xlink:href="#DejaVuSans-2e" transform="translate(63.623047 0)"/>
       <use xlink:href="#DejaVuSans-30" transform="translate(95.410156 0)"/>
       <use xlink:href="#DejaVuSans-35" transform="translate(159.033203 0)"/>
      </g>
     </g>
    </g>
    <g id="ytick_3">
     <g id="line2d_9">
      <g>
       <use xlink:href="#m25e668149b" x="99" y="299.877502" style="stroke: #000000; stroke-width: 0.8"/>
      </g>
     </g>
     <g id="text_10">
      <!-- 0.10 -->
      <g transform="translate(69.734375 303.676721) scale(0.1 -0.1)">
       <defs>
        <path id="DejaVuSans-31" d="M 794 531 
L 1825 531 
L 1825 4091 
L 703 3866 
L 703 4441 
L 1819 4666 
L 2450 4666 
L 2450 531 
L 3481 531 
L 3481 0 
L 794 0 
L 794 531 
z
" transform="scale(0.015625)"/>
       </defs>
       <use xlink:href="#DejaVuSans-30"/>
       <use xlink:href="#DejaVuSans-2e" transform="translate(63.623047 0)"/>
       <use xlink:href="#DejaVuSans-31" transform="translate(95.410156 0)"/>
       <use xlink:href="#DejaVuSans-30" transform="translate(159.033203 0)"/>
      </g>
     </g>
    </g>
    <g id="ytick_4">
     <g id="line2d_10">
      <g>
       <use xlink:href="#m25e668149b" x="99" y="257.576253" style="stroke: #000000; stroke-width: 0.8"/>
      </g>
     </g>
     <g id="text_11">
      <!-- 0.15 -->
      <g transform="translate(69.734375 261.375472) scale(0.1 -0.1)">
       <use xlink:href="#DejaVuSans-30"/>
       <use xlink:href="#DejaVuSans-2e" transform="translate(63.623047 0)"/>
       <use xlink:href="#DejaVuSans-31" transform="translate(95.410156 0)"/>
       <use xlink:href="#DejaVuSans-35" transform="translate(159.033203 0)"/>
      </g>
     </g>
    </g>
    <g id="ytick_5">
     <g id="line2d_11">
      <g>
       <use xlink:href="#m25e668149b" x="99" y="215.275004" style="stroke: #000000; stroke-width: 0.8"/>
      </g>
     </g>
     <g id="text_12">
      <!-- 0.20 -->
      <g transform="translate(69.734375 219.074223) scale(0.1 -0.1)">
       <use xlink:href="#DejaVuSans-30"/>
       <use xlink:href="#DejaVuSans-2e" transform="translate(63.623047 0)"/>
       <use xlink:href="#DejaVuSans-32" transform="translate(95.410156 0)"/>
       <use xlink:href="#DejaVuSans-30" transform="translate(159.033203 0)"/>
      </g>
     </g>
    </g>
    <g id="ytick_6">
     <g id="line2d_12">
      <g>
       <use xlink:href="#m25e668149b" x="99" y="172.973755" style="stroke: #000000; stroke-width: 0.8"/>
      </g>
     </g>
     <g id="text_13">
      <!-- 0.25 -->
      <g transform="translate(69.734375 176.772974) scale(0.1 -0.1)">
       <use xlink:href="#DejaVuSans-30"/>
       <use xlink:href="#DejaVuSans-2e" transform="translate(63.623047 0)"/>
       <use xlink:href="#DejaVuSans-32" transform="translate(95.410156 0)"/>
       <use xlink:href="#DejaVuSans-35" transform="translate(159.033203 0)"/>
      </g>
     </g>
    </g>
    <g id="ytick_7">
     <g id="line2d_13">
      <g>
       <use xlink:href="#m25e668149b" x="99" y="130.672506" style="stroke: #000000; stroke-width: 0.8"/>
      </g>
     </g>
     <g id="text_14">
      <!-- 0.30 -->
      <g transform="translate(69.734375 134.471725) scale(0.1 -0.1)">
       <defs>
        <path id="DejaVuSans-33" d="M 2597 2516 
Q 3050 2419 3304 2112 
Q 3559 1806 3559 1356 
Q 3559 666 3084 287 
Q 2609 -91 1734 -91 
Q 1441 -91 1130 -33 
Q 819 25 488 141 
L 488 750 
Q 750 597 1062 519 
Q 1375 441 1716 441 
Q 2309 441 2620 675 
Q 2931 909 2931 1356 
Q 2931 1769 2642 2001 
Q 2353 2234 1838 2234 
L 1294 2234 
L 1294 2753 
L 1863 2753 
Q 2328 2753 2575 2939 
Q 2822 3125 2822 3475 
Q 2822 3834 2567 4026 
Q 2313 4219 1838 4219 
Q 1578 4219 1281 4162 
Q 984 4106 628 3988 
L 628 4550 
Q 988 4650 1302 4700 
Q 1616 4750 1894 4750 
Q 2613 4750 3031 4423 
Q 3450 4097 3450 3541 
Q 3450 3153 3228 2886 
Q 3006 2619 2597 2516 
z
" transform="scale(0.015625)"/>
       </defs>
       <use xlink:href="#DejaVuSans-30"/>
       <use xlink:href="#DejaVuSans-2e" transform="translate(63.623047 0)"/>
       <use xlink:href="#DejaVuSans-33" transform="translate(95.410156 0)"/>
       <use xlink:href="#DejaVuSans-30" transform="translate(159.033203 0)"/>
      </g>
     </g>
    </g>
    <g id="ytick_8">
     <g id="line2d_14">
      <g>
       <use xlink:href="#m25e668149b" x="99" y="88.371257" style="stroke: #000000; stroke-width: 0.8"/>
      </g>
     </g>
     <g id="text_15">
      <!-- 0.35 -->
      <g transform="translate(69.734375 92.170476) scale(0.1 -0.1)">
       <use xlink:href="#DejaVuSans-30"/>
       <use xlink:href="#DejaVuSans-2e" transform="translate(63.623047 0)"/>
       <use xlink:href="#DejaVuSans-33" transform="translate(95.410156 0)"/>
       <use xlink:href="#DejaVuSans-35" transform="translate(159.033203 0)"/>
      </g>
     </g>
    </g>
    <g id="text_16">
     <!-- Плотность вероятности -->
     <g transform="translate(63.654687 281.030312) rotate(-90) scale(0.1 -0.1)">
      <defs>
       <path id="DejaVuSans-41f" d="M 4184 4666 
L 4184 0 
L 3553 0 
L 3553 4134 
L 1259 4134 
L 1259 0 
L 628 0 
L 628 4666 
L 4184 4666 
z
" transform="scale(0.015625)"/>
       <path id="DejaVuSans-43b" d="M 238 0 
L 238 478 
Q 806 566 981 959 
Q 1194 1513 1194 2928 
L 1194 3500 
L 3559 3500 
L 3559 0 
L 2984 0 
L 2984 3041 
L 1769 3041 
L 1769 2694 
Q 1769 1344 1494 738 
Q 1200 91 238 0 
z
" transform="scale(0.015625)"/>
       <path id="DejaVuSans-441" d="M 3122 3366 
L 3122 2828 
Q 2878 2963 2633 3030 
Q 2388 3097 2138 3097 
Q 1578 3097 1268 2742 
Q 959 2388 959 1747 
Q 959 1106 1268 751 
Q 1578 397 2138 397 
Q 2388 397 2633 464 
Q 2878 531 3122 666 
L 3122 134 
Q 2881 22 2623 -34 
Q 2366 -91 2075 -91 
Q 1284 -91 818 406 
Q 353 903 353 1747 
Q 353 2603 823 3093 
Q 1294 3584 2113 3584 
Q 2378 3584 2631 3529 
Q 2884 3475 3122 3366 
z
" transform="scale(0.015625)"/>
       <path id="DejaVuSans-44c" d="M 2781 1038 
Q 2781 1319 2576 1466 
Q 2372 1613 1978 1613 
L 1159 1613 
L 1159 459 
L 1978 459 
Q 2372 459 2576 607 
Q 2781 756 2781 1038 
z
M 581 3500 
L 1159 3500 
L 1159 2072 
L 2003 2072 
Q 2672 2072 3033 1817 
Q 3394 1563 3394 1038 
Q 3394 513 3033 256 
Q 2672 0 2003 0 
L 581 0 
L 581 3500 
z
" transform="scale(0.015625)"/>
      </defs>
      <use xlink:href="#DejaVuSans-41f"/>
      <use xlink:href="#DejaVuSans-43b" transform="translate(75.195312 0)"/>
      <use xlink:href="#DejaVuSans-43e" transform="translate(139.111328 0)"/>
      <use xlink:href="#DejaVuSans-442" transform="translate(200.292969 0)"/>
      <use xlink:href="#DejaVuSans-43d" transform="translate(258.544922 0)"/>
      <use xlink:href="#DejaVuSans-43e" transform="translate(323.925781 0)"/>
      <use xlink:href="#DejaVuSans-441" transform="translate(385.107422 0)"/>
      <use xlink:href="#DejaVuSans-442" transform="translate(440.087891 0)"/>
      <use xlink:href="#DejaVuSans-44c" transform="translate(498.339844 0)"/>
      <use xlink:href="#DejaVuSans-20" transform="translate(557.275391 0)"/>
      <use xlink:href="#DejaVuSans-432" transform="translate(589.0625 0)"/>
      <use xlink:href="#DejaVuSans-435" transform="translate(647.998047 0)"/>
      <use xlink:href="#DejaVuSans-440" transform="translate(709.521484 0)"/>
      <use xlink:href="#DejaVuSans-43e" transform="translate(772.998047 0)"/>
      <use xlink:href="#DejaVuSans-44f" transform="translate(834.179688 0)"/>
      <use xlink:href="#DejaVuSans-442" transform="translate(894.335938 0)"/>
      <use xlink:href="#DejaVuSans-43d" transform="translate(952.587891 0)"/>
      <use xlink:href="#DejaVuSans-43e" transform="translate(1017.96875 0)"/>
      <use xlink:href="#DejaVuSans-441" transform="translate(1079.150391 0)"/>
      <use xlink:href="#DejaVuSans-442" transform="translate(1134.130859 0)"/>
      <use xlink:href="#DejaVuSans-438" transform="translate(1192.382812 0)"/>
     </g>
    </g>
   </g>
   <g id="line2d_15">
    <path d="M 126.9 384.479804 
L 132.536364 384.478835 
L 138.172727 384.474315 
L 143.809091 384.456746 
L 149.445455 384.398785 
L 155.081818 384.233806 
L 160.718182 383.822608 
L 166.354545 382.913209 
L 171.990909 381.107329 
L 177.627273 377.853018 
L 183.263636 372.480583 
L 188.9 364.286971 
L 194.536364 352.65637 
L 200.172727 337.189885 
L 205.809091 317.81157 
L 211.445455 294.823947 
L 217.081818 268.900421 
L 222.718182 241.018512 
L 228.354545 212.350995 
L 233.990909 184.138507 
L 239.627273 157.566735 
L 245.263636 133.665873 
L 250.9 113.242257 
L 256.536364 96.844579 
L 262.172727 84.761196 
L 267.809091 77.041591 
L 273.445455 73.533734 
L 279.081818 73.929463 
L 284.718182 77.811402 
L 290.354545 84.696709 
L 295.990909 94.074758 
L 301.627273 105.437361 
L 307.263636 118.301322 
L 312.9 132.223847 
L 318.536364 146.81181 
L 324.172727 161.726054 
L 329.809091 176.681897 
L 335.445455 191.446936 
L 341.081818 205.837072 
L 346.718182 219.711487 
L 352.354545 232.967161 
L 357.990909 245.533332 
L 363.627273 257.366179 
L 369.263636 268.44392 
L 374.9 278.762411 
L 380.536364 288.331296 
L 386.172727 297.170703 
L 391.809091 305.308458 
L 397.445455 312.777781 
L 403.081818 319.615406 
L 408.718182 325.860076 
L 414.354545 331.551354 
L 419.990909 336.728711 
L 425.627273 341.430834 
L 431.263636 345.695118 
L 436.9 349.557314 
L 442.536364 353.051293 
L 448.172727 356.208904 
L 453.809091 359.059906 
L 459.445455 361.631961 
L 465.081818 363.950664 
L 470.718182 366.039604 
L 476.354545 367.920448 
L 481.990909 369.613044 
L 487.627273 371.135522 
L 493.263636 372.504408 
L 498.9 373.734739 
L 504.536364 374.840169 
L 510.172727 375.833082 
L 515.809091 376.724693 
L 521.445455 377.525144 
L 527.081818 378.243604 
L 532.718182 378.888346 
L 538.354545 379.466835 
L 543.990909 379.985801 
L 549.627273 380.451303 
L 555.263636 380.868798 
L 560.9 381.243195 
L 566.536364 381.578911 
L 572.172727 381.879915 
L 577.809091 382.149776 
L 583.445455 382.391697 
L 589.081818 382.608558 
L 594.718182 382.802945 
L 600.354545 382.977176 
L 605.990909 383.133335 
L 611.627273 383.273291 
L 617.263636 383.398721 
L 622.9 383.511127 
L 628.536364 383.611861 
L 634.172727 383.70213 
L 639.809091 383.783022 
L 645.445455 383.855507 
L 651.081818 383.920459 
L 656.718182 383.97866 
L 662.354545 384.03081 
L 667.990909 384.077538 
L 673.627273 384.119407 
L 679.263636 384.156922 
L 684.9 384.190535 
" clip-path="url(#p510effb357)" style="fill: none; stroke: #ff0000; stroke-width: 2.5; stroke-linecap: square"/>
   </g>
   <g id="patch_103">
    <path d="M 99 384.48 
L 99 51.84 
" style="fill: none; stroke: #000000; stroke-width: 0.8; stroke-linejoin: miter; stroke-linecap: square"/>
   </g>
   <g id="patch_104">
    <path d="M 712.8 384.48 
L 712.8 51.84 
" style="fill: none; stroke: #000000; stroke-width: 0.8; stroke-linejoin: miter; stroke-linecap: square"/>
   </g>
   <g id="patch_105">
    <path d="M 99 384.48 
L 712.8 384.48 
" style="fill: none; stroke: #000000; stroke-width: 0.8; stroke-linejoin: miter; stroke-linecap: square"/>
   </g>
   <g id="patch_106">
    <path d="M 99 51.84 
L 712.8 51.84 
" style="fill: none; stroke: #000000; stroke-width: 0.8; stroke-linejoin: miter; stroke-linecap: square"/>
   </g>
   <g id="text_17">
    <!-- Проверка соответствия стандартизованных максимумов осадков по CHIRPS распределению Гумбеля -->
    <g transform="translate(82.8375 45.84) scale(0.12 -0.12)">
     <defs>
      <path id="DejaVuSans-43a" d="M 581 3500 
L 1153 3500 
L 1153 1856 
L 2775 3500 
L 3481 3500 
L 2144 2147 
L 3653 0 
L 3009 0 
L 1769 1766 
L 1153 1141 
L 1153 0 
L 581 0 
L 581 3500 
z
" transform="scale(0.015625)"/>
      <path id="DejaVuSans-44b" d="M 3907 3500 
L 4482 3500 
L 4482 0 
L 3907 0 
L 3907 3500 
z
M 4195 3584 
L 4195 3584 
z
M 2781 1038 
Q 2781 1319 2576 1466 
Q 2372 1613 1978 1613 
L 1159 1613 
L 1159 459 
L 1978 459 
Q 2372 459 2576 607 
Q 2781 756 2781 1038 
z
M 581 3500 
L 1159 3500 
L 1159 2072 
L 2003 2072 
Q 2672 2072 3033 1817 
Q 3394 1563 3394 1038 
Q 3394 513 3033 256 
Q 2672 0 2003 0 
L 581 0 
L 581 3500 
z
" transform="scale(0.015625)"/>
      <path id="DejaVuSans-445" d="M 3513 3500 
L 2247 1797 
L 3578 0 
L 2900 0 
L 1881 1375 
L 863 0 
L 184 0 
L 1544 1831 
L 300 3500 
L 978 3500 
L 1906 2253 
L 2834 3500 
L 3513 3500 
z
" transform="scale(0.015625)"/>
      <path id="DejaVuSans-443" d="M 2059 -325 
Q 1816 -950 1584 -1140 
Q 1353 -1331 966 -1331 
L 506 -1331 
L 506 -850 
L 844 -850 
Q 1081 -850 1212 -737 
Q 1344 -625 1503 -206 
L 1606 56 
L 191 3500 
L 800 3500 
L 1894 763 
L 2988 3500 
L 3597 3500 
L 2059 -325 
z
" transform="scale(0.015625)"/>
      <path id="DejaVuSans-43" d="M 4122 4306 
L 4122 3641 
Q 3803 3938 3442 4084 
Q 3081 4231 2675 4231 
Q 1875 4231 1450 3742 
Q 1025 3253 1025 2328 
Q 1025 1406 1450 917 
Q 1875 428 2675 428 
Q 3081 428 3442 575 
Q 3803 722 4122 1019 
L 4122 359 
Q 3791 134 3420 21 
Q 3050 -91 2638 -91 
Q 1578 -91 968 557 
Q 359 1206 359 2328 
Q 359 3453 968 4101 
Q 1578 4750 2638 4750 
Q 3056 4750 3426 4639 
Q 3797 4528 4122 4306 
z
" transform="scale(0.015625)"/>
      <path id="DejaVuSans-48" d="M 628 4666 
L 1259 4666 
L 1259 2753 
L 3553 2753 
L 3553 4666 
L 4184 4666 
L 4184 0 
L 3553 0 
L 3553 2222 
L 1259 2222 
L 1259 0 
L 628 0 
L 628 4666 
z
" transform="scale(0.015625)"/>
      <path id="DejaVuSans-49" d="M 628 4666 
L 1259 4666 
L 1259 0 
L 628 0 
L 628 4666 
z
" transform="scale(0.015625)"/>
      <path id="DejaVuSans-52" d="M 2841 2188 
Q 3044 2119 3236 1894 
Q 3428 1669 3622 1275 
L 4263 0 
L 3584 0 
L 2988 1197 
Q 2756 1666 2539 1819 
Q 2322 1972 1947 1972 
L 1259 1972 
L 1259 0 
L 628 0 
L 628 4666 
L 2053 4666 
Q 2853 4666 3247 4331 
Q 3641 3997 3641 3322 
Q 3641 2881 3436 2590 
Q 3231 2300 2841 2188 
z
M 1259 4147 
L 1259 2491 
L 2053 2491 
Q 2509 2491 2742 2702 
Q 2975 2913 2975 3322 
Q 2975 3731 2742 3939 
Q 2509 4147 2053 4147 
L 1259 4147 
z
" transform="scale(0.015625)"/>
      <path id="DejaVuSans-50" d="M 1259 4147 
L 1259 2394 
L 2053 2394 
Q 2494 2394 2734 2622 
Q 2975 2850 2975 3272 
Q 2975 3691 2734 3919 
Q 2494 4147 2053 4147 
L 1259 4147 
z
M 628 4666 
L 2053 4666 
Q 2838 4666 3239 4311 
Q 3641 3956 3641 3272 
Q 3641 2581 3239 2228 
Q 2838 1875 2053 1875 
L 1259 1875 
L 1259 0 
L 628 0 
L 628 4666 
z
" transform="scale(0.015625)"/>
      <path id="DejaVuSans-53" d="M 3425 4513 
L 3425 3897 
Q 3066 4069 2747 4153 
Q 2428 4238 2131 4238 
Q 1616 4238 1336 4038 
Q 1056 3838 1056 3469 
Q 1056 3159 1242 3001 
Q 1428 2844 1947 2747 
L 2328 2669 
Q 3034 2534 3370 2195 
Q 3706 1856 3706 1288 
Q 3706 609 3251 259 
Q 2797 -91 1919 -91 
Q 1588 -91 1214 -16 
Q 841 59 441 206 
L 441 856 
Q 825 641 1194 531 
Q 1563 422 1919 422 
Q 2459 422 2753 634 
Q 3047 847 3047 1241 
Q 3047 1584 2836 1778 
Q 2625 1972 2144 2069 
L 1759 2144 
Q 1053 2284 737 2584 
Q 422 2884 422 3419 
Q 422 4038 858 4394 
Q 1294 4750 2059 4750 
Q 2388 4750 2728 4690 
Q 3069 4631 3425 4513 
z
" transform="scale(0.015625)"/>
      <path id="DejaVuSans-44e" d="M 3431 3097 
Q 2969 3097 2700 2736 
Q 2431 2375 2431 1747 
Q 2431 1119 2698 758 
Q 2966 397 3431 397 
Q 3891 397 4159 759 
Q 4428 1122 4428 1747 
Q 4428 2369 4159 2733 
Q 3891 3097 3431 3097 
z
M 1844 2103 
Q 1903 2697 2292 3140 
Q 2681 3584 3431 3584 
Q 4181 3584 4609 3096 
Q 5038 2609 5038 1747 
Q 5038 888 4609 398 
Q 4181 -91 3431 -91 
Q 2678 -91 2267 381 
Q 1856 853 1828 1628 
L 1178 1628 
L 1178 0 
L 603 0 
L 603 3500 
L 1178 3500 
L 1178 2103 
L 1844 2103 
z
" transform="scale(0.015625)"/>
      <path id="DejaVuSans-413" d="M 628 0 
L 628 4666 
L 3531 4666 
L 3531 4134 
L 1259 4134 
L 1259 0 
L 628 0 
z
" transform="scale(0.015625)"/>
      <path id="DejaVuSans-431" d="M 1991 3584 
Q 2741 3584 3169 3096 
Q 3597 2609 3597 1747 
Q 3597 888 3169 398 
Q 2741 -91 1991 -91 
Q 1238 -91 822 384 
Q 406 859 384 1747 
L 366 2463 
Q 350 2834 350 2963 
Q 350 3463 531 3831 
Q 816 4409 1308 4659 
Q 1800 4909 2625 4916 
Q 3006 4919 3175 4972 
L 3334 4516 
Q 3181 4453 3041 4450 
L 2259 4397 
Q 1866 4369 1628 4231 
Q 1006 3866 947 3388 
L 925 3213 
Q 1331 3584 1991 3584 
z
M 1991 3097 
Q 1528 3097 1259 2736 
Q 991 2375 991 1747 
Q 991 1119 1258 758 
Q 1525 397 1991 397 
Q 2450 397 2719 759 
Q 2988 1122 2988 1747 
Q 2988 2369 2719 2733 
Q 2450 3097 1991 3097 
z
" transform="scale(0.015625)"/>
     </defs>
     <use xlink:href="#DejaVuSans-41f"/>
     <use xlink:href="#DejaVuSans-440" transform="translate(75.195312 0)"/>
     <use xlink:href="#DejaVuSans-43e" transform="translate(138.671875 0)"/>
     <use xlink:href="#DejaVuSans-432" transform="translate(199.853516 0)"/>
     <use xlink:href="#DejaVuSans-435" transform="translate(258.789062 0)"/>
     <use xlink:href="#DejaVuSans-440" transform="translate(320.3125 0)"/>
     <use xlink:href="#DejaVuSans-43a" transform="translate(383.789062 0)"/>
     <use xlink:href="#DejaVuSans-430" transform="translate(444.189453 0)"/>
     <use xlink:href="#DejaVuSans-20" transform="translate(505.46875 0)"/>
     <use xlink:href="#DejaVuSans-441" transform="translate(537.255859 0)"/>
     <use xlink:href="#DejaVuSans-43e" transform="translate(592.236328 0)"/>
     <use xlink:href="#DejaVuSans-43e" transform="translate(653.417969 0)"/>
     <use xlink:href="#DejaVuSans-442" transform="translate(714.599609 0)"/>
     <use xlink:href="#DejaVuSans-432" transform="translate(772.851562 0)"/>
     <use xlink:href="#DejaVuSans-435" transform="translate(831.787109 0)"/>
     <use xlink:href="#DejaVuSans-442" transform="translate(893.310547 0)"/>
     <use xlink:href="#DejaVuSans-441" transform="translate(951.5625 0)"/>
     <use xlink:href="#DejaVuSans-442" transform="translate(1006.542969 0)"/>
     <use xlink:href="#DejaVuSans-432" transform="translate(1064.794922 0)"/>
     <use xlink:href="#DejaVuSans-438" transform="translate(1123.730469 0)"/>
     <use xlink:href="#DejaVuSans-44f" transform="translate(1188.720703 0)"/>
     <use xlink:href="#DejaVuSans-20" transform="translate(1248.876953 0)"/>
     <use xlink:href="#DejaVuSans-441" transform="translate(1280.664062 0)"/>
     <use xlink:href="#DejaVuSans-442" transform="translate(1335.644531 0)"/>
     <use xlink:href="#DejaVuSans-430" transform="translate(1393.896484 0)"/>
     <use xlink:href="#DejaVuSans-43d" transform="translate(1455.175781 0)"/>
     <use xlink:href="#DejaVuSans-434" transform="translate(1520.556641 0)"/>
     <use xlink:href="#DejaVuSans-430" transform="translate(1589.697266 0)"/>
     <use xlink:href="#DejaVuSans-440" transform="translate(1650.976562 0)"/>
     <use xlink:href="#DejaVuSans-442" transform="translate(1714.453125 0)"/>
     <use xlink:href="#DejaVuSans-438" transform="translate(1772.705078 0)"/>
     <use xlink:href="#DejaVuSans-437" transform="translate(1837.695312 0)"/>
     <use xlink:href="#DejaVuSans-43e" transform="translate(1890.869141 0)"/>
     <use xlink:href="#DejaVuSans-432" transform="translate(1952.050781 0)"/>
     <use xlink:href="#DejaVuSans-430" transform="translate(2010.986328 0)"/>
     <use xlink:href="#DejaVuSans-43d" transform="translate(2072.265625 0)"/>
     <use xlink:href="#DejaVuSans-43d" transform="translate(2137.646484 0)"/>
     <use xlink:href="#DejaVuSans-44b" transform="translate(2203.027344 0)"/>
     <use xlink:href="#DejaVuSans-445" transform="translate(2281.982422 0)"/>
     <use xlink:href="#DejaVuSans-20" transform="translate(2341.162109 0)"/>
     <use xlink:href="#DejaVuSans-43c" transform="translate(2372.949219 0)"/>
     <use xlink:href="#DejaVuSans-430" transform="translate(2448.388672 0)"/>
     <use xlink:href="#DejaVuSans-43a" transform="translate(2509.667969 0)"/>
     <use xlink:href="#DejaVuSans-441" transform="translate(2570.068359 0)"/>
     <use xlink:href="#DejaVuSans-438" transform="translate(2625.048828 0)"/>
     <use xlink:href="#DejaVuSans-43c" transform="translate(2690.039062 0)"/>
     <use xlink:href="#DejaVuSans-443" transform="translate(2765.478516 0)"/>
     <use xlink:href="#DejaVuSans-43c" transform="translate(2824.658203 0)"/>
     <use xlink:href="#DejaVuSans-43e" transform="translate(2900.097656 0)"/>
     <use xlink:href="#DejaVuSans-432" transform="translate(2961.279297 0)"/>
     <use xlink:href="#DejaVuSans-20" transform="translate(3020.214844 0)"/>
     <use xlink:href="#DejaVuSans-43e" transform="translate(3052.001953 0)"/>
     <use xlink:href="#DejaVuSans-441" transform="translate(3113.183594 0)"/>
     <use xlink:href="#DejaVuSans-430" transform="translate(3168.164062 0)"/>
     <use xlink:href="#DejaVuSans-434" transform="translate(3229.443359 0)"/>
     <use xlink:href="#DejaVuSans-43a" transform="translate(3298.583984 0)"/>
     <use xlink:href="#DejaVuSans-43e" transform="translate(3358.984375 0)"/>
     <use xlink:href="#DejaVuSans-432" transform="translate(3420.166016 0)"/>
     <use xlink:href="#DejaVuSans-20" transform="translate(3479.101562 0)"/>
     <use xlink:href="#DejaVuSans-43f" transform="translate(3510.888672 0)"/>
     <use xlink:href="#DejaVuSans-43e" transform="translate(3576.269531 0)"/>
     <use xlink:href="#DejaVuSans-20" transform="translate(3637.451172 0)"/>
     <use xlink:href="#DejaVuSans-43" transform="translate(3669.238281 0)"/>
     <use xlink:href="#DejaVuSans-48" transform="translate(3739.0625 0)"/>
     <use xlink:href="#DejaVuSans-49" transform="translate(3814.257812 0)"/>
     <use xlink:href="#DejaVuSans-52" transform="translate(3843.75 0)"/>
     <use xlink:href="#DejaVuSans-50" transform="translate(3913.232422 0)"/>
     <use xlink:href="#DejaVuSans-53" transform="translate(3973.535156 0)"/>
     <use xlink:href="#DejaVuSans-20" transform="translate(4037.011719 0)"/>
     <use xlink:href="#DejaVuSans-440" transform="translate(4068.798828 0)"/>
     <use xlink:href="#DejaVuSans-430" transform="translate(4132.275391 0)"/>
     <use xlink:href="#DejaVuSans-441" transform="translate(4193.554688 0)"/>
     <use xlink:href="#DejaVuSans-43f" transform="translate(4248.535156 0)"/>
     <use xlink:href="#DejaVuSans-440" transform="translate(4313.916016 0)"/>
     <use xlink:href="#DejaVuSans-435" transform="translate(4377.392578 0)"/>
     <use xlink:href="#DejaVuSans-434" transform="translate(4438.916016 0)"/>
     <use xlink:href="#DejaVuSans-435" transform="translate(4508.056641 0)"/>
     <use xlink:href="#DejaVuSans-43b" transform="translate(4569.580078 0)"/>
     <use xlink:href="#DejaVuSans-435" transform="translate(4633.496094 0)"/>
     <use xlink:href="#DejaVuSans-43d" transform="translate(4695.019531 0)"/>
     <use xlink:href="#DejaVuSans-438" transform="translate(4760.400391 0)"/>
     <use xlink:href="#DejaVuSans-44e" transform="translate(4825.390625 0)"/>
     <use xlink:href="#DejaVuSans-20" transform="translate(4909.570312 0)"/>
     <use xlink:href="#DejaVuSans-413" transform="translate(4941.357422 0)"/>
     <use xlink:href="#DejaVuSans-443" transform="translate(5002.34375 0)"/>
     <use xlink:href="#DejaVuSans-43c" transform="translate(5061.523438 0)"/>
     <use xlink:href="#DejaVuSans-431" transform="translate(5136.962891 0)"/>
     <use xlink:href="#DejaVuSans-435" transform="translate(5198.632812 0)"/>
     <use xlink:href="#DejaVuSans-43b" transform="translate(5260.15625 0)"/>
     <use xlink:href="#DejaVuSans-44f" transform="translate(5324.072266 0)"/>
    </g>
   </g>
   <g id="legend_1">
    <g id="patch_107">
     <path d="M 490.410938 100.564375 
L 705.8 100.564375 
Q 707.8 100.564375 707.8 98.564375 
L 707.8 58.84 
Q 707.8 56.84 705.8 56.84 
L 490.410938 56.84 
Q 488.410938 56.84 488.410938 58.84 
L 488.410938 98.564375 
Q 488.410938 100.564375 490.410938 100.564375 
z
" style="fill: #ffffff; opacity: 0.8; stroke: #cccccc; stroke-linejoin: miter"/>
    </g>
    <g id="patch_108">
     <path d="M 492.410938 75.077187 
L 512.410938 75.077187 
L 512.410938 68.077187 
L 492.410938 68.077187 
z
" style="fill: #87ceeb; opacity: 0.5"/>
    </g>
    <g id="text_18">
     <!-- Эмпирические данные по осадкам -->
     <g transform="translate(520.410938 68.438437) scale(0.1 -0.1)">
      <defs>
       <path id="DejaVuSans-42d" d="M 347 1019 
Q 1006 428 1806 428 
Q 2631 428 3003 872 
Q 3375 1316 3444 2063 
L 950 2063 
L 950 2594 
L 3444 2594 
Q 3375 3341 3003 3786 
Q 2631 4231 1806 4231 
Q 1006 4231 347 3641 
L 347 4306 
Q 997 4750 1844 4750 
Q 2891 4750 3500 4101 
Q 4109 3453 4109 2331 
Q 4109 1206 3500 557 
Q 2891 -91 1844 -91 
Q 1009 -91 347 359 
L 347 1019 
z
" transform="scale(0.015625)"/>
       <path id="DejaVuSans-447" d="M 2625 0 
L 2625 1472 
L 1553 1472 
Q 1075 1472 756 1769 
Q 469 2038 469 2613 
L 469 3500 
L 1044 3500 
L 1044 2666 
Q 1044 2300 1206 2116 
Q 1372 1931 1697 1931 
L 2625 1931 
L 2625 3500 
L 3200 3500 
L 3200 0 
L 2625 0 
z
" transform="scale(0.015625)"/>
      </defs>
      <use xlink:href="#DejaVuSans-42d"/>
      <use xlink:href="#DejaVuSans-43c" transform="translate(69.824219 0)"/>
      <use xlink:href="#DejaVuSans-43f" transform="translate(145.263672 0)"/>
      <use xlink:href="#DejaVuSans-438" transform="translate(210.644531 0)"/>
      <use xlink:href="#DejaVuSans-440" transform="translate(275.634766 0)"/>
      <use xlink:href="#DejaVuSans-438" transform="translate(339.111328 0)"/>
      <use xlink:href="#DejaVuSans-447" transform="translate(404.101562 0)"/>
      <use xlink:href="#DejaVuSans-435" transform="translate(463.183594 0)"/>
      <use xlink:href="#DejaVuSans-441" transform="translate(524.707031 0)"/>
      <use xlink:href="#DejaVuSans-43a" transform="translate(579.6875 0)"/>
      <use xlink:href="#DejaVuSans-438" transform="translate(640.087891 0)"/>
      <use xlink:href="#DejaVuSans-435" transform="translate(705.078125 0)"/>
      <use xlink:href="#DejaVuSans-20" transform="translate(766.601562 0)"/>
      <use xlink:href="#DejaVuSans-434" transform="translate(798.388672 0)"/>
      <use xlink:href="#DejaVuSans-430" transform="translate(867.529297 0)"/>
      <use xlink:href="#DejaVuSans-43d" transform="translate(928.808594 0)"/>
      <use xlink:href="#DejaVuSans-43d" transform="translate(994.189453 0)"/>
      <use xlink:href="#DejaVuSans-44b" transform="translate(1059.570312 0)"/>
      <use xlink:href="#DejaVuSans-435" transform="translate(1138.525391 0)"/>
      <use xlink:href="#DejaVuSans-20" transform="translate(1200.048828 0)"/>
      <use xlink:href="#DejaVuSans-43f" transform="translate(1231.835938 0)"/>
      <use xlink:href="#DejaVuSans-43e" transform="translate(1297.216797 0)"/>
      <use xlink:href="#DejaVuSans-20" transform="translate(1358.398438 0)"/>
      <use xlink:href="#DejaVuSans-43e" transform="translate(1390.185547 0)"/>
      <use xlink:href="#DejaVuSans-441" transform="translate(1451.367188 0)"/>
      <use xlink:href="#DejaVuSans-430" transform="translate(1506.347656 0)"/>
      <use xlink:href="#DejaVuSans-434" transform="translate(1567.626953 0)"/>
      <use xlink:href="#DejaVuSans-43a" transform="translate(1636.767578 0)"/>
      <use xlink:href="#DejaVuSans-430" transform="translate(1697.167969 0)"/>
      <use xlink:href="#DejaVuSans-43c" transform="translate(1758.447266 0)"/>
     </g>
     <!-- (стандартизованные) -->
     <g transform="translate(520.410938 79.63625) scale(0.1 -0.1)">
      <defs>
       <path id="DejaVuSans-28" d="M 1984 4856 
Q 1566 4138 1362 3434 
Q 1159 2731 1159 2009 
Q 1159 1288 1364 580 
Q 1569 -128 1984 -844 
L 1484 -844 
Q 1016 -109 783 600 
Q 550 1309 550 2009 
Q 550 2706 781 3412 
Q 1013 4119 1484 4856 
L 1984 4856 
z
" transform="scale(0.015625)"/>
       <path id="DejaVuSans-29" d="M 513 4856 
L 1013 4856 
Q 1481 4119 1714 3412 
Q 1947 2706 1947 2009 
Q 1947 1309 1714 600 
Q 1481 -109 1013 -844 
L 513 -844 
Q 928 -128 1133 580 
Q 1338 1288 1338 2009 
Q 1338 2731 1133 3434 
Q 928 4138 513 4856 
z
" transform="scale(0.015625)"/>
      </defs>
      <use xlink:href="#DejaVuSans-28"/>
      <use xlink:href="#DejaVuSans-441" transform="translate(39.013672 0)"/>
      <use xlink:href="#DejaVuSans-442" transform="translate(93.994141 0)"/>
      <use xlink:href="#DejaVuSans-430" transform="translate(152.246094 0)"/>
      <use xlink:href="#DejaVuSans-43d" transform="translate(213.525391 0)"/>
      <use xlink:href="#DejaVuSans-434" transform="translate(278.90625 0)"/>
      <use xlink:href="#DejaVuSans-430" transform="translate(348.046875 0)"/>
      <use xlink:href="#DejaVuSans-440" transform="translate(409.326172 0)"/>
      <use xlink:href="#DejaVuSans-442" transform="translate(472.802734 0)"/>
      <use xlink:href="#DejaVuSans-438" transform="translate(531.054688 0)"/>
      <use xlink:href="#DejaVuSans-437" transform="translate(596.044922 0)"/>
      <use xlink:href="#DejaVuSans-43e" transform="translate(649.21875 0)"/>
      <use xlink:href="#DejaVuSans-432" transform="translate(710.400391 0)"/>
      <use xlink:href="#DejaVuSans-430" transform="translate(769.335938 0)"/>
      <use xlink:href="#DejaVuSans-43d" transform="translate(830.615234 0)"/>
      <use xlink:href="#DejaVuSans-43d" transform="translate(895.996094 0)"/>
      <use xlink:href="#DejaVuSans-44b" transform="translate(961.376953 0)"/>
      <use xlink:href="#DejaVuSans-435" transform="translate(1040.332031 0)"/>
      <use xlink:href="#DejaVuSans-29" transform="translate(1101.855469 0)"/>
     </g>
    </g>
    <g id="line2d_16">
     <path d="M 492.410938 90.984688 
L 502.410938 90.984688 
L 512.410938 90.984688 
" style="fill: none; stroke: #ff0000; stroke-width: 2.5; stroke-linecap: square"/>
    </g>
    <g id="text_19">
     <!-- Кривая Гумбеля (μ=0.00, β=1.00) -->
     <g transform="translate(520.410938 94.484688) scale(0.1 -0.1)">
      <defs>
       <path id="DejaVuSans-41a" d="M 628 4666 
L 1259 4666 
L 1259 2359 
L 3516 4666 
L 4325 4666 
L 2522 2822 
L 4419 0 
L 3731 0 
L 2113 2403 
L 1259 1531 
L 1259 0 
L 628 0 
L 628 4666 
z
" transform="scale(0.015625)"/>
       <path id="DejaVuSans-3bc" d="M 544 -1331 
L 544 3500 
L 1119 3500 
L 1119 1325 
Q 1119 872 1334 640 
Q 1550 409 1972 409 
Q 2434 409 2667 671 
Q 2900 934 2900 1459 
L 2900 3500 
L 3475 3500 
L 3475 806 
Q 3475 619 3529 530 
Q 3584 441 3700 441 
Q 3728 441 3778 458 
Q 3828 475 3916 513 
L 3916 50 
Q 3788 -22 3673 -56 
Q 3559 -91 3450 -91 
Q 3234 -91 3106 31 
Q 2978 153 2931 403 
Q 2775 156 2548 32 
Q 2322 -91 2016 -91 
Q 1697 -91 1473 31 
Q 1250 153 1119 397 
L 1119 -1331 
L 544 -1331 
z
" transform="scale(0.015625)"/>
       <path id="DejaVuSans-3d" d="M 678 2906 
L 4684 2906 
L 4684 2381 
L 678 2381 
L 678 2906 
z
M 678 1631 
L 4684 1631 
L 4684 1100 
L 678 1100 
L 678 1631 
z
" transform="scale(0.015625)"/>
       <path id="DejaVuSans-2c" d="M 750 794 
L 1409 794 
L 1409 256 
L 897 -744 
L 494 -744 
L 750 256 
L 750 794 
z
" transform="scale(0.015625)"/>
       <path id="DejaVuSans-3b2" d="M 1178 216 
L 1178 -1331 
L 600 -1331 
L 600 3478 
Q 600 4903 1931 4903 
Q 3288 4903 3288 3700 
Q 3288 2844 2750 2531 
Q 3625 2250 3625 1416 
Q 3625 -66 2119 -66 
Q 1456 -66 1178 216 
z
M 1178 966 
Q 1525 425 2141 425 
Q 3041 425 3041 1406 
Q 3041 2288 1591 2219 
L 1591 2750 
Q 2725 2750 2725 3750 
Q 2725 4434 1994 4434 
Q 1178 4434 1178 3459 
L 1178 966 
z
" transform="scale(0.015625)"/>
      </defs>
      <use xlink:href="#DejaVuSans-41a"/>
      <use xlink:href="#DejaVuSans-440" transform="translate(70.996094 0)"/>
      <use xlink:href="#DejaVuSans-438" transform="translate(134.472656 0)"/>
      <use xlink:href="#DejaVuSans-432" transform="translate(199.462891 0)"/>
      <use xlink:href="#DejaVuSans-430" transform="translate(258.398438 0)"/>
      <use xlink:href="#DejaVuSans-44f" transform="translate(319.677734 0)"/>
      <use xlink:href="#DejaVuSans-20" transform="translate(379.833984 0)"/>
      <use xlink:href="#DejaVuSans-413" transform="translate(411.621094 0)"/>
      <use xlink:href="#DejaVuSans-443" transform="translate(472.607422 0)"/>
      <use xlink:href="#DejaVuSans-43c" transform="translate(531.787109 0)"/>
      <use xlink:href="#DejaVuSans-431" transform="translate(607.226562 0)"/>
      <use xlink:href="#DejaVuSans-435" transform="translate(668.896484 0)"/>
      <use xlink:href="#DejaVuSans-43b" transform="translate(730.419922 0)"/>
      <use xlink:href="#DejaVuSans-44f" transform="translate(794.335938 0)"/>
      <use xlink:href="#DejaVuSans-20" transform="translate(854.492188 0)"/>
      <use xlink:href="#DejaVuSans-28" transform="translate(886.279297 0)"/>
      <use xlink:href="#DejaVuSans-3bc" transform="translate(925.292969 0)"/>
      <use xlink:href="#DejaVuSans-3d" transform="translate(988.916016 0)"/>
      <use xlink:href="#DejaVuSans-30" transform="translate(1072.705078 0)"/>
      <use xlink:href="#DejaVuSans-2e" transform="translate(1136.328125 0)"/>
      <use xlink:href="#DejaVuSans-30" transform="translate(1168.115234 0)"/>
      <use xlink:href="#DejaVuSans-30" transform="translate(1231.738281 0)"/>
      <use xlink:href="#DejaVuSans-2c" transform="translate(1295.361328 0)"/>
      <use xlink:href="#DejaVuSans-20" transform="translate(1327.148438 0)"/>
      <use xlink:href="#DejaVuSans-3b2" transform="translate(1358.935547 0)"/>
      <use xlink:href="#DejaVuSans-3d" transform="translate(1422.753906 0)"/>
      <use xlink:href="#DejaVuSans-31" transform="translate(1506.542969 0)"/>
      <use xlink:href="#DejaVuSans-2e" transform="translate(1570.166016 0)"/>
      <use xlink:href="#DejaVuSans-30" transform="translate(1601.953125 0)"/>
      <use xlink:href="#DejaVuSans-30" transform="translate(1665.576172 0)"/>
      <use xlink:href="#DejaVuSans-29" transform="translate(1729.199219 0)"/>
     </g>
    </g>
   </g>
  </g>
 </g>
 <defs>
  <clipPath id="p510effb357">
   <rect x="99" y="51.84" width="613.8" height="332.64"/>
  </clipPath>
 </defs>
</svg>
